<svg viewBox="0 0 152 149" fill="none" xmlns="http://www.w3.org/2000/svg"><path d="M38.664 43.135c-.987.744-1.712 1.347-2.291 1.828a78.706 78.706 0 0 0-6.637 6.332 69.34 69.34 0 0 0-15.089 25.961c-3.485 11.305-3.589 26.997 2.219 37.497 18.965 34.316 110.37 25.754 121.37-3.108 2.815-7.374 1.828-20.11-4.339-28.855-1.262-1.78-1.389-1.676-19.623-17.064C106.553 59.211 97.022 51.1 97.022 51.1c-.05.128 14.808-26.814 7.227-35.206-2.681-2.967-7.313-2.7-9.354-2.584-8.77.5-15.236 8.49-17.795 14.98-3.571 9.086-1.652 20.848-1.652 20.805 0-.042 4.175-15.284-.816-27.923-.878-2.212-3.955-10.019-9.141-10.427-3.937-.31-7.18 3.748-8.819 5.795-6.569 8.221-6.971 20.074-6.971 20.062a76.219 76.219 0 0 0-11.037 6.533Z" fill="#F5ECD3"/><path d="M39.883 82.18c.003-.408.032-.815.085-1.219l-.079.61a9.136 9.136 0 0 1 .61-2.225l-.226.524a9.142 9.142 0 0 1 1.17-1.999l-.347.445a8.903 8.903 0 0 1 1.609-1.602l-.445.34a8.825 8.825 0 0 1 1.87-1.09l-.523.225c.624-.26 1.28-.44 1.95-.536l-.61.08a8.117 8.117 0 0 1 2.036 0l-.61-.074a8.155 8.155 0 0 1 2.072.561l-.524-.22a8.672 8.672 0 0 1 1.969 1.11l-.445-.341a9.173 9.173 0 0 1 1.59 1.596l-.347-.445c.467.61.856 1.275 1.158 1.98l-.22-.523c.3.73.505 1.496.61 2.279l-.08-.61c.07.554.09 1.113.062 1.67a2.212 2.212 0 0 0 2.2 2.2 2.249 2.249 0 0 0 2.2-2.2 10.884 10.884 0 0 0-9.94-11.463 9.524 9.524 0 0 0-3.187.305 10.42 10.42 0 0 0-5.302 3.358 11.754 11.754 0 0 0-2.054 3.51 10.665 10.665 0 0 0-.658 3.73 2.2 2.2 0 0 0 4.4 0l.006.024ZM99.178 80.096c.004-.408.032-.815.086-1.219l-.08.61a9.14 9.14 0 0 1 .61-2.23l-.22.53a8.739 8.739 0 0 1 1.165-2l-.348.445A8.932 8.932 0 0 1 102 74.63l-.445.34a8.883 8.883 0 0 1 1.877-1.09l-.53.226c.625-.26 1.28-.44 1.95-.537l-.609.08a7.85 7.85 0 0 1 2.035 0l-.609-.08c.712.1 1.408.29 2.072.567l-.524-.22c.685.292 1.33.671 1.919 1.128l-.445-.347a9.194 9.194 0 0 1 1.591 1.602l-.347-.45a9.11 9.11 0 0 1 1.157 1.986l-.219-.53c.302.732.507 1.5.609 2.285l-.079-.61c.072.554.093 1.113.061 1.67a2.21 2.21 0 0 0 2.2 2.2 2.248 2.248 0 0 0 2.2-2.2 10.863 10.863 0 0 0-9.909-11.438 9.697 9.697 0 0 0-3.187.298 10.502 10.502 0 0 0-5.302 3.358 12.133 12.133 0 0 0-2.054 3.517 10.968 10.968 0 0 0-.658 3.73 2.2 2.2 0 0 0 4.4 0l.025-.019ZM57.507 94.143a21.33 21.33 0 0 0 3.096 3.157 26.506 26.506 0 0 0 8.459 4.875 23.186 23.186 0 0 0 12.285.689A23.695 23.695 0 0 0 90.72 98.5a24.746 24.746 0 0 0 4.48-4.302c.17-.211.334-.425.493-.64a2.2 2.2 0 0 0 .225-1.694 2.2 2.2 0 0 0-2.706-1.536l-.53.22a2.176 2.176 0 0 0-.786.792l-.103.134.34-.451a21.575 21.575 0 0 1-2.705 2.876c-.433.384-.871.756-1.328 1.11l.444-.348a23.03 23.03 0 0 1-5.07 2.98l.53-.22a21.328 21.328 0 0 1-5.393 1.47l.61-.08a21.33 21.33 0 0 1-5.577 0l.61.08a21.42 21.42 0 0 1-5.314-1.463l.524.22a23.816 23.816 0 0 1-5.296-3.109l.445.341a23.605 23.605 0 0 1-3.657-3.436l-.329-.409a2.205 2.205 0 0 0-1.56-.646 2.206 2.206 0 0 0-2.2 2.2l.08.61c.1.367.296.7.566.969l-.006-.025Z" fill="#161033"/><path d="M44.271 92.456c.255-2.034-2.776-4.088-6.77-4.59-3.994-.5-7.438.742-7.693 2.776-.256 2.034 2.776 4.088 6.77 4.59 3.994.5 7.438-.742 7.693-2.776ZM115.153 91.587c5.182-.658 9.228-2.41 9.037-3.912-.191-1.502-4.547-2.187-9.729-1.529-5.181.659-9.228 2.41-9.037 3.913.191 1.502 4.547 2.187 9.729 1.528Z" fill="#FF5281"/><path opacity=".53" d="M103.701 125.802c-3.175.67-33.798 6.356-58.796-11.073-5.485-3.84-14.334-10.178-17.96-21.89-.61-1.914-5.302-17.862 2.95-27.064 0 0 7.514-8.38 33.804-8.532 0 0-19.337-3.766-19.501-8.38-.104-3.382 10.11-7.404 10.11-7.404s-1.085-5.954-3.973-10.208a38.031 38.031 0 0 0-.683 5.345 75.774 75.774 0 0 0-11.012 6.539c-.987.744-1.712 1.347-2.291 1.828a78.708 78.708 0 0 0-6.637 6.332 69.338 69.338 0 0 0-15.089 25.96c-3.486 11.306-3.59 26.998 2.218 37.498 18.965 34.316 110.371 25.754 121.371-3.108.097-.244.182-.5.268-.762-7.039 3.34-17.6 11.305-34.779 14.919ZM76.435 48.516s5.644-16.704 18.283-26.205c3.254-2.437 10.488-7.026 10.488-7.026s-10.78-3.157-17.77.28c-4.705 2.31-6.704 7.106-8.289 10.97.025.036-1.925 4.735-2.712 21.981Z" fill="#6AC491"/><g opacity=".5" filter="url(#a)"><path d="M79.08 28.357c.116-.299.232-.61.36-.89l-.165.39a28.96 28.96 0 0 1 2.64-4.826c.158-.24.322-.472.493-.695l.237-.323c.074-.092.269-.33-.054.073l.146-.189A23.5 23.5 0 0 1 85.04 19.4a25.12 25.12 0 0 1 1.22-1.073l.176-.14-.152.116c.11-.098.237-.177.36-.269l.67-.469a18.465 18.465 0 0 1 3.126-1.7l-.39.164a16.975 16.975 0 0 1 4.23-1.176l-.433.061c1.64-.22 3.302-.22 4.942 0l-.433-.06a12.05 12.05 0 0 1 2.986.78l-.39-.165c.549.227 1.07.515 1.554.86.299.212-.164-.141-.067-.062l.165.14c.121.1.237.205.347.317.146.14.28.287.408.433.128.146.323.439-.067-.092a7.332 7.332 0 0 1 .896 1.548l-.164-.384c.327.808.551 1.653.664 2.517l-.061-.432a17.66 17.66 0 0 1-.061 4.57l.055-.432a35.153 35.153 0 0 1-1.956 7.465c-.293.804-.61 1.596-.939 2.383l.165-.39a82.573 82.573 0 0 1-7.514 13.547 117.4 117.4 0 0 1-2.852 4.058 1.622 1.622 0 0 0 .609 2.225 1.634 1.634 0 0 0 1.25.164c.399-.134.742-.398.974-.75a106.18 106.18 0 0 0 5.845-8.811 75.121 75.121 0 0 0 4.211-8.166 49.094 49.094 0 0 0 2.699-7.63c.568-2.116.865-4.294.884-6.484a12.687 12.687 0 0 0-1.158-5.424 7.875 7.875 0 0 0-1.383-2.011 9.303 9.303 0 0 0-3.62-2.286 16.273 16.273 0 0 0-6.356-.822 19.106 19.106 0 0 0-7.149 1.743 21.512 21.512 0 0 0-6.49 4.704 27.147 27.147 0 0 0-4.875 7.185c-.36.768-.689 1.554-.994 2.347a1.633 1.633 0 0 0 .159 1.249c.22.363.567.63.975.75.422.112.87.053 1.25-.165.354-.229.619-.573.749-.975h-.025Z" fill="url(#b)"/><path d="m79.7 28.143-.12.367c-.165.512-.502.95-.954 1.242l-.01.007-.011.006a2.152 2.152 0 0 1-1.628.215l-.011-.003a2.194 2.194 0 0 1-1.263-.971l-.006-.01a2.133 2.133 0 0 1-.207-1.632l.007-.023.009-.023c.308-.801.641-1.598 1.007-2.378a27.649 27.649 0 0 1 4.965-7.317 22.012 22.012 0 0 1 6.64-4.814l.004-.001a19.606 19.606 0 0 1 7.329-1.788 16.767 16.767 0 0 1 6.545.848h.002a9.8 9.8 0 0 1 3.815 2.409l.006.006a8.384 8.384 0 0 1 1.471 2.139l.004.007a13.208 13.208 0 0 1 1.203 5.638 26.427 26.427 0 0 1-.9 6.607 49.701 49.701 0 0 1-2.727 7.705 75.422 75.422 0 0 1-4.237 8.218 106.613 106.613 0 0 1-5.865 8.843c-.293.44-.724.77-1.226.937l-.014.005-.014.004a2.133 2.133 0 0 1-1.628-.213 2.121 2.121 0 0 1-.794-2.909l.013-.024.017-.022a116.87 116.87 0 0 0 2.84-4.041l.002-.004a82.041 82.041 0 0 0 7.423-13.36c.283-.685.555-1.373.808-2.068l.003-.008a34.666 34.666 0 0 0 1.928-7.36h.002a17.15 17.15 0 0 0 .014-3.902 9.77 9.77 0 0 0-.516-1.892 7.364 7.364 0 0 0-.348-.652 6.44 6.44 0 0 0-.25-.384l-.055-.074a6.145 6.145 0 0 0-.368-.389l-.005-.005-.006-.006a3.8 3.8 0 0 0-.306-.28l-.009-.006-.053-.046-.01-.007v-.001l-.097-.083-.025-.02a1.372 1.372 0 0 1-.019-.019c-.004-.004-.013-.012-.023-.024l-.021-.025c-.007-.01-.022-.03-.038-.056a.696.696 0 0 1-.029-.06.742.742 0 0 1-.033-.12.888.888 0 0 1 .024-.242.613.613 0 0 1 .052-.084 7.84 7.84 0 0 0-.665-.358L79.699 28.144Zm0 0c.01-.03.023-.06.034-.09l.001.001a28.48 28.48 0 0 1 1.665-3.282c.295-.5.599-.988.924-1.456l.007-.01c.153-.23.31-.453.474-.667l.005-.007.19-.257a39.679 39.679 0 0 0 .17-.214l.007-.01a.459.459 0 0 0 .015-.021l.002-.004a23.004 23.004 0 0 1 2.189-2.363l-.343-.365.343.365c.387-.363.786-.715 1.19-1.048l.174-.137-.002-.003.027-.019c.043-.03.094-.065.164-.118l.661-.462a17.965 17.965 0 0 1 2.872-1.58m-10.77 11.747 10.77-11.747m0 0a16.467 16.467 0 0 1 3.633-1.012 18.144 18.144 0 0 1 4.537.014c.813.129 1.609.344 2.376.642.421.193.823.426 1.202.695v-.001l-11.748-.338Zm-7.88 5.694.317.25a.497.497 0 0 1-.095.018.89.89 0 0 1-.342-.105l.12-.163Zm20.523-5.006a.549.549 0 0 1 .092-.102l.07.078-.235.184a.5.5 0 0 1 .073-.16Z" stroke="url(#c)"/></g><g opacity=".5" filter="url(#d)"><path d="M56.398 40.082c-.33-.61-.61-1.255-.908-1.901l.164.384a21.69 21.69 0 0 1-1.499-5.394l.061.433a21.551 21.551 0 0 1 0-5.637l-.055.433c.315-2.285.93-4.519 1.828-6.643l-.164.384a25.74 25.74 0 0 1 2.846-5.07l.201-.274.092-.116c.146-.195-.122.152-.122.152.158-.189.304-.384.463-.573.274-.329.56-.652.859-.963.299-.31.579-.61.884-.859l.45-.396.232-.183.098-.08c.14-.109-.372.281-.122.098.667-.5 1.389-.926 2.151-1.267l-.39.164c.585-.249 1.2-.421 1.828-.511l-.433.06a5.627 5.627 0 0 1 1.433 0l-.433-.055c.47.068.928.195 1.365.378l-.384-.164c.373.16.732.352 1.073.573l.237.164c.116.086.44.354 0 0 .159.134.323.262.476.402.323.294.63.606.92.933.14.158.268.317.402.475l.085.11.128.17a28.362 28.362 0 0 1 2.633 4.547c.415.865.817 1.743 1.188 2.626l-.164-.39a33.48 33.48 0 0 1 2.316 8.532l-.043-.5a39.321 39.321 0 0 1-.061 10.464l.061-.433a47.488 47.488 0 0 1-1.749 7.8 1.639 1.639 0 0 0 1.14 2 1.663 1.663 0 0 0 1.998-1.134c.65-2.085 1.16-4.21 1.53-6.362.51-2.955.715-5.955.61-8.953a35.956 35.956 0 0 0-1.829-10.244 44.791 44.791 0 0 0-1.791-4.339 41.99 41.99 0 0 0-1.542-3.047c-1.262-2.224-2.846-4.46-5.07-5.813a7.392 7.392 0 0 0-6.735-.464 15.124 15.124 0 0 0-5.825 4.601 27.581 27.581 0 0 0-4.352 7.722 25.9 25.9 0 0 0-1.706 8.812c.01 3.268.716 6.496 2.072 9.47.232.518.475 1.03.743 1.53a1.628 1.628 0 0 0 2.81-1.64v-.012Z" fill="url(#e)"/><path d="m58.844 16.835.332.256m-.332-.256.312.264.002-.001a.816.816 0 0 0 .018-.007m-.332-.256.028-.038-.028.038Zm.332.256.045-.019.054.02-.005.007-.006.007-.016.018-.008.01-.002.004-.062-.047Zm-2.16 24.352a2.126 2.126 0 0 0-.118-1.467v-.02l-.06-.112c-.249-.46-.467-.938-.695-1.439L56 38.093a21.191 21.191 0 0 1-1.31-4.725 21.048 21.048 0 0 1-.02-4.99c.31-2.195.901-4.34 1.762-6.383a25.242 25.242 0 0 1 2.643-4.63l.192-.261c.068-.083.134-.166.196-.244l.002-.003c.077-.096.149-.187.223-.276a17.805 17.805 0 0 1 .908-1.012c.276-.288.514-.536.769-.744l.006-.006.007-.005.44-.388.216-.17c.588-.438 1.22-.815 1.884-1.124a6.81 6.81 0 0 1 1.193-.333c.286-.026.573-.028.86-.006.304.055.604.138.894.247.267.127.525.27.773.43l.211.147.16.133c.1.082.19.155.281.24l.002.001c.31.282.605.58.882.894.09.1.169.196.254.298l.135.161.076.098.121.162a27.864 27.864 0 0 1 2.583 4.461l.003.007a61 61 0 0 1 1.07 2.347 32.98 32.98 0 0 1 2.225 8.271l.018-.002a38.817 38.817 0 0 1-.112 9.764 46.973 46.973 0 0 1-1.679 7.354l-.003.01-.003.011a2.14 2.14 0 0 0 1.487 2.609l.014.003c.54.136 1.11.059 1.595-.216l-.247-.435.247.435a2.164 2.164 0 0 0 1.003-1.255 50.062 50.062 0 0 0 1.545-6.424c.516-2.989.722-6.023.616-9.054a36.456 36.456 0 0 0-1.853-10.386l-.003-.008a45.333 45.333 0 0 0-1.81-4.385 42.404 42.404 0 0 0-1.56-3.082c-1.273-2.243-2.91-4.573-5.246-5.994h-.001a7.892 7.892 0 0 0-7.19-.495l-.007.003a15.626 15.626 0 0 0-6.015 4.749 28.083 28.083 0 0 0-4.426 7.854 26.402 26.402 0 0 0-1.738 8.98v.01c.01 3.338.731 6.636 2.116 9.674.235.524.484 1.047.759 1.56l.008.015.009.014a2.127 2.127 0 0 0 3.851-.556Zm1.856-24.647a22.84 22.84 0 0 0 .201-.25c.076-.095.152-.191.232-.286l.013-.016c.03.021.058.043.078.062a.526.526 0 0 1 .033.058.878.878 0 0 1 .076.208c.01.101-.015.18-.02.197-.015.047-.033.08-.036.087a.494.494 0 0 1-.023.038l-.021.031-.041.056-.008.01-.484-.195Zm9.025-3.54a.643.643 0 0 1 .097-.147l.154.107-.254.308a.903.903 0 0 1 .003-.267Z" stroke="url(#f)"/></g><path d="M79.08 28.357c.116-.299.232-.61.36-.89l-.165.39a28.96 28.96 0 0 1 2.64-4.826c.158-.24.322-.472.493-.695l.237-.323c.074-.092.269-.33-.054.073l.146-.189A23.5 23.5 0 0 1 85.04 19.4a25.12 25.12 0 0 1 1.22-1.073l.176-.14-.152.116c.11-.098.237-.177.36-.269l.67-.469a18.465 18.465 0 0 1 3.126-1.7l-.39.164a16.975 16.975 0 0 1 4.23-1.176l-.433.061c1.64-.22 3.302-.22 4.942 0l-.433-.06a12.05 12.05 0 0 1 2.986.78l-.39-.165c.549.227 1.07.515 1.554.86.299.212-.164-.141-.067-.062l.165.14c.121.1.237.205.347.317.146.14.28.287.408.433.128.146.323.439-.067-.092a7.332 7.332 0 0 1 .896 1.548l-.164-.384c.327.808.551 1.653.664 2.517l-.061-.432a17.66 17.66 0 0 1-.061 4.57l.055-.432a35.153 35.153 0 0 1-1.956 7.465c-.293.804-.61 1.596-.939 2.383l.165-.39a82.573 82.573 0 0 1-7.514 13.547 117.4 117.4 0 0 1-2.852 4.058 1.622 1.622 0 0 0 .609 2.225 1.634 1.634 0 0 0 1.25.164c.399-.134.742-.398.974-.75a106.18 106.18 0 0 0 5.845-8.811 75.121 75.121 0 0 0 4.211-8.166 49.094 49.094 0 0 0 2.699-7.63c.568-2.116.865-4.294.884-6.484a12.687 12.687 0 0 0-1.158-5.424 7.875 7.875 0 0 0-1.383-2.011 9.303 9.303 0 0 0-3.62-2.286 16.273 16.273 0 0 0-6.356-.822 19.106 19.106 0 0 0-7.149 1.743 21.512 21.512 0 0 0-6.49 4.704 27.147 27.147 0 0 0-4.875 7.185c-.36.768-.689 1.554-.994 2.347a1.633 1.633 0 0 0 .159 1.249c.22.363.567.63.975.75.422.112.87.053 1.25-.165.354-.229.619-.573.749-.975h-.025Z" fill="url(#g)"/><path d="M56.398 40.082c-.33-.61-.61-1.255-.908-1.901l.164.384a21.69 21.69 0 0 1-1.499-5.394l.061.433a21.551 21.551 0 0 1 0-5.637l-.055.433c.315-2.285.93-4.519 1.828-6.643l-.164.384a25.74 25.74 0 0 1 2.846-5.07l.201-.274.092-.116c.146-.195-.122.152-.122.152.158-.189.304-.384.463-.573.274-.329.56-.652.859-.963.299-.31.579-.61.884-.859l.45-.396.232-.183.098-.08c.14-.109-.372.281-.122.098.667-.5 1.389-.926 2.151-1.267l-.39.164c.585-.249 1.2-.421 1.828-.511l-.433.06a5.627 5.627 0 0 1 1.433 0l-.433-.055c.47.068.928.195 1.365.378l-.384-.164c.373.16.732.352 1.073.573l.237.164c.116.086.44.354 0 0 .159.134.323.262.476.402.323.294.63.606.92.933.14.158.268.317.402.475l.085.11.128.17a28.362 28.362 0 0 1 2.633 4.547c.415.865.817 1.743 1.188 2.626l-.164-.39a33.48 33.48 0 0 1 2.316 8.532l-.043-.5a39.321 39.321 0 0 1-.061 10.464l.061-.433a47.488 47.488 0 0 1-1.749 7.8 1.639 1.639 0 0 0 1.14 2 1.663 1.663 0 0 0 1.998-1.134c.65-2.085 1.16-4.21 1.53-6.362.51-2.955.715-5.955.61-8.953a35.956 35.956 0 0 0-1.829-10.244 44.791 44.791 0 0 0-1.791-4.339 41.99 41.99 0 0 0-1.542-3.047c-1.262-2.224-2.846-4.46-5.07-5.813a7.392 7.392 0 0 0-6.735-.464 15.124 15.124 0 0 0-5.825 4.601 27.581 27.581 0 0 0-4.352 7.722 25.9 25.9 0 0 0-1.706 8.812c.01 3.268.716 6.496 2.072 9.47.232.518.475 1.03.743 1.53a1.628 1.628 0 0 0 2.81-1.64v-.012Z" fill="url(#h)"/><g opacity=".5" filter="url(#i)"><mask id="l" maskUnits="userSpaceOnUse" x="10.999" y="40.125" width="131" height="99" fill="#000"><path fill="#fff" d="M10.999 40.125h131v99h-131z"/><path d="M38.841 42.232a70.254 70.254 0 0 0-11.695 11.256 71.073 71.073 0 0 0-8.946 13.9 60.438 60.438 0 0 0-5.765 19.331 55.02 55.02 0 0 0 1.042 19.587 33.432 33.432 0 0 0 6.387 13.145 36.467 36.467 0 0 0 7.965 7.118 53.463 53.463 0 0 0 10.317 5.296 75.555 75.555 0 0 0 11.744 3.51c4.367.937 8.79 1.592 13.242 1.962 4.472.386 8.962.528 13.45.427a130.53 130.53 0 0 0 13.529-1c4.461-.548 8.89-1.335 13.267-2.358a96.375 96.375 0 0 0 11.804-3.577 67.728 67.728 0 0 0 10.36-4.876 41.092 41.092 0 0 0 8.038-5.996 24.034 24.034 0 0 0 5.107-7.015c2.182-4.784 2.493-10.323 1.828-15.479-.774-6.203-2.913-12.255-6.856-17.16-2.571-3.2-6.039-5.485-9.293-7.886l-.701-.525-.36-.274-.182-.14c-.208-.164.17.128-.043-.037-.567-.438-1.134-.89-1.694-1.34a100.19 100.19 0 0 1-3.779-3.224 125.13 125.13 0 0 1-8.208-8.08 134.144 134.144 0 0 1-5.302-6.095 1.635 1.635 0 0 0-2.298 0 1.665 1.665 0 0 0 0 2.297 124.256 124.256 0 0 0 13.407 14.12 102.25 102.25 0 0 0 7.149 5.863c.89.67 1.791 1.335 2.693 1.993l1.219.89.549.414.14.104s-.25-.195-.11-.08l.305.238a26.055 26.055 0 0 1 3.979 3.803l.226.274.128.159c-.134-.171.091.127.128.17l.256.347c.42.61.822 1.22 1.219 1.829.396.61.761 1.322 1.103 2.005.341.682.658 1.377.859 1.883a34.567 34.567 0 0 1 1.45 4.46c.189.738.354 1.481.488 2.225.134.743.256 1.469.317 1.975.173 1.447.259 2.905.256 4.363 0 .695 0 1.395-.067 2.09 0 .329-.049.652-.08.975 0 .165 0 .323-.048.482-.049.158-.074.554-.031.274a23.937 23.937 0 0 1-.81 3.717 21.12 21.12 0 0 1-.494 1.396c0 .03-.067.213-.091.219-.025.006.176-.402.042-.103-.067.152-.134.304-.207.457a20.07 20.07 0 0 1-2.09 3.443l-.147.201c-.164.219.226-.28.049-.067l-.341.42c-.219.275-.451.543-.683.805-.487.536-.987 1.06-1.511 1.56a33.33 33.33 0 0 1-1.682 1.499 24.52 24.52 0 0 1-.938.756c-.329.25.268-.195.03 0l-.225.17-.494.366a52.38 52.38 0 0 1-8.91 5.137c-.42.195-.834.384-1.255.567l-.609.268-.165.067-.219.092a72.35 72.35 0 0 1-2.657 1.042 88.859 88.859 0 0 1-5.662 1.895 111.803 111.803 0 0 1-12.237 2.877c-1.06.19-2.123.365-3.187.524l-1.682.243h-.085l-.39.055-.841.104c-2.186.276-4.376.491-6.57.646a129.8 129.8 0 0 1-13.334.292 120.166 120.166 0 0 1-6.624-.378 114.285 114.285 0 0 1-3.236-.323l-1.597-.195-.383-.054c.292.042.079 0-.08 0l-.822-.122a88.796 88.796 0 0 1-12.262-2.639 68.444 68.444 0 0 1-5.582-1.889 46.733 46.733 0 0 1-1.335-.536l-.316-.128c.25.103.134.054 0 0l-.677-.293a51.131 51.131 0 0 1-2.578-1.219 48.18 48.18 0 0 1-4.674-2.712 41.134 41.134 0 0 1-2.175-1.541l-.244-.189-.518-.421a32.694 32.694 0 0 1-4.46-4.4l-.373-.457c-.073-.091-.14-.183-.213-.268.189.232.103.134 0 0a29.322 29.322 0 0 1-.713-.993 28.118 28.118 0 0 1-1.304-2.066c-2.901-5.119-4.138-11.25-4.419-17.125a54.457 54.457 0 0 1 2.109-18.319 63.485 63.485 0 0 1 8.117-17.063 66.883 66.883 0 0 1 2.213-3.133c.164-.225.329-.438.493-.658l.073-.091.28-.36c.311-.396.61-.792.951-1.182a67.462 67.462 0 0 1 4.09-4.54 86.787 86.787 0 0 1 3.772-3.553 61.066 61.066 0 0 1 1.682-1.42l.786-.61.384-.298.182-.146h.031a1.682 1.682 0 0 0 .61-2.224c-.403-.683-1.524-1.122-2.225-.61l-.06-.116Z"/></mask><path d="M38.841 42.232a70.254 70.254 0 0 0-11.695 11.256 71.073 71.073 0 0 0-8.946 13.9 60.438 60.438 0 0 0-5.765 19.331 55.02 55.02 0 0 0 1.042 19.587 33.432 33.432 0 0 0 6.387 13.145 36.467 36.467 0 0 0 7.965 7.118 53.463 53.463 0 0 0 10.317 5.296 75.555 75.555 0 0 0 11.744 3.51c4.367.937 8.79 1.592 13.242 1.962 4.472.386 8.962.528 13.45.427a130.53 130.53 0 0 0 13.529-1c4.461-.548 8.89-1.335 13.267-2.358a96.375 96.375 0 0 0 11.804-3.577 67.728 67.728 0 0 0 10.36-4.876 41.092 41.092 0 0 0 8.038-5.996 24.034 24.034 0 0 0 5.107-7.015c2.182-4.784 2.493-10.323 1.828-15.479-.774-6.203-2.913-12.255-6.856-17.16-2.571-3.2-6.039-5.485-9.293-7.886l-.701-.525-.36-.274-.182-.14c-.208-.164.17.128-.043-.037-.567-.438-1.134-.89-1.694-1.34a100.19 100.19 0 0 1-3.779-3.224 125.13 125.13 0 0 1-8.208-8.08 134.144 134.144 0 0 1-5.302-6.095 1.635 1.635 0 0 0-2.298 0 1.665 1.665 0 0 0 0 2.297 124.256 124.256 0 0 0 13.407 14.12 102.25 102.25 0 0 0 7.149 5.863c.89.67 1.791 1.335 2.693 1.993l1.219.89.549.414.14.104s-.25-.195-.11-.08l.305.238a26.055 26.055 0 0 1 3.979 3.803l.226.274.128.159c-.134-.171.091.127.128.17l.256.347c.42.61.822 1.22 1.219 1.829.396.61.761 1.322 1.103 2.005.341.682.658 1.377.859 1.883a34.567 34.567 0 0 1 1.45 4.46c.189.738.354 1.481.488 2.225.134.743.256 1.469.317 1.975.173 1.447.259 2.905.256 4.363 0 .695 0 1.395-.067 2.09 0 .329-.049.652-.08.975 0 .165 0 .323-.048.482-.049.158-.074.554-.031.274a23.937 23.937 0 0 1-.81 3.717 21.12 21.12 0 0 1-.494 1.396c0 .03-.067.213-.091.219-.025.006.176-.402.042-.103-.067.152-.134.304-.207.457a20.07 20.07 0 0 1-2.09 3.443l-.147.201c-.164.219.226-.28.049-.067l-.341.42c-.219.275-.451.543-.683.805-.487.536-.987 1.06-1.511 1.56a33.33 33.33 0 0 1-1.682 1.499 24.52 24.52 0 0 1-.938.756c-.329.25.268-.195.03 0l-.225.17-.494.366a52.38 52.38 0 0 1-8.91 5.137c-.42.195-.834.384-1.255.567l-.609.268-.165.067-.219.092a72.35 72.35 0 0 1-2.657 1.042 88.859 88.859 0 0 1-5.662 1.895 111.803 111.803 0 0 1-12.237 2.877c-1.06.19-2.123.365-3.187.524l-1.682.243h-.085l-.39.055-.841.104c-2.186.276-4.376.491-6.57.646a129.8 129.8 0 0 1-13.334.292 120.166 120.166 0 0 1-6.624-.378 114.285 114.285 0 0 1-3.236-.323l-1.597-.195-.383-.054c.292.042.079 0-.08 0l-.822-.122a88.796 88.796 0 0 1-12.262-2.639 68.444 68.444 0 0 1-5.582-1.889 46.733 46.733 0 0 1-1.335-.536l-.316-.128c.25.103.134.054 0 0l-.677-.293a51.131 51.131 0 0 1-2.578-1.219 48.18 48.18 0 0 1-4.674-2.712 41.134 41.134 0 0 1-2.175-1.541l-.244-.189-.518-.421a32.694 32.694 0 0 1-4.46-4.4l-.373-.457c-.073-.091-.14-.183-.213-.268.189.232.103.134 0 0a29.322 29.322 0 0 1-.713-.993 28.118 28.118 0 0 1-1.304-2.066c-2.901-5.119-4.138-11.25-4.419-17.125a54.457 54.457 0 0 1 2.109-18.319 63.485 63.485 0 0 1 8.117-17.063 66.883 66.883 0 0 1 2.213-3.133c.164-.225.329-.438.493-.658l.073-.091.28-.36c.311-.396.61-.792.951-1.182a67.462 67.462 0 0 1 4.09-4.54 86.787 86.787 0 0 1 3.772-3.553 61.066 61.066 0 0 1 1.682-1.42l.786-.61.384-.298.182-.146h.031a1.682 1.682 0 0 0 .61-2.224c-.403-.683-1.524-1.122-2.225-.61l-.06-.116Z" fill="url(#j)"/><path d="M38.841 42.232a70.254 70.254 0 0 0-11.695 11.256 71.073 71.073 0 0 0-8.946 13.9 60.438 60.438 0 0 0-5.765 19.331 55.02 55.02 0 0 0 1.042 19.587 33.432 33.432 0 0 0 6.387 13.145 36.467 36.467 0 0 0 7.965 7.118 53.463 53.463 0 0 0 10.317 5.296 75.555 75.555 0 0 0 11.744 3.51c4.367.937 8.79 1.592 13.242 1.962 4.472.386 8.962.528 13.45.427a130.53 130.53 0 0 0 13.529-1c4.461-.548 8.89-1.335 13.267-2.358a96.375 96.375 0 0 0 11.804-3.577 67.728 67.728 0 0 0 10.36-4.876 41.092 41.092 0 0 0 8.038-5.996 24.034 24.034 0 0 0 5.107-7.015c2.182-4.784 2.493-10.323 1.828-15.479-.774-6.203-2.913-12.255-6.856-17.16-2.571-3.2-6.039-5.485-9.293-7.886l-.701-.525-.36-.274-.182-.14c-.208-.164.17.128-.043-.037-.567-.438-1.134-.89-1.694-1.34a100.19 100.19 0 0 1-3.779-3.224 125.13 125.13 0 0 1-8.208-8.08 134.144 134.144 0 0 1-5.302-6.095 1.635 1.635 0 0 0-2.298 0 1.665 1.665 0 0 0 0 2.297 124.256 124.256 0 0 0 13.407 14.12 102.25 102.25 0 0 0 7.149 5.863c.89.67 1.791 1.335 2.693 1.993l1.219.89.549.414.14.104s-.25-.195-.11-.08l.305.238a26.055 26.055 0 0 1 3.979 3.803l.226.274.128.159c-.134-.171.091.127.128.17l.256.347c.42.61.822 1.22 1.219 1.829.396.61.761 1.322 1.103 2.005.341.682.658 1.377.859 1.883a34.567 34.567 0 0 1 1.45 4.46c.189.738.354 1.481.488 2.225.134.743.256 1.469.317 1.975.173 1.447.259 2.905.256 4.363 0 .695 0 1.395-.067 2.09 0 .329-.049.652-.08.975 0 .165 0 .323-.048.482-.049.158-.074.554-.031.274a23.937 23.937 0 0 1-.81 3.717 21.12 21.12 0 0 1-.494 1.396c0 .03-.067.213-.091.219-.025.006.176-.402.042-.103-.067.152-.134.304-.207.457a20.07 20.07 0 0 1-2.09 3.443l-.147.201c-.164.219.226-.28.049-.067l-.341.42c-.219.275-.451.543-.683.805-.487.536-.987 1.06-1.511 1.56a33.33 33.33 0 0 1-1.682 1.499 24.52 24.52 0 0 1-.938.756c-.329.25.268-.195.03 0l-.225.17-.494.366a52.38 52.38 0 0 1-8.91 5.137c-.42.195-.834.384-1.255.567l-.609.268-.165.067-.219.092a72.35 72.35 0 0 1-2.657 1.042 88.859 88.859 0 0 1-5.662 1.895 111.803 111.803 0 0 1-12.237 2.877c-1.06.19-2.123.365-3.187.524l-1.682.243h-.085l-.39.055-.841.104c-2.186.276-4.376.491-6.57.646a129.8 129.8 0 0 1-13.334.292 120.166 120.166 0 0 1-6.624-.378 114.285 114.285 0 0 1-3.236-.323l-1.597-.195-.383-.054c.292.042.079 0-.08 0l-.822-.122a88.796 88.796 0 0 1-12.262-2.639 68.444 68.444 0 0 1-5.582-1.889 46.733 46.733 0 0 1-1.335-.536l-.316-.128c.25.103.134.054 0 0l-.677-.293a51.131 51.131 0 0 1-2.578-1.219 48.18 48.18 0 0 1-4.674-2.712 41.134 41.134 0 0 1-2.175-1.541l-.244-.189-.518-.421a32.694 32.694 0 0 1-4.46-4.4l-.373-.457c-.073-.091-.14-.183-.213-.268.189.232.103.134 0 0a29.322 29.322 0 0 1-.713-.993 28.118 28.118 0 0 1-1.304-2.066c-2.901-5.119-4.138-11.25-4.419-17.125a54.457 54.457 0 0 1 2.109-18.319 63.485 63.485 0 0 1 8.117-17.063 66.883 66.883 0 0 1 2.213-3.133c.164-.225.329-.438.493-.658l.073-.091.28-.36c.311-.396.61-.792.951-1.182a67.462 67.462 0 0 1 4.09-4.54 86.787 86.787 0 0 1 3.772-3.553 61.066 61.066 0 0 1 1.682-1.42l.786-.61.384-.298.182-.146h.031a1.682 1.682 0 0 0 .61-2.224c-.403-.683-1.524-1.122-2.225-.61l-.06-.116Z" stroke="url(#k)" stroke-width="2" mask="url(#l)"/></g><path d="M38.841 42.232a70.254 70.254 0 0 0-11.695 11.256 71.073 71.073 0 0 0-8.946 13.9 60.438 60.438 0 0 0-5.765 19.331 55.02 55.02 0 0 0 1.042 19.587 33.432 33.432 0 0 0 6.387 13.145 36.467 36.467 0 0 0 7.965 7.118 53.463 53.463 0 0 0 10.317 5.296 75.555 75.555 0 0 0 11.744 3.51c4.367.937 8.79 1.592 13.242 1.962 4.472.386 8.962.528 13.45.427a130.53 130.53 0 0 0 13.529-1c4.461-.548 8.89-1.335 13.267-2.358a96.375 96.375 0 0 0 11.804-3.577 67.728 67.728 0 0 0 10.36-4.876 41.092 41.092 0 0 0 8.038-5.996 24.034 24.034 0 0 0 5.107-7.015c2.182-4.784 2.493-10.323 1.828-15.479-.774-6.203-2.913-12.255-6.856-17.16-2.571-3.2-6.039-5.485-9.293-7.886l-.701-.525-.36-.274-.182-.14c-.208-.164.17.128-.043-.037-.567-.438-1.134-.89-1.694-1.34a100.19 100.19 0 0 1-3.779-3.224 125.13 125.13 0 0 1-8.208-8.08 134.144 134.144 0 0 1-5.302-6.095 1.635 1.635 0 0 0-2.298 0 1.665 1.665 0 0 0 0 2.297 124.256 124.256 0 0 0 13.407 14.12 102.25 102.25 0 0 0 7.149 5.863c.89.67 1.791 1.335 2.693 1.993l1.219.89.549.414.14.104s-.25-.195-.11-.08l.305.238a26.055 26.055 0 0 1 3.979 3.803l.226.274.128.159c-.134-.171.091.127.128.17l.256.347c.42.61.822 1.22 1.219 1.829.396.61.761 1.322 1.103 2.005.341.682.658 1.377.859 1.883a34.567 34.567 0 0 1 1.45 4.46c.189.738.354 1.481.488 2.225.134.743.256 1.469.317 1.975.173 1.447.259 2.905.256 4.363 0 .695 0 1.395-.067 2.09 0 .329-.049.652-.08.975 0 .165 0 .323-.048.482-.049.158-.074.554-.031.274a23.937 23.937 0 0 1-.81 3.717 21.12 21.12 0 0 1-.494 1.396c0 .03-.067.213-.091.219-.025.006.176-.402.042-.103-.067.152-.134.304-.207.457a20.07 20.07 0 0 1-2.09 3.443l-.147.201c-.164.219.226-.28.049-.067l-.341.42c-.219.275-.451.543-.683.805-.487.536-.987 1.06-1.511 1.56a33.33 33.33 0 0 1-1.682 1.499 24.52 24.52 0 0 1-.938.756c-.329.25.268-.195.03 0l-.225.17-.494.366a52.38 52.38 0 0 1-8.91 5.137c-.42.195-.834.384-1.255.567l-.609.268-.165.067-.219.092a72.35 72.35 0 0 1-2.657 1.042 88.859 88.859 0 0 1-5.662 1.895 111.803 111.803 0 0 1-12.237 2.877c-1.06.19-2.123.365-3.187.524l-1.682.243h-.085l-.39.055-.841.104c-2.186.276-4.376.491-6.57.646a129.8 129.8 0 0 1-13.334.292 120.166 120.166 0 0 1-6.624-.378 114.285 114.285 0 0 1-3.236-.323l-1.597-.195-.383-.054c.292.042.079 0-.08 0l-.822-.122a88.796 88.796 0 0 1-12.262-2.639 68.444 68.444 0 0 1-5.582-1.889 46.733 46.733 0 0 1-1.335-.536l-.316-.128c.25.103.134.054 0 0l-.677-.293a51.131 51.131 0 0 1-2.578-1.219 48.18 48.18 0 0 1-4.674-2.712 41.134 41.134 0 0 1-2.175-1.541l-.244-.189-.518-.421a32.694 32.694 0 0 1-4.46-4.4l-.373-.457c-.073-.091-.14-.183-.213-.268.189.232.103.134 0 0a29.322 29.322 0 0 1-.713-.993 28.118 28.118 0 0 1-1.304-2.066c-2.901-5.119-4.138-11.25-4.419-17.125a54.457 54.457 0 0 1 2.109-18.319 63.485 63.485 0 0 1 8.117-17.063 66.883 66.883 0 0 1 2.213-3.133c.164-.225.329-.438.493-.658l.073-.091.28-.36c.311-.396.61-.792.951-1.182a67.462 67.462 0 0 1 4.09-4.54 86.787 86.787 0 0 1 3.772-3.553 61.066 61.066 0 0 1 1.682-1.42l.786-.61.384-.298.182-.146h.031a1.682 1.682 0 0 0 .61-2.224c-.403-.683-1.524-1.122-2.225-.61l-.06-.116Z" fill="url(#m)"/><g opacity=".5" filter="url(#n)"><mask id="q" maskUnits="userSpaceOnUse" x="36.611" y="34.153" width="79" height="27" fill="#000"><path fill="#fff" d="M36.611 34.153h79v27h-79z"/><path d="M47.177 35.414a26.616 26.616 0 0 0-5.606 3.614 8.014 8.014 0 0 0-2.926 4.942c-.292 2.438 1.323 4.583 3.09 6.033a29.422 29.422 0 0 0 8.124 4.413 69.912 69.912 0 0 0 10.506 3.09A97.06 97.06 0 0 0 72.2 59.333c4.306.403 8.639.431 12.95.085a61.013 61.013 0 0 0 11.877-2.127 37.702 37.702 0 0 0 8.964-3.797 17.146 17.146 0 0 0 5.607-5.076 13.064 13.064 0 0 0 2.078-4.674 7.578 7.578 0 0 0-.158-3.73 7.683 7.683 0 0 0-1.762-2.907 9.476 9.476 0 0 0-1.828-1.487 1.638 1.638 0 0 0-2.224.58 1.661 1.661 0 0 0 .609 2.224l.335.225c.061.037.116.085.177.128.03.026.063.048.098.067.152.11-.287-.231-.14-.103.292.262.609.511.859.804.061.08.122.152.189.225.067.073-.098-.134-.098-.128 0 .007.061.08.092.122.133.186.255.38.365.58.055.097.104.194.153.292.14.274-.092-.262 0 0 .093.248.168.502.225.762 0 .06.073.432.043.2-.031-.23 0 .135 0 .196.018.272.018.544 0 .816 0 .061-.043.433 0 .183.042-.25 0 .11-.037.177a5.652 5.652 0 0 1-.177.7c-.06.208-.127.415-.207.61-.036.104-.085.195-.115.299 0 0 .14-.311.06-.153-.079.159-.054.128-.085.19-.164.359-.347.706-.542 1.047a17.19 17.19 0 0 1-.896 1.426c-.055.08-.305.403-.098.134.208-.268-.067.08-.128.153-.17.201-.341.396-.524.61-.373.389-.768.757-1.182 1.102l-.317.262-.164.128.164-.128-.11.086c-.243.183-.487.36-.737.53a27.03 27.03 0 0 1-3.486 1.999c-.321.158-.65.31-.987.457l-.53.231.183-.079-.128.055-.293.122c-.731.292-1.469.567-2.212.816a48.248 48.248 0 0 1-5.04 1.402c-.902.201-1.828.384-2.712.536-.469.086-.938.159-1.408.232l-.749.104h.14-.17l-.409.048c-4.225.512-8.488.64-12.737.384a86.996 86.996 0 0 1-5.448-.5l-.713-.09h-.17.158l-.384-.05-1.377-.207a87.697 87.697 0 0 1-2.816-.475A82.043 82.043 0 0 1 53.655 52.3a55.048 55.048 0 0 1-2.383-.841l-1.115-.433-.512-.213.17.073-.121-.055-.293-.128a29.433 29.433 0 0 1-3.796-1.962c-.268-.163-.53-.333-.786-.512l-.354-.244-.17-.128-.08-.06.165.127c-.426-.343-.833-.71-1.219-1.097-.17-.178-.335-.361-.494-.548a1.119 1.119 0 0 1-.103-.134c.03.06.268.36.116.146l-.201-.286a5.805 5.805 0 0 1-.336-.61c0-.049-.042-.091-.06-.14-.11-.231.115.305.085.207-.03-.097-.073-.2-.11-.304-.036-.104-.08-.39-.134-.61 0-.097.049.494.03.244a.994.994 0 0 0 0-.14v-.457c0-.067.043-.372 0-.067-.042.304 0 0 0-.067.037-.178.086-.353.147-.524 0-.037.03-.08.042-.122.05-.159-.085.207-.079.195.006-.012.073-.165.11-.238.091-.17.189-.341.292-.506l.153-.231c.036-.05.231-.305.067-.098-.165.207.042-.055.085-.097.043-.043.152-.177.226-.262.306-.336.632-.653.975-.951l.512-.42c.237-.196-.22.158.03 0l.33-.238c.407-.293.822-.573 1.248-.835a31.751 31.751 0 0 1 2.785-1.548 1.64 1.64 0 0 0 .61-2.224 1.67 1.67 0 0 0-2.224-.61l-.086.061Z"/></mask><path d="M47.177 35.414a26.616 26.616 0 0 0-5.606 3.614 8.014 8.014 0 0 0-2.926 4.942c-.292 2.438 1.323 4.583 3.09 6.033a29.422 29.422 0 0 0 8.124 4.413 69.912 69.912 0 0 0 10.506 3.09A97.06 97.06 0 0 0 72.2 59.333c4.306.403 8.639.431 12.95.085a61.013 61.013 0 0 0 11.877-2.127 37.702 37.702 0 0 0 8.964-3.797 17.146 17.146 0 0 0 5.607-5.076 13.064 13.064 0 0 0 2.078-4.674 7.578 7.578 0 0 0-.158-3.73 7.683 7.683 0 0 0-1.762-2.907 9.476 9.476 0 0 0-1.828-1.487 1.638 1.638 0 0 0-2.224.58 1.661 1.661 0 0 0 .609 2.224l.335.225c.061.037.116.085.177.128.03.026.063.048.098.067.152.11-.287-.231-.14-.103.292.262.609.511.859.804.061.08.122.152.189.225.067.073-.098-.134-.098-.128 0 .007.061.08.092.122.133.186.255.38.365.58.055.097.104.194.153.292.14.274-.092-.262 0 0 .093.248.168.502.225.762 0 .06.073.432.043.2-.031-.23 0 .135 0 .196.018.272.018.544 0 .816 0 .061-.043.433 0 .183.042-.25 0 .11-.037.177a5.652 5.652 0 0 1-.177.7c-.06.208-.127.415-.207.61-.036.104-.085.195-.115.299 0 0 .14-.311.06-.153-.079.159-.054.128-.085.19-.164.359-.347.706-.542 1.047a17.19 17.19 0 0 1-.896 1.426c-.055.08-.305.403-.098.134.208-.268-.067.08-.128.153-.17.201-.341.396-.524.61-.373.389-.768.757-1.182 1.102l-.317.262-.164.128.164-.128-.11.086c-.243.183-.487.36-.737.53a27.03 27.03 0 0 1-3.486 1.999c-.321.158-.65.31-.987.457l-.53.231.183-.079-.128.055-.293.122c-.731.292-1.469.567-2.212.816a48.248 48.248 0 0 1-5.04 1.402c-.902.201-1.828.384-2.712.536-.469.086-.938.159-1.408.232l-.749.104h.14-.17l-.409.048c-4.225.512-8.488.64-12.737.384a86.996 86.996 0 0 1-5.448-.5l-.713-.09h-.17.158l-.384-.05-1.377-.207a87.697 87.697 0 0 1-2.816-.475A82.043 82.043 0 0 1 53.655 52.3a55.048 55.048 0 0 1-2.383-.841l-1.115-.433-.512-.213.17.073-.121-.055-.293-.128a29.433 29.433 0 0 1-3.796-1.962c-.268-.163-.53-.333-.786-.512l-.354-.244-.17-.128-.08-.06.165.127c-.426-.343-.833-.71-1.219-1.097-.17-.178-.335-.361-.494-.548a1.119 1.119 0 0 1-.103-.134c.03.06.268.36.116.146l-.201-.286a5.805 5.805 0 0 1-.336-.61c0-.049-.042-.091-.06-.14-.11-.231.115.305.085.207-.03-.097-.073-.2-.11-.304-.036-.104-.08-.39-.134-.61 0-.097.049.494.03.244a.994.994 0 0 0 0-.14v-.457c0-.067.043-.372 0-.067-.042.304 0 0 0-.067.037-.178.086-.353.147-.524 0-.037.03-.08.042-.122.05-.159-.085.207-.079.195.006-.012.073-.165.11-.238.091-.17.189-.341.292-.506l.153-.231c.036-.05.231-.305.067-.098-.165.207.042-.055.085-.097.043-.043.152-.177.226-.262.306-.336.632-.653.975-.951l.512-.42c.237-.196-.22.158.03 0l.33-.238c.407-.293.822-.573 1.248-.835a31.751 31.751 0 0 1 2.785-1.548 1.64 1.64 0 0 0 .61-2.224 1.67 1.67 0 0 0-2.224-.61l-.086.061Z" fill="url(#o)"/><path d="M47.177 35.414a26.616 26.616 0 0 0-5.606 3.614 8.014 8.014 0 0 0-2.926 4.942c-.292 2.438 1.323 4.583 3.09 6.033a29.422 29.422 0 0 0 8.124 4.413 69.912 69.912 0 0 0 10.506 3.09A97.06 97.06 0 0 0 72.2 59.333c4.306.403 8.639.431 12.95.085a61.013 61.013 0 0 0 11.877-2.127 37.702 37.702 0 0 0 8.964-3.797 17.146 17.146 0 0 0 5.607-5.076 13.064 13.064 0 0 0 2.078-4.674 7.578 7.578 0 0 0-.158-3.73 7.683 7.683 0 0 0-1.762-2.907 9.476 9.476 0 0 0-1.828-1.487 1.638 1.638 0 0 0-2.224.58 1.661 1.661 0 0 0 .609 2.224l.335.225c.061.037.116.085.177.128.03.026.063.048.098.067.152.11-.287-.231-.14-.103.292.262.609.511.859.804.061.08.122.152.189.225.067.073-.098-.134-.098-.128 0 .007.061.08.092.122.133.186.255.38.365.58.055.097.104.194.153.292.14.274-.092-.262 0 0 .093.248.168.502.225.762 0 .06.073.432.043.2-.031-.23 0 .135 0 .196.018.272.018.544 0 .816 0 .061-.043.433 0 .183.042-.25 0 .11-.037.177a5.652 5.652 0 0 1-.177.7c-.06.208-.127.415-.207.61-.036.104-.085.195-.115.299 0 0 .14-.311.06-.153-.079.159-.054.128-.085.19-.164.359-.347.706-.542 1.047a17.19 17.19 0 0 1-.896 1.426c-.055.08-.305.403-.098.134.208-.268-.067.08-.128.153-.17.201-.341.396-.524.61-.373.389-.768.757-1.182 1.102l-.317.262-.164.128.164-.128-.11.086c-.243.183-.487.36-.737.53a27.03 27.03 0 0 1-3.486 1.999c-.321.158-.65.31-.987.457l-.53.231.183-.079-.128.055-.293.122c-.731.292-1.469.567-2.212.816a48.248 48.248 0 0 1-5.04 1.402c-.902.201-1.828.384-2.712.536-.469.086-.938.159-1.408.232l-.749.104h.14-.17l-.409.048c-4.225.512-8.488.64-12.737.384a86.996 86.996 0 0 1-5.448-.5l-.713-.09h-.17.158l-.384-.05-1.377-.207a87.697 87.697 0 0 1-2.816-.475A82.043 82.043 0 0 1 53.655 52.3a55.048 55.048 0 0 1-2.383-.841l-1.115-.433-.512-.213.17.073-.121-.055-.293-.128a29.433 29.433 0 0 1-3.796-1.962c-.268-.163-.53-.333-.786-.512l-.354-.244-.17-.128-.08-.06.165.127c-.426-.343-.833-.71-1.219-1.097-.17-.178-.335-.361-.494-.548a1.119 1.119 0 0 1-.103-.134c.03.06.268.36.116.146l-.201-.286a5.805 5.805 0 0 1-.336-.61c0-.049-.042-.091-.06-.14-.11-.231.115.305.085.207-.03-.097-.073-.2-.11-.304-.036-.104-.08-.39-.134-.61 0-.097.049.494.03.244a.994.994 0 0 0 0-.14v-.457c0-.067.043-.372 0-.067-.042.304 0 0 0-.067.037-.178.086-.353.147-.524 0-.037.03-.08.042-.122.05-.159-.085.207-.079.195.006-.012.073-.165.11-.238.091-.17.189-.341.292-.506l.153-.231c.036-.05.231-.305.067-.098-.165.207.042-.055.085-.097.043-.043.152-.177.226-.262.306-.336.632-.653.975-.951l.512-.42c.237-.196-.22.158.03 0l.33-.238c.407-.293.822-.573 1.248-.835a31.751 31.751 0 0 1 2.785-1.548 1.64 1.64 0 0 0 .61-2.224 1.67 1.67 0 0 0-2.224-.61l-.086.061Z" stroke="url(#p)" stroke-width="2" mask="url(#q)"/></g><path d="M47.177 35.414a26.616 26.616 0 0 0-5.606 3.614 8.014 8.014 0 0 0-2.926 4.942c-.292 2.438 1.323 4.583 3.09 6.033a29.422 29.422 0 0 0 8.124 4.413 69.912 69.912 0 0 0 10.506 3.09A97.06 97.06 0 0 0 72.2 59.333c4.306.403 8.639.431 12.95.085a61.013 61.013 0 0 0 11.877-2.127 37.702 37.702 0 0 0 8.964-3.797 17.146 17.146 0 0 0 5.607-5.076 13.064 13.064 0 0 0 2.078-4.674 7.578 7.578 0 0 0-.158-3.73 7.683 7.683 0 0 0-1.762-2.907 9.476 9.476 0 0 0-1.828-1.487 1.638 1.638 0 0 0-2.224.58 1.661 1.661 0 0 0 .609 2.224l.335.225c.061.037.116.085.177.128.03.026.063.048.098.067.152.11-.287-.231-.14-.103.292.262.609.511.859.804.061.08.122.152.189.225.067.073-.098-.134-.098-.128 0 .007.061.08.092.122.133.186.255.38.365.58.055.097.104.194.153.292.14.274-.092-.262 0 0 .093.248.168.502.225.762 0 .06.073.432.043.2-.031-.23 0 .135 0 .196.018.272.018.544 0 .816 0 .061-.043.433 0 .183.042-.25 0 .11-.037.177a5.652 5.652 0 0 1-.177.7c-.06.208-.127.415-.207.61-.036.104-.085.195-.115.299 0 0 .14-.311.06-.153-.079.159-.054.128-.085.19-.164.359-.347.706-.542 1.047a17.19 17.19 0 0 1-.896 1.426c-.055.08-.305.403-.098.134.208-.268-.067.08-.128.153-.17.201-.341.396-.524.61-.373.389-.768.757-1.182 1.102l-.317.262-.164.128.164-.128-.11.086c-.243.183-.487.36-.737.53a27.03 27.03 0 0 1-3.486 1.999c-.321.158-.65.31-.987.457l-.53.231.183-.079-.128.055-.293.122c-.731.292-1.469.567-2.212.816a48.248 48.248 0 0 1-5.04 1.402c-.902.201-1.828.384-2.712.536-.469.086-.938.159-1.408.232l-.749.104h.14-.17l-.409.048c-4.225.512-8.488.64-12.737.384a86.996 86.996 0 0 1-5.448-.5l-.713-.09h-.17.158l-.384-.05-1.377-.207a87.697 87.697 0 0 1-2.816-.475A82.043 82.043 0 0 1 53.655 52.3a55.048 55.048 0 0 1-2.383-.841l-1.115-.433-.512-.213.17.073-.121-.055-.293-.128a29.433 29.433 0 0 1-3.796-1.962c-.268-.163-.53-.333-.786-.512l-.354-.244-.17-.128-.08-.06.165.127c-.426-.343-.833-.71-1.219-1.097-.17-.178-.335-.361-.494-.548a1.119 1.119 0 0 1-.103-.134c.03.06.268.36.116.146l-.201-.286a5.805 5.805 0 0 1-.336-.61c0-.049-.042-.091-.06-.14-.11-.231.115.305.085.207-.03-.097-.073-.2-.11-.304-.036-.104-.08-.39-.134-.61 0-.097.049.494.03.244a.994.994 0 0 0 0-.14v-.457c0-.067.043-.372 0-.067-.042.304 0 0 0-.067.037-.178.086-.353.147-.524 0-.037.03-.08.042-.122.05-.159-.085.207-.079.195.006-.012.073-.165.11-.238.091-.17.189-.341.292-.506l.153-.231c.036-.05.231-.305.067-.098-.165.207.042-.055.085-.097.043-.043.152-.177.226-.262.306-.336.632-.653.975-.951l.512-.42c.237-.196-.22.158.03 0l.33-.238c.407-.293.822-.573 1.248-.835a31.751 31.751 0 0 1 2.785-1.548 1.64 1.64 0 0 0 .61-2.224 1.67 1.67 0 0 0-2.224-.61l-.086.061Z" fill="url(#r)"/><defs><linearGradient id="b" x1="75.913" y1="53.96" x2="116.774" y2="23.1" gradientUnits="userSpaceOnUse"><stop stop-color="#F25E86"/><stop offset=".342" stop-color="#9071F7"/><stop offset=".457" stop-color="#7E8DFF"/><stop offset=".589" stop-color="#34C9FF"/><stop offset="1" stop-color="#9EFBCE"/></linearGradient><linearGradient id="c" x1="91.956" y1="11.479" x2="91.956" y2="53.96" gradientUnits="userSpaceOnUse"><stop stop-color="#F25E86"/><stop offset=".32" stop-color="#9071F7"/><stop offset=".51" stop-color="#7E8DFF"/><stop offset=".669" stop-color="#34C9FF"/><stop offset="1" stop-color="#9EFBCE"/></linearGradient><linearGradient id="e" x1="50.773" y1="9" x2="89.38" y2="36.188" gradientUnits="userSpaceOnUse"><stop stop-color="#F25E86"/><stop offset=".342" stop-color="#9071F7"/><stop offset=".457" stop-color="#7E8DFF"/><stop offset=".589" stop-color="#34C9FF"/><stop offset="1" stop-color="#9EFBCE"/></linearGradient><linearGradient id="f" x1="65.211" y1="9" x2="65.211" y2="50.005" gradientUnits="userSpaceOnUse"><stop stop-color="#F25E86"/><stop offset=".32" stop-color="#9071F7"/><stop offset=".51" stop-color="#7E8DFF"/><stop offset=".669" stop-color="#34C9FF"/><stop offset="1" stop-color="#9EFBCE"/></linearGradient><linearGradient id="g" x1="75.913" y1="53.96" x2="116.774" y2="23.1" gradientUnits="userSpaceOnUse"><stop stop-color="#F25E86"/><stop offset=".342" stop-color="#9071F7"/><stop offset=".457" stop-color="#7E8DFF"/><stop offset=".589" stop-color="#34C9FF"/><stop offset="1" stop-color="#9EFBCE"/></linearGradient><linearGradient id="h" x1="50.773" y1="9" x2="89.38" y2="36.188" gradientUnits="userSpaceOnUse"><stop stop-color="#F25E86"/><stop offset=".342" stop-color="#9071F7"/><stop offset=".457" stop-color="#7E8DFF"/><stop offset=".589" stop-color="#34C9FF"/><stop offset="1" stop-color="#9EFBCE"/></linearGradient><linearGradient id="k" x1="76.412" y1="42.125" x2="76.412" y2="137.795" gradientUnits="userSpaceOnUse"><stop stop-color="#F25E86"/><stop offset=".32" stop-color="#9071F7"/><stop offset=".51" stop-color="#7E8DFF"/><stop offset=".669" stop-color="#34C9FF"/><stop offset="1" stop-color="#9EFBCE"/></linearGradient><linearGradient id="o" x1="38.611" y1="47.406" x2="113.837" y2="47.406" gradientUnits="userSpaceOnUse"><stop stop-color="#F25E86"/><stop offset=".36" stop-color="#9071F7"/><stop offset=".51" stop-color="#7E8DFF"/><stop offset=".663" stop-color="#34C9FF"/><stop offset="1" stop-color="#9EFBCE"/></linearGradient><linearGradient id="p" x1="76.224" y1="35.153" x2="76.224" y2="59.659" gradientUnits="userSpaceOnUse"><stop stop-color="#F25E86"/><stop offset=".32" stop-color="#9071F7"/><stop offset=".51" stop-color="#7E8DFF"/><stop offset=".669" stop-color="#34C9FF"/><stop offset="1" stop-color="#9EFBCE"/></linearGradient><linearGradient id="r" x1="38.611" y1="47.406" x2="113.837" y2="47.406" gradientUnits="userSpaceOnUse"><stop stop-color="#F25E86"/><stop offset=".36" stop-color="#9071F7"/><stop offset=".51" stop-color="#7E8DFF"/><stop offset=".663" stop-color="#34C9FF"/><stop offset="1" stop-color="#9EFBCE"/></linearGradient><filter id="a" x="64.913" y=".479" width="54.084" height="64.481" filterUnits="userSpaceOnUse" color-interpolation-filters="sRGB"><feFlood flood-opacity="0" result="BackgroundImageFix"/><feBlend in="SourceGraphic" in2="BackgroundImageFix" result="shape"/><feGaussianBlur stdDeviation="5" result="effect1_foregroundBlur_215:437"/></filter><filter id="d" x="39.773" y="-2" width="50.876" height="63.005" filterUnits="userSpaceOnUse" color-interpolation-filters="sRGB"><feFlood flood-opacity="0" result="BackgroundImageFix"/><feBlend in="SourceGraphic" in2="BackgroundImageFix" result="shape"/><feGaussianBlur stdDeviation="5" result="effect1_foregroundBlur_215:437"/></filter><filter id="i" x=".999" y="30.721" width="150.827" height="118.074" filterUnits="userSpaceOnUse" color-interpolation-filters="sRGB"><feFlood flood-opacity="0" result="BackgroundImageFix"/><feBlend in="SourceGraphic" in2="BackgroundImageFix" result="shape"/><feGaussianBlur stdDeviation="5" result="effect1_foregroundBlur_215:437"/></filter><filter id="n" x="27.61" y="24.153" width="97.227" height="46.506" filterUnits="userSpaceOnUse" color-interpolation-filters="sRGB"><feFlood flood-opacity="0" result="BackgroundImageFix"/><feBlend in="SourceGraphic" in2="BackgroundImageFix" result="shape"/><feGaussianBlur stdDeviation="5" result="effect1_foregroundBlur_215:437"/></filter><radialGradient id="j" cx="0" cy="0" r="1" gradientUnits="userSpaceOnUse" gradientTransform="matrix(127.93326 40.11466 -54.01709 172.27074 7.12 77.303)"><stop stop-color="#9EFBCE"/><stop offset=".307" stop-color="#34C9FF"/><stop offset=".51" stop-color="#7E8DFF"/><stop offset=".708" stop-color="#9071F7"/><stop offset="1" stop-color="#F25E86"/></radialGradient><radialGradient id="m" cx="0" cy="0" r="1" gradientUnits="userSpaceOnUse" gradientTransform="matrix(127.93326 40.11466 -54.01709 172.27074 7.12 77.303)"><stop stop-color="#9EFBCE"/><stop offset=".307" stop-color="#34C9FF"/><stop offset=".51" stop-color="#7E8DFF"/><stop offset=".708" stop-color="#9071F7"/><stop offset="1" stop-color="#F25E86"/></radialGradient></defs></svg>