<svg width="161" height="50" fill="none" xmlns="http://www.w3.org/2000/svg">
    <path d="m69.276 30.592 2.232 1.212a6.087 6.087 0 0 1-2.076 1.824 5.552 5.552 0 0 1-2.712.684 5.607 5.607 0 0 1-3.024-.852 6.388 6.388 0 0 1-2.172-2.28c-.536-.96-.804-2.02-.804-3.18 0-.88.156-1.7.468-2.46.312-.768.74-1.44 1.284-2.016a6.022 6.022 0 0 1 1.92-1.368 5.602 5.602 0 0 1 2.328-.492c.976 0 1.88.228 2.712.684a6.037 6.037 0 0 1 2.076 1.836l-2.232 1.212a3.39 3.39 0 0 0-1.176-.912 3.144 3.144 0 0 0-1.38-.324c-.656 0-1.252.18-1.788.54-.528.352-.948.82-1.26 1.404A3.999 3.999 0 0 0 63.216 28c0 .68.156 1.312.468 1.896.312.576.732 1.04 1.26 1.392a3.168 3.168 0 0 0 1.776.528c.496 0 .968-.112 1.416-.336.448-.224.828-.52 1.14-.888zm10.263 3.72a5.607 5.607 0 0 1-3.024-.852 6.388 6.388 0 0 1-2.172-2.28c-.536-.96-.804-2.02-.804-3.18 0-.88.156-1.7.468-2.46.312-.768.74-1.44 1.284-2.016a6.022 6.022 0 0 1 1.92-1.368 5.602 5.602 0 0 1 2.328-.492c1.104 0 2.108.284 3.012.852a6.227 6.227 0 0 1 2.172 2.292c.544.96.816 2.024.816 3.192 0 .872-.156 1.688-.468 2.448a6.5 6.5 0 0 1-1.296 2.016 5.974 5.974 0 0 1-1.908 1.356 5.549 5.549 0 0 1-2.328.492zm0-2.496a3.15 3.15 0 0 0 1.788-.528 3.742 3.742 0 0 0 1.248-1.392A3.962 3.962 0 0 0 83.043 28a3.93 3.93 0 0 0-.48-1.92 3.718 3.718 0 0 0-1.26-1.392 3.11 3.11 0 0 0-1.764-.528c-.656 0-1.252.176-1.788.528-.528.352-.948.82-1.26 1.404A4.07 4.07 0 0 0 76.035 28c0 .712.16 1.356.48 1.932.32.576.744 1.036 1.272 1.38.536.336 1.12.504 1.752.504zM88.204 22H90.7v12h-2.496V22zm1.26-1.98a1.31 1.31 0 0 1-.948-.372 1.249 1.249 0 0 1-.384-.936c0-.368.128-.676.384-.924.256-.256.572-.384.948-.384.368 0 .68.128.936.384.256.248.384.556.384.924 0 .376-.128.688-.384.936a1.295 1.295 0 0 1-.936.372zm17.047 7.692V34h-2.496v-6.24c0-.68-.144-1.296-.432-1.848a3.367 3.367 0 0 0-1.164-1.332 2.87 2.87 0 0 0-1.668-.504c-.624 0-1.172.168-1.644.504a3.332 3.332 0 0 0-1.092 1.332 4.34 4.34 0 0 0-.384 1.848V34h-2.496V22h2.496v1.62a4.667 4.667 0 0 1 1.512-1.428c.592-.352 1.26-.528 2.004-.528 1.08 0 2.016.276 2.808.828a5.629 5.629 0 0 1 1.872 2.196c.448.912.676 1.92.684 3.024zm7.325 6.516a6.674 6.674 0 0 1-1.848-.384 5.423 5.423 0 0 1-1.584-.876 3.643 3.643 0 0 1-1.008-1.32l2.124-.912c.104.216.284.428.54.636.264.208.572.38.924.516.352.128.72.192 1.104.192a3.36 3.36 0 0 0 1.044-.156 1.92 1.92 0 0 0 .804-.504 1.14 1.14 0 0 0 .312-.804c0-.352-.12-.624-.36-.816a2.334 2.334 0 0 0-.876-.456 52.202 52.202 0 0 0-1.056-.3 10.695 10.695 0 0 1-2.16-.72c-.648-.312-1.164-.708-1.548-1.188-.384-.488-.576-1.084-.576-1.788 0-.768.204-1.432.612-1.992a4.035 4.035 0 0 1 1.644-1.308 5.261 5.261 0 0 1 2.172-.456c.96 0 1.84.204 2.64.612.8.408 1.412.968 1.836 1.68l-1.98 1.176a1.95 1.95 0 0 0-.54-.648 2.9 2.9 0 0 0-.816-.456 2.957 2.957 0 0 0-.948-.204 3.307 3.307 0 0 0-1.14.144 1.77 1.77 0 0 0-.828.504c-.208.232-.312.528-.312.888 0 .352.124.616.372.792.248.168.56.304.936.408.384.104.776.22 1.176.348.712.224 1.38.5 2.004.828.624.32 1.128.716 1.512 1.188.384.472.568 1.048.552 1.728a3.07 3.07 0 0 1-.684 1.98c-.448.568-1.032 1-1.752 1.296-.72.296-1.484.42-2.292.372zm18.957-6.504V34h-2.496v-6.228c0-.68-.144-1.3-.432-1.86a3.48 3.48 0 0 0-1.128-1.332 2.693 2.693 0 0 0-1.572-.492c-.624 0-1.156.164-1.596.492-.44.328-.78.772-1.02 1.332a4.815 4.815 0 0 0-.348 1.86V34h-2.508V16h2.496v7.404c.336-.648.776-1.096 1.32-1.344.552-.256 1.184-.384 1.896-.384 1.08 0 2.02.276 2.82.828.8.552 1.424 1.288 1.872 2.208.448.912.68 1.916.696 3.012zm3.36-5.724h2.496v12h-2.496V22zm1.26-1.98a1.31 1.31 0 0 1-.948-.372 1.249 1.249 0 0 1-.384-.936c0-.368.128-.676.384-.924.256-.256.572-.384.948-.384.368 0 .68.128.936.384.256.248.384.556.384.924 0 .376-.128.688-.384.936a1.295 1.295 0 0 1-.936.372zm9.065-.744V22h3.384v2.496h-3.384V34h-2.496v-9.504h-1.428V22h1.428v-2.724c0-.656.16-1.252.48-1.788.32-.544.748-.976 1.284-1.296a3.507 3.507 0 0 1 1.812-.48c.48 0 .948.096 1.404.288.456.192.864.488 1.224.888l-1.788 1.764a.818.818 0 0 0-.372-.324.994.994 0 0 0-.468-.12 1.07 1.07 0 0 0-.768.312 1.03 1.03 0 0 0-.312.756zm13.025 5.22h-2.52L156.971 34h-2.496l.012-9.504h-1.908V22h1.908l-.012-3.768h2.496l.012 3.768h2.52v2.496z" fill="#373737"/>
    <path d="M16.744 25c0 2.962 1.195 5.802 3.322 7.897a11.435 11.435 0 0 0 8.02 3.272v12.565c0 .311-.12.61-.337.838a1.25 1.25 0 0 1-.829.383 25.66 25.66 0 0 1-1.531.045c-6.734 0-13.193-2.635-17.954-7.324C2.674 37.986 0 31.628 0 24.997c0-6.63 2.677-12.989 7.44-17.677C12.2 2.632 18.66 0 25.394 0c.51 0 1.022.015 1.53.045.316.02.613.156.83.383.216.227.337.527.336.838v12.565c-1.49 0-2.965.288-4.342.85a11.358 11.358 0 0 0-3.681 2.42 11.159 11.159 0 0 0-2.46 3.624A11.018 11.018 0 0 0 16.744 25zM43.703 39.51c.155-.221.308-.445.457-.671.145-.231.22-.498.217-.77V11.929a1.41 1.41 0 0 0-.217-.767c-.149-.226-.302-.45-.457-.673-.601-.848-1.723-.326-1.723.805v27.414c-.001 1.13 1.122 1.652 1.723.802zM47.602 19.22v11.575c0 1.401 1.422 1.695 1.722.361.9-4.05.9-8.246 0-12.297-.3-1.347-1.722-1.048-1.722.362zM36.355 4.556v40.891c0 .9.757 1.494 1.41 1.104l.447-.275a1.27 1.27 0 0 0 .542-1.095V4.822a1.27 1.27 0 0 0-.542-1.094 12.415 12.415 0 0 0-.448-.275c-.653-.39-1.409.204-1.409 1.104zM30.732 1.721v46.56c0 .753.548 1.331 1.149 1.207l.451-.1c.465-.105.8-.614.8-1.202V1.816c0-.589-.334-1.098-.8-1.203-.15-.036-.3-.068-.451-.1-.601-.124-1.149.45-1.149 1.208z" fill="#1452F5"/>
</svg>
