<svg width="512" height="512" viewBox="0 0 512 512" fill="none" xmlns="http://www.w3.org/2000/svg">
<path fill-rule="evenodd" clip-rule="evenodd" d="M512 256C512 397.383 397.385 511.997 256 511.997C114.615 511.997 0 397.383 0 256C0 114.617 114.615 0.00305176 256 0.00305176C397.385 0.00305176 512 114.617 512 256ZM427.971 394.96C387.439 445.057 325.46 477.089 256 477.089C186.487 477.089 124.467 445.009 83.9373 394.847C90.8011 395.369 97.7344 395.635 104.727 395.635C161.078 395.635 213.404 378.407 256.727 348.932C300.05 378.407 352.377 395.635 408.727 395.635C415.196 395.635 421.613 395.408 427.971 394.96ZM227.688 326.14C206.032 306.626 187.544 283.664 173.091 258.118V350.657C192.462 344.793 210.779 336.503 227.688 326.14ZM138.182 358.37V128.002C138.182 127.805 138.185 127.61 138.191 127.415C138.185 126.642 138.182 125.867 138.182 125.093H138.423C139.808 116.837 146.988 110.547 155.636 110.547C164.285 110.547 171.465 116.837 172.85 125.093H173.091C173.091 231.455 243.564 321.358 340.364 350.657V258.118C333.332 270.546 325.346 282.362 316.505 293.467C312.176 298.905 304.431 300.091 298.704 296.155C296.393 294.568 294.113 292.94 291.863 291.273C285.416 286.496 284.823 277.263 289.795 270.965C321.464 230.842 340.364 180.175 340.364 125.093H340.605C341.99 116.837 349.169 110.547 357.818 110.547C366.467 110.547 373.646 116.837 375.031 125.093H375.273C375.273 125.867 375.27 126.641 375.263 127.414C375.269 127.609 375.273 127.805 375.273 128.002V358.37C386.201 359.923 397.37 360.726 408.727 360.726C423.851 360.726 438.627 359.304 452.935 356.589C468.379 326.415 477.091 292.225 477.091 256C477.091 133.896 378.105 34.9117 256 34.9117C133.895 34.9117 34.9091 133.896 34.9091 256C34.9091 292.1 43.5613 326.179 58.9053 356.277C73.7151 359.195 89.0346 360.726 104.727 360.726C116.084 360.726 127.254 359.923 138.182 358.37Z" fill="#2F3237"/>
</svg>
