<svg width="56" height="56" viewBox="0 0 56 56" fill="none" xmlns="http://www.w3.org/2000/svg">
<path d="M22.2369 33.1458C22.2369 33.0775 22.2369 32.9864 22.2065 32.9239C22.1346 32.7448 21.9095 32.6251 21.6876 32.642H21.6297C21.6297 32.642 20.6629 32.6505 20.6082 32.6538C20.3386 32.6538 20.1065 32.8587 20.1267 33.0833C20.14 34.0309 20.1541 35.3995 20.1783 36.3498L20.1987 37.1067C20.1886 37.2375 20.2291 37.38 20.3659 37.4594C20.4824 37.5421 20.677 37.5219 20.817 37.5219H21.7252C21.9267 37.5277 22.1112 37.3878 22.1284 37.2206C22.1355 37.1607 22.1355 36.9928 22.1385 36.9362L22.176 36.1793C22.1862 36.0257 22.1932 35.8662 22.2003 35.7042L22.2346 34.7826C22.2417 34.4839 22.2449 34.1877 22.2449 33.9034L22.2379 33.1464H22.2369V33.1458Z" fill="white"/>
<path d="M29.3702 33.1699C29.3702 33.101 29.3702 33.0098 29.3399 32.9474C29.2685 32.7684 29.0448 32.6486 28.8243 32.6656H28.7668C28.7668 32.6656 27.806 32.6741 27.7517 32.6773C27.4837 32.6773 27.2531 32.8823 27.2733 33.1069C27.2864 34.0545 27.3004 35.4231 27.3245 36.3733L27.3447 37.1302C27.3346 37.261 27.375 37.4036 27.5109 37.4829C27.6266 37.5657 27.8201 37.5455 27.959 37.5455H28.8615C29.0619 37.5513 29.2452 37.4113 29.2622 37.2441C29.2692 37.1843 29.2692 37.0163 29.2724 36.9597L29.3097 36.2028C29.3197 36.0491 29.3267 35.8897 29.3337 35.7277L29.364 34.8061C29.3709 34.5074 29.3741 34.2113 29.3741 33.9269L29.3671 33.1699H29.3702Z" fill="white"/>
<path d="M48.8183 37.5232C48.8098 37.4936 48.7757 37.3842 48.6793 37.2716C48.4665 37.0238 40.9455 29.3046 40.1532 28.4884C39.5972 27.641 39.0411 26.7937 38.485 25.9472C38.8166 25.6738 39.1483 25.4004 39.4799 25.1263C39.7633 24.8661 39.7665 24.7635 39.723 24.4987C39.7137 24.4288 39.6337 24.1625 39.5117 23.8634C39.4271 23.6545 39.142 22.961 38.746 22.0181C38.989 21.6639 39.2321 21.3097 39.4752 20.9556C39.5894 20.9735 39.7447 21.0014 39.9264 21.0449C40.2161 21.1133 40.815 21.2771 41.5007 21.6538C41.6631 21.7424 42.2013 22.0468 42.7939 22.5882C43.0385 22.8118 43.2311 23.0199 43.3717 23.183C43.5379 23.3772 43.7453 23.6467 43.9534 23.9931C44.0978 24.2035 44.1336 24.2183 44.2548 24.3185C44.3735 24.4055 44.6609 24.5461 45.0058 24.4715C45.0275 24.4669 45.384 24.3845 45.5929 24.0769C45.6768 23.9543 45.7242 23.8137 45.7506 23.736C45.7925 23.6125 45.8142 23.5046 45.8267 23.4261C45.8267 23.4261 46.2321 21.6166 45.8531 19.9995C45.8034 19.7868 45.7397 19.567 45.7397 19.567C45.697 19.4194 45.5564 19.0008 45.5122 18.8843C45.259 18.2163 44.9685 17.6905 44.9685 17.6905C44.8916 17.5516 44.5413 16.9303 43.8758 16.2048C42.272 14.7059 40.5237 13.28 36.9705 12.4109C36.44 12.2882 35.9733 12.2113 35.5959 12.1616C35.5959 12.1616 34.8953 12.0637 33.6907 12.0047C33.6317 12.0016 33.5028 11.9962 33.3335 12.0063C33.2092 12.014 33.0546 12.0241 32.8573 12.0746C32.6702 12.1227 32.5265 12.1857 32.4466 12.2245C32.4162 12.2392 22.5077 17.2137 21.9734 17.5873C21.867 17.6618 21.7706 17.7465 21.7706 17.7465C21.6977 17.811 21.5921 17.9127 21.4825 18.0517C21.4281 18.1209 21.3645 18.2102 21.3008 18.3196L17.7554 24.8754C10.597 28.7983 5.41125 31.7465 4.7348 32.2901C4.37598 32.5782 4.19269 32.9564 4.19269 32.9564C4.08474 33.2026 3.89446 33.7417 4.07386 34.3148C4.13056 34.495 4.20823 34.6301 4.24395 34.6915C4.45753 35.0573 4.72625 35.2492 5.0905 35.5023C5.0905 35.5023 5.68075 35.914 6.69584 36.2378C6.71138 36.2425 6.7269 36.2456 6.7269 36.2456C6.75642 36.2502 6.7867 36.2495 6.81622 36.2425C6.92184 36.2176 8.54504 35.7959 8.78658 35.7252C8.75242 35.7983 8.48136 36.4809 8.46195 36.5399C8.45262 36.5702 8.44952 36.602 8.45262 36.6331C8.45574 36.6642 8.46583 36.6945 8.48214 36.7225C8.52252 36.7807 8.59941 36.8242 8.63048 36.8304C9.72711 37.082 12.8819 37.656 15.4216 37.7965C15.4945 37.7989 16.4475 37.8237 16.4475 37.8237C16.4584 38.1111 16.508 39.1735 16.5445 39.3786C16.5811 39.6263 16.8118 40.3991 17.2847 41.0018C17.5255 41.2985 17.7663 41.5012 17.9441 41.6309C17.9441 41.6309 18.3884 41.9563 18.9561 42.1489C19.7195 42.3827 20.104 42.423 20.879 42.5598C23.484 42.9791 26.0671 43.0382 26.0671 43.0382C26.7847 43.0545 27.8448 43.0747 29.1901 42.9854C29.9612 42.9341 32.619 42.7695 34.4573 42.0542C35.0716 41.815 35.5205 41.5439 35.6277 41.4786C36.3143 41.0593 36.7469 40.6329 36.8362 40.5435C37.5033 39.878 37.8264 39.2435 37.8909 39.1153C38.0152 38.8668 38.0982 38.6477 38.1534 38.4855C39.5778 38.6369 47.1097 38.88 48.2957 38.4225C48.611 38.3014 48.7445 38.0746 48.7445 38.0746C48.7702 38.028 48.7974 37.9682 48.816 37.8959C48.8572 37.7367 48.8362 37.6001 48.8183 37.5224V37.5232ZM16.5322 32.76C16.515 33.9863 16.4964 35.2127 16.4778 36.4389L15.5093 36.4142C14.7412 36.3784 13.9661 36.3155 13.2042 36.2277C12.0625 36.0964 10.9131 35.9039 9.78226 35.6545C10.4618 34.8072 10.847 34.3762 10.8851 34.3155C10.9138 34.2698 10.9379 34.2301 10.9402 34.175C10.9434 34.1012 10.9069 34.0492 10.8999 34.0399C10.8898 34.0259 10.8517 33.9762 10.7795 33.9576C10.7205 33.942 10.6715 33.956 10.6529 33.963C9.54149 34.3024 8.42933 34.6418 7.31794 34.9804C6.75487 34.8165 6.2415 34.6006 5.78948 34.3397C5.72347 34.3016 5.64503 34.2543 5.57668 34.2053C5.95026 33.9576 6.3277 33.7254 6.69972 33.5149C9.42655 32.0206 12.9199 30.9729 16.5624 30.5534L16.5322 32.76ZM32.1328 40.8387C31.8074 40.9295 31.5604 40.9902 31.5045 41.0033C30.821 41.1703 29.6754 41.4033 27.6445 41.5042C27.1265 41.53 27.0511 41.5167 24.7553 41.4856C23.8148 41.4732 20.1491 41.4251 18.9164 40.6212C18.5343 40.372 18.3021 40.0426 18.3021 40.0426C18.0427 39.6753 17.9643 39.3071 17.9068 39.0213C17.8517 38.751 17.8524 38.5755 17.833 37.934C17.8214 37.5294 17.8128 37.1185 17.809 36.7139C17.8291 35.4021 17.8486 34.0903 17.8672 32.7778C17.8773 32.0455 17.8889 31.2098 17.8998 30.4277C18.7394 30.3624 19.9331 30.3135 21.359 30.4036C21.359 30.4036 24.7903 30.6203 28.526 31.9087C30.2206 32.4936 31.9673 33.3168 32.1723 33.4131C32.2532 33.4511 32.3184 33.4823 32.3883 33.5164C32.8349 33.7362 33.7008 34.1983 34.6149 34.9268C35.1105 35.3214 35.463 35.6693 35.7217 36.1866C35.9942 36.7318 36.0587 37.2576 36.0595 37.5178C36.0649 38.7107 34.7741 40.0309 32.8302 40.6375C32.8279 40.6375 32.8233 40.6398 32.8233 40.6407C32.5871 40.7105 32.3549 40.7757 32.1328 40.8371V40.8387ZM41.201 37.0696C40.9322 37.0758 40.6907 37.082 40.3831 37.089C40.1284 37.0945 39.9334 37.0983 39.8542 37.0999C39.5358 37.1061 39.0916 37.1146 38.5385 37.1239C38.5479 36.9842 38.5526 36.8319 38.5479 36.6673C38.5425 36.4747 38.5262 36.2976 38.5045 36.1384C38.5945 36.1811 39.4582 36.592 39.7875 36.6479C39.9148 36.6696 39.9762 36.6409 40.0088 36.6145C40.0717 36.5648 40.1035 36.4863 40.0934 36.4072C40.0632 36.1772 40.0251 35.9466 39.9808 35.7197L40.8864 36.8071C40.9129 36.8389 40.9478 36.863 40.9866 36.8763C41.1675 36.9384 41.3524 36.9997 41.5396 37.0595C41.4355 37.0634 41.3229 37.0665 41.201 37.0696ZM45.3072 36.7651C44.8186 36.6432 44.3479 36.515 43.8951 36.383C43.0509 36.1392 42.2557 35.879 41.5124 35.6118C40.7023 34.6394 39.8931 33.6671 39.0838 32.694C39.0248 32.6186 38.9254 32.5891 38.8345 32.6193C38.7444 32.6497 38.6823 32.7328 38.6799 32.8283C38.666 33.4062 38.652 34.0002 38.6885 34.5905C37.7713 34.1642 36.3174 33.4869 34.5132 32.6403C32.3596 31.6291 31.9247 31.4171 31.0773 31.0754C29.9201 30.6086 28.4304 30.0152 26.4958 29.578C26.0648 29.481 24.1014 29.0708 21.4173 28.9924C18.5297 28.9077 15.5319 29.324 12.5122 30.2288C9.81255 31.0164 7.5921 32.0253 5.75454 33.2997C5.74055 33.2997 5.7328 33.2982 5.72968 33.2927C5.71493 33.2663 5.83065 33.1646 6.0784 32.9883C10.4634 29.8677 17.3624 26.6687 17.3624 26.6687C17.5837 26.5661 18.1111 26.3215 18.8412 26.0551C19.4081 25.8478 19.8492 25.718 19.9913 25.6769C20.8418 25.4307 23.9942 24.6035 24.4742 24.5174C24.527 24.5057 24.6404 24.4801 24.6925 24.4008C24.7546 24.3177 24.743 24.2183 24.7414 24.209C24.7398 24.1958 24.7274 24.1111 24.6583 24.0498C24.5713 23.9713 24.4447 23.9783 24.3958 23.9822C21.9276 24.1554 19.5495 24.5204 19.4974 24.5321C21.5819 20.5168 22.3897 19.1282 22.5194 18.9588C22.6327 18.8105 22.785 18.6947 22.785 18.6947C22.8122 18.6754 22.8416 18.6552 22.872 18.6358C22.9248 18.6023 22.9752 18.5728 23.0242 18.548C30.4389 14.7587 32.9715 13.4866 33.0881 13.4547C33.147 13.4314 33.2186 13.4081 33.3017 13.391C33.3017 13.391 33.401 13.3708 33.5043 13.3662C34.9613 13.3017 36.6194 13.7172 36.6194 13.7172C37.4715 13.9308 38.1736 14.1063 39.0792 14.5312C40.7474 15.314 42.0344 16.4813 42.3504 16.7772C43.0307 17.4133 43.3709 17.7317 43.7166 18.291C44.2913 19.2206 44.4536 20.1013 44.5506 20.6566C44.6439 21.1901 44.7239 21.9707 44.6166 22.9166C44.3114 22.4258 43.8377 21.7999 43.1356 21.236C42.0833 20.4974 41.7089 20.3855 41.0977 20.1075C40.9532 20.0391 40.7466 19.9358 40.6526 19.72C40.6348 19.6796 40.6255 19.6447 40.6193 19.6175C40.5486 19.2975 40.7575 18.9394 40.9571 18.5969C40.9959 18.5293 41.0853 18.381 41.0309 18.2933C41.0122 18.2637 40.9827 18.2498 40.9741 18.2459C40.8825 18.2047 40.7668 18.2747 40.7256 18.3003C40.5555 18.4036 39.5241 19.3278 38.1526 20.5991C38.1269 20.558 37.4505 19.3604 37.0272 18.7817C36.7981 18.4432 36.1007 17.4739 35.1423 16.719C35.1175 16.6988 35.0312 16.6437 34.9272 16.6546C34.9069 16.6569 34.8402 16.6646 34.7843 16.7174C34.7229 16.7756 34.7136 16.8471 34.7128 16.8798C34.7082 16.9698 34.7695 17.0599 34.7695 17.0599C34.7695 17.0599 35.4195 18.0315 35.849 18.7701C36.5356 19.9506 36.9177 20.8073 37.1957 21.6406C37.699 23.1481 37.5639 23.6832 37.3239 23.9939C37.2206 24.1283 37.1018 24.2137 37.0148 24.2665C36.6319 23.903 36.1504 23.4626 35.5796 22.9765C34.7812 22.2969 34.3206 21.9086 33.6209 21.4698C32.8613 20.9937 32.2788 20.7467 31.8765 20.6015C31.2924 20.3902 30.7581 20.2659 29.9084 20.2901C28.7108 20.3662 26.499 20.9137 24.5084 21.6903C24.3468 21.7571 24.2972 21.8737 24.2956 22.001C24.294 22.1385 24.3817 22.2604 24.4866 22.3078C24.5448 22.3342 24.6085 22.3372 24.628 22.3381C24.6925 22.3412 24.7499 22.3264 24.7872 22.3171C25.0443 22.2511 27.5458 21.5816 28.9143 21.4542C29.1038 21.4363 29.3943 21.4177 29.7569 21.4496C29.7569 21.4496 30.195 21.4877 30.6431 21.6157C31.4299 21.841 32.7626 22.5943 33.9781 23.8812C34.5365 24.4723 34.9761 25.0765 35.1966 25.3787C35.4988 25.7926 35.7341 26.153 35.8988 26.4162C32.9226 25.4066 30.7262 24.6851 30.463 24.6354C30.4109 24.6253 30.2672 24.5989 30.1578 24.6774C30.0575 24.7488 30.0358 24.8731 30.0342 24.8839C30.0187 24.9802 30.0529 25.0548 30.0638 25.0781C30.1143 25.1853 30.209 25.2396 30.2424 25.2582C30.4047 25.3492 33.1929 26.9125 37.0218 29.0545C37.3728 29.2937 37.998 29.7287 38.9766 30.4689C40.8561 31.8908 43.5014 34.036 46.6476 37.0743C46.2127 36.9819 45.7653 36.8793 45.3063 36.7651H45.3072Z" fill="white"/>
</svg>
