<svg width="108" height="29" viewBox="0 0 108 29" fill="none" xmlns="http://www.w3.org/2000/svg">
<path d="M5.84302 6.58123V17.3H11.2024C11.9369 17.3 12.6278 17.163 13.2752 16.8892C13.9225 16.6028 14.489 16.2169 14.9745 15.7314C15.46 15.2459 15.8397 14.6794 16.1136 14.0321C16.3999 13.3723 16.5431 12.6751 16.5431 11.9406C16.5431 11.2061 16.3999 10.5152 16.1136 9.86782C15.8397 9.20801 15.46 8.63535 14.9745 8.14983C14.489 7.66431 13.9225 7.28461 13.2752 7.01073C12.6278 6.7244 11.9369 6.58123 11.2024 6.58123H5.84302ZM5.84302 28.0001H0.483643V1.22186H11.2024C12.1859 1.22186 13.132 1.35258 14.0408 1.61401C14.9496 1.86299 15.7961 2.22402 16.5804 2.69709C17.3772 3.15771 18.0992 3.71792 18.7466 4.37773C19.4064 5.02509 19.9666 5.74714 20.4272 6.54389C20.9003 7.34063 21.2613 8.1934 21.5103 9.10219C21.7718 10.011 21.9025 10.9571 21.9025 11.9406C21.9025 13.4096 21.6224 14.7977 21.0621 16.1049C20.5019 17.3996 19.7363 18.5325 18.7653 19.5035C17.7942 20.4745 16.6551 21.2401 15.348 21.8004C14.0533 22.3606 12.6714 22.6407 11.2024 22.6407H5.84302V28.0001Z" fill="white"/>
<path d="M43.8442 17.8228C43.8442 19.3168 43.5765 20.7111 43.0412 22.0058C42.5059 23.288 41.7776 24.4022 40.8564 25.3484C39.9351 26.2821 38.852 27.0228 37.6071 27.5706C36.3746 28.1059 35.0488 28.3735 33.6296 28.3735C32.2228 28.3735 30.897 28.1059 29.6521 27.5706C28.4196 27.0228 27.3365 26.2821 26.4028 25.3484C25.4816 24.4022 24.7533 23.288 24.218 22.0058C23.6827 20.7111 23.415 19.3168 23.415 17.8228C23.415 16.304 23.6827 14.8973 24.218 13.6026C24.7533 12.3079 25.4816 11.1937 26.4028 10.26C27.3365 9.31383 28.4196 8.5731 29.6521 8.03779C30.897 7.50247 32.2228 7.23481 33.6296 7.23481C35.0488 7.23481 36.3746 7.49002 37.6071 8.00044C38.852 8.49841 39.9351 9.21424 40.8564 10.1479C41.7776 11.0692 42.5059 12.1834 43.0412 13.4905C43.5765 14.7852 43.8442 16.2294 43.8442 17.8228ZM38.7089 17.8228C38.7089 17.0012 38.5719 16.2605 38.298 15.6007C38.0366 14.9284 37.6756 14.3558 37.215 13.8827C36.7543 13.3972 36.2128 13.0299 35.5903 12.7809C34.9803 12.5195 34.3268 12.3888 33.6296 12.3888C32.9324 12.3888 32.2726 12.5195 31.6502 12.7809C31.0402 13.0299 30.5049 13.3972 30.0442 13.8827C29.5961 14.3558 29.2413 14.9284 28.9798 15.6007C28.7184 16.2605 28.5877 17.0012 28.5877 17.8228C28.5877 18.5947 28.7184 19.3105 28.9798 19.9703C29.2413 20.6301 29.5961 21.2028 30.0442 21.6883C30.5049 22.1738 31.0402 22.5598 31.6502 22.8461C32.2726 23.12 32.9324 23.2569 33.6296 23.2569C34.3268 23.2569 34.9803 23.1262 35.5903 22.8648C36.2128 22.6033 36.7543 22.2361 37.215 21.763C37.6756 21.2899 38.0366 20.7173 38.298 20.045C38.5719 19.3728 38.7089 18.632 38.7089 17.8228Z" fill="white"/>
<path d="M51.7618 28.0001H46.6639V8.00044H47.8964L49.577 10.372C50.3987 9.62506 51.3323 9.0524 52.3781 8.65402C53.4238 8.2432 54.5069 8.03779 55.6273 8.03779H60.1277V13.1171H55.6273C55.092 13.1171 54.5878 13.2167 54.1147 13.4158C53.6417 13.615 53.2308 13.8889 52.8823 14.2375C52.5337 14.5861 52.2598 14.9969 52.0606 15.47C51.8614 15.943 51.7618 16.4472 51.7618 16.9825V28.0001Z" fill="white"/>
<path d="M72.5271 28.0001C71.2946 28.0001 70.1368 27.7697 69.0538 27.3091C67.9707 26.8361 67.0183 26.1949 66.1967 25.3857C65.3875 24.5641 64.7463 23.6117 64.2733 22.5286C63.8126 21.4456 63.5823 20.2878 63.5823 19.0553V13.1171H61.0987V8.03779H63.5823V0.0454102H68.6616V8.03779H76.3926V13.1171H68.6616V19.0553C68.6616 19.5906 68.7612 20.0948 68.9604 20.5679C69.1596 21.0285 69.4335 21.4331 69.782 21.7817C70.1306 22.1303 70.5414 22.4104 71.0145 22.622C71.4876 22.8212 71.9918 22.9208 72.5271 22.9208H76.3926V28.0001H72.5271Z" fill="white"/>
<path d="M98.633 28.0001H97.4006L95.4211 25.255C94.9356 25.6907 94.419 26.1016 93.8712 26.4875C93.3359 26.861 92.7695 27.1909 92.1719 27.4772C91.5743 27.7511 90.9581 27.9689 90.3232 28.1308C89.7007 28.2926 89.0658 28.3735 88.4185 28.3735C87.0117 28.3735 85.6859 28.137 84.441 27.6639C83.2085 27.1909 82.1254 26.5062 81.1917 25.6098C80.2705 24.701 79.5422 23.593 79.0069 22.2859C78.4716 20.9787 78.2039 19.491 78.2039 17.8228C78.2039 16.2667 78.4716 14.8413 79.0069 13.5466C79.5422 12.2394 80.2705 11.119 81.1917 10.1853C82.1254 9.25158 83.2085 8.52953 84.441 8.01911C85.6859 7.49625 87.0117 7.23481 88.4185 7.23481C89.0658 7.23481 89.707 7.31573 90.3419 7.47757C90.9768 7.63941 91.593 7.8635 92.1906 8.14983C92.7881 8.43616 93.3546 8.77229 93.8899 9.15822C94.4377 9.54414 94.9481 9.96119 95.4211 10.4094L97.4006 8.03779H98.633V28.0001ZM93.4977 17.8228C93.4977 17.1257 93.3608 16.4534 93.0869 15.8061C92.8255 15.1463 92.4645 14.5674 92.0038 14.0694C91.5432 13.559 91.0017 13.1544 90.3792 12.8556C89.7692 12.5444 89.1156 12.3888 88.4185 12.3888C87.7213 12.3888 87.0615 12.507 86.439 12.7436C85.829 12.9801 85.2937 13.3287 84.8331 13.7893C84.3849 14.2499 84.0301 14.8226 83.7687 15.5073C83.5073 16.1796 83.3766 16.9514 83.3766 17.8228C83.3766 18.6943 83.5073 19.4724 83.7687 20.1571C84.0301 20.8293 84.3849 21.3958 84.8331 21.8564C85.2937 22.317 85.829 22.6656 86.439 22.9021C87.0615 23.1386 87.7213 23.2569 88.4185 23.2569C89.1156 23.2569 89.7692 23.1075 90.3792 22.8087C91.0017 22.4975 91.5432 22.0929 92.0038 21.595C92.4645 21.0845 92.8255 20.5056 93.0869 19.8583C93.3608 19.1985 93.4977 18.52 93.4977 17.8228Z" fill="white"/>
<path d="M107.671 28.0001H102.536V0.0454102H107.671V28.0001Z" fill="white"/>
</svg>
