<svg width="198" height="51" viewBox="0 0 198 51" fill="none" xmlns="http://www.w3.org/2000/svg">
<path d="M31.1796 5.28583C26.218 5.28583 22.1958 9.30801 22.1958 14.2696C22.1958 19.2312 26.218 23.2534 31.1796 23.2534C36.1412 23.2534 40.1634 19.2312 40.1634 14.2696C40.1634 9.30801 36.1412 5.28583 31.1796 5.28583Z" fill="#1072F9"/>
<path d="M39.1072 15.7422C35.0212 15.7422 31.7088 19.0546 31.7088 23.1406C31.7088 27.2266 35.0212 30.539 39.1072 30.539C43.1933 30.539 46.5056 27.2266 46.5056 23.1406C46.5056 19.0546 43.1933 15.7422 39.1072 15.7422ZM11.6274 15.8553C7.54139 15.8553 4.229 19.1677 4.229 23.2537C4.229 27.3397 7.54139 30.6521 11.6274 30.6521C15.7134 30.6521 19.0258 27.3397 19.0258 23.2537C19.0258 19.1677 15.7134 15.8553 11.6274 15.8553Z" fill="#1072F9"/>
<path d="M18.4991 8.45667C14.7049 8.45667 11.6292 11.5324 11.6292 15.3266C11.6292 19.1208 14.7049 22.1966 18.4991 22.1966C22.2933 22.1966 25.3691 19.1208 25.3691 15.3266C25.3691 11.5325 22.2933 8.45667 18.4991 8.45667Z" fill="#1072F9"/>
<path d="M26.4233 13.6276C22.3373 13.6276 19.0249 16.94 19.0249 21.026C19.0249 25.1121 22.3373 28.4245 26.4233 28.4245C30.5093 28.4245 33.8217 25.1121 33.8217 21.026C33.8217 16.94 30.5093 13.6276 26.4233 13.6276Z" fill="#1072F9"/>
<path d="M7.39984 26.4247C7.39984 28.7594 9.29278 30.6523 11.6275 30.6523H38.0504C40.3851 30.6523 42.2781 28.7594 42.2781 26.4247V25.3677C42.2781 23.033 40.3851 21.1401 38.0504 21.1401H11.6275C9.29278 21.1401 7.39984 23.033 7.39984 25.3677V26.4247Z" fill="#1072F9"/>
<path d="M36.9395 39.2663C35.7431 40.4638 33.8026 40.4638 32.6051 39.2663C31.4066 38.071 31.4076 36.1283 32.6051 34.933C33.8026 33.7355 39.1062 32.7663 39.1062 32.7663C39.1062 32.7663 38.1359 38.072 36.9395 39.2663ZM25.3134 43.494C24.117 44.6904 22.1765 44.6904 20.979 43.494C19.7815 42.2965 19.7826 40.356 20.979 39.1596C22.1765 37.9621 27.4812 36.9929 27.4812 36.9929C27.4812 36.9929 26.5099 42.2997 25.3134 43.494ZM14.7443 39.2663C13.5478 40.4638 11.6074 40.4638 10.4099 39.2663C9.21238 38.071 9.21344 36.1283 10.4099 34.933C11.6063 33.7355 16.911 32.7663 16.911 32.7663C16.911 32.7663 15.9407 38.072 14.7443 39.2663Z" fill="#1072F9"/>
<path fill-rule="evenodd" clip-rule="evenodd" d="M11.5621 30.6518C7.50613 30.6167 4.229 27.3179 4.229 23.2537C4.229 19.1677 7.54139 15.8553 11.6274 15.8553L11.6492 15.8553C11.6359 15.6808 11.6292 15.5045 11.6292 15.3266C11.6292 11.5324 14.7049 8.45667 18.4991 8.45667C20.2873 8.45667 21.916 9.13989 23.1382 10.2595C24.6116 7.31081 27.6591 5.28583 31.1796 5.28583C36.1412 5.28583 40.1634 9.30801 40.1634 14.2696C40.1634 14.7912 40.1189 15.3024 40.0336 15.7996C43.6824 16.2554 46.5056 19.3683 46.5056 23.1406C46.5056 27.2266 43.1933 30.539 39.1072 30.539C39.0809 30.539 39.0547 30.5389 39.0284 30.5386C38.7145 30.613 38.3871 30.6523 38.0504 30.6523H11.6275C11.6057 30.6523 11.5838 30.6522 11.5621 30.6518Z" fill="white"/>
<path d="M36.9395 39.2663C35.7431 40.4638 33.8026 40.4638 32.6051 39.2663C31.4066 38.071 31.4076 36.1283 32.6051 34.933C33.8026 33.7355 39.1062 32.7663 39.1062 32.7663C39.1062 32.7663 38.1359 38.072 36.9395 39.2663ZM25.3134 43.494C24.117 44.6904 22.1765 44.6904 20.979 43.494C19.7815 42.2965 19.7826 40.356 20.979 39.1596C22.1765 37.9621 27.4812 36.9929 27.4812 36.9929C27.4812 36.9929 26.5099 42.2997 25.3134 43.494ZM14.7443 39.2663C13.5478 40.4638 11.6074 40.4638 10.4099 39.2663C9.21238 38.071 9.21344 36.1283 10.4099 34.933C11.6063 33.7355 16.911 32.7663 16.911 32.7663C16.911 32.7663 15.9407 38.072 14.7443 39.2663Z" fill="white"/>
<path d="M91.224 25.812C92.736 25.908 93.912 26.388 94.752 27.252C95.616 28.092 96.048 29.28 96.048 30.816V36H87.048V32.328C87.048 31.176 86.856 30.396 86.472 29.988C86.088 29.58 85.32 29.376 84.168 29.376H74.16V36H65.16V10.08H85.32C88.872 10.08 91.548 10.8 93.348 12.24C95.148 13.656 96.048 15.732 96.048 18.468C96.048 20.412 95.64 21.984 94.824 23.184C94.008 24.384 92.808 25.26 91.224 25.812ZM74.16 17.28V22.176H83.16C84.024 22.176 84.684 22.14 85.14 22.068C85.596 21.972 85.968 21.756 86.256 21.42C86.544 21.06 86.688 20.496 86.688 19.728C86.688 18.96 86.544 18.408 86.256 18.072C85.968 17.712 85.596 17.496 85.14 17.424C84.684 17.328 84.024 17.28 83.16 17.28H74.16ZM116.591 13.68C119.663 13.68 122.171 14.052 124.115 14.796C126.083 15.54 127.547 16.74 128.507 18.396C129.491 20.028 129.995 22.212 130.019 24.948V36H121.739V33.12C119.939 34.224 117.947 35.04 115.763 35.568C113.603 36.096 111.503 36.36 109.463 36.36C106.415 36.36 103.991 35.82 102.191 34.74C100.391 33.66 99.4908 31.908 99.4908 29.484C99.4908 26.796 100.679 24.9 103.055 23.796C105.431 22.668 108.383 22.104 111.911 22.104C114.959 22.104 118.235 22.464 121.739 23.184C121.643 21.792 121.019 20.82 119.867 20.268C118.739 19.716 117.131 19.44 115.043 19.44C113.147 19.44 111.215 19.584 109.247 19.872C107.303 20.136 105.023 20.568 102.407 21.168L101.255 15.516C106.751 14.292 111.863 13.68 116.591 13.68ZM112.307 30.6C114.275 30.6 117.419 30.24 121.739 29.52V27.864C118.379 27.384 115.511 27.144 113.135 27.144C111.311 27.144 110.015 27.276 109.247 27.54C108.503 27.804 108.131 28.26 108.131 28.908C108.131 29.532 108.443 29.976 109.067 30.24C109.691 30.48 110.771 30.6 112.307 30.6ZM133.996 12.24V7.2H142.276V12.24H133.996ZM133.996 36V14.4H142.276V36H133.996ZM167.246 13.68C174.566 13.68 178.226 17.268 178.226 24.444V36H169.946V27.54C169.946 25.092 169.442 23.316 168.434 22.212C167.426 21.084 165.674 20.52 163.178 20.52C160.49 20.52 158.426 21.108 156.986 22.284C155.57 23.46 154.862 25.212 154.862 27.54V36H146.582V14.4H154.862V19.44C156.302 17.616 158.006 16.2 159.974 15.192C161.966 14.184 164.39 13.68 167.246 13.68Z" fill="white"/>
</svg>
