<svg width="100" height="100" viewBox="0 4 35 35" fill="none" xmlns="http://www.w3.org/2000/svg">
  <path fill-rule="evenodd" clip-rule="evenodd" d="M9.68179 19.6447L11.2272 21.2002L16.5909 15.8016L15.0454 14.2461L9.68179 19.6447Z" fill="white"/>
  <path fill-rule="evenodd" clip-rule="evenodd" d="M0 21.6119L5.40909 27.0562L8.86364 23.5792L7.31815 22.0237L5.40906 23.9452L3.09088 21.6119L5.40906 19.2786L11.1818 25.0889L12.7272 23.5334L5.40903 16.1676L0 21.6119Z" fill="white"/>
  <path fill-rule="evenodd" clip-rule="evenodd" d="M15.0909 18.1349L13.5455 19.6904L18.9091 25.089L20.4545 23.5335L15.0909 18.1349Z" fill="white"/>
  <path fill-rule="evenodd" clip-rule="evenodd" d="M24.3182 23.5792L22.7727 22.0237L17.409 27.4222L18.9545 28.9778L24.3182 23.5792Z" fill="white"/>
  <path fill-rule="evenodd" clip-rule="evenodd" d="M7.72727 13.8343L11.1818 17.3114L12.7272 15.7559L10.8182 13.8344L13.1363 11.5011L18.9091 17.3114L20.4546 15.7559L13.1364 8.39005L7.72727 13.8343Z" fill="white"/>
  <path fill-rule="evenodd" clip-rule="evenodd" d="M13.5454 27.468L20.8636 34.8338L26.2727 29.3895L22.8182 25.9125L21.2726 27.4681L23.1817 29.3896L20.8635 31.7229L15.0908 25.9126L13.5454 27.468Z" fill="white"/>
  <path fill-rule="evenodd" clip-rule="evenodd" d="M21.2727 19.6904L28.5909 27.0562L34 21.6119L28.5909 16.1677L25.1364 19.6447L26.6818 21.2002L28.5909 19.2787L30.9091 21.612L28.5909 23.9453L22.8182 18.135L21.2727 19.6904Z" fill="white"/>
  <path fill-rule="evenodd" clip-rule="evenodd" d="M7.72727 29.3895L13.1364 34.8338L16.5909 31.3568L15.0454 29.8012L13.1363 31.7227L10.8182 29.3895L16.5909 23.5792L15.0454 22.0236L7.72727 29.3895Z" fill="white"/>
  <path fill-rule="evenodd" clip-rule="evenodd" d="M17.4098 11.8665L18.9552 13.4219L20.8643 11.5004L23.1825 13.8337L17.4097 19.644L18.9552 21.1995L26.2733 13.8337L20.8642 8.38936L17.4098 11.8665Z" fill="white"/>
  <path d="M14.2274 7.32129L17.0304 4.5L19.8335 7.32129L17.0304 10.1426L14.2274 7.32129Z" fill="white"/>
  <path d="M14.2274 35.6787L17.0304 32.8574L19.8335 35.6787L17.0304 38.5L14.2274 35.6787Z" fill="white"/>
</svg>
