<svg width="166" height="26" viewBox="0 0 166 26" fill="none" xmlns="http://www.w3.org/2000/svg"><g clip-path="url(#clip0_1658_937)"><path d="M34.0646 2.57251V4.91793H40.6948V23.3875H43.5211V4.91793H50.154V2.57251H34.0646Z" fill="#F2F2F7"></path><path d="M55.1948 23.3902V15.7369C55.1948 12.4244 56.6507 10.5171 59.2098 10.5171C61.3522 10.5171 62.4501 11.8635 62.4501 14.4466V23.3876H64.9799V14.2703C64.9799 10.3969 63.2836 8.37739 60.0726 8.37739C57.7539 8.37739 56.087 9.43257 55.1948 11.4841V2.13184H52.6677V23.3902H55.1948Z" fill="#F2F2F7"></path><path d="M72.3767 23.74C74.8183 23.74 76.6882 22.5967 77.3721 20.7214C77.4015 21.659 77.4896 22.6261 77.6098 23.3927H80.2571C79.8992 22.2494 79.7522 20.692 79.7522 18.4374V14.4785C79.7522 10.1964 77.9678 8.37988 73.894 8.37988C70.4133 8.37988 68.0358 10.3433 67.8301 13.3352H70.5362C70.6537 11.4893 71.9039 10.4315 73.9288 10.4315C76.2208 10.4315 77.1985 11.516 77.1985 14.2141V14.4491L74.4336 14.775C71.9921 15.0689 70.5656 15.4188 69.4383 15.9771C68.0999 16.7117 67.3573 17.9699 67.3573 19.4392C67.3573 22.049 69.3501 23.748 72.3847 23.748H72.3794L72.374 23.7427L72.3767 23.74ZM72.9404 21.6857C71.1265 21.6857 70.0286 20.8069 70.0286 19.3697C70.0286 17.9325 70.9823 17.1685 73.1808 16.8507L77.2252 16.263V16.9976C77.2252 19.8425 75.5289 21.6884 72.943 21.6884H72.9404V21.6857Z" fill="#F2F2F7"></path><path d="M82.9365 2.13184V23.3902H85.4662V2.13184H82.9365Z" fill="#F2F2F7"></path><path d="M92.8792 23.74C95.3208 23.74 97.1907 22.5967 97.8745 20.7214C97.9039 21.659 97.9921 22.6261 98.1096 23.3927H100.757C100.399 22.2494 100.252 20.692 100.252 18.4374V14.4785C100.252 10.1964 98.4676 8.37988 94.3938 8.37988C90.9131 8.37988 88.5356 10.3433 88.3299 13.3352H91.036C91.1535 11.4893 92.4037 10.4315 94.4232 10.4315C96.7152 10.4315 97.6929 11.516 97.6929 14.2141V14.4491L94.9281 14.775C92.4865 15.0689 91.06 15.4188 89.93 15.9771C88.5917 16.7117 87.8491 17.9699 87.8491 19.4392C87.8491 22.049 89.8419 23.748 92.8765 23.748V23.7427H92.8792V23.74ZM93.4428 21.6857C91.629 21.6857 90.5311 20.8069 90.5311 19.3697C90.5311 17.9325 91.4847 17.1685 93.6832 16.8507L97.7276 16.263V16.9976C97.7276 19.8425 96.0313 21.6884 93.4455 21.6884H93.4428V21.6857Z" fill="#F2F2F7"></path><path d="M120.693 23.3901V21.0447H110.94V2.57251H108.116V23.3901H120.693Z" fill="#F2F2F7"></path><path d="M127.508 23.74C129.949 23.74 131.819 22.5967 132.506 20.7214C132.535 21.659 132.623 22.6261 132.741 23.3927H135.388C135.03 22.2494 134.883 20.692 134.883 18.4374V14.4785C134.883 10.1964 133.099 8.37988 129.025 8.37988C125.544 8.37988 123.167 10.3433 122.961 13.3352H125.667C125.785 11.4893 127.035 10.4315 129.054 10.4315C131.346 10.4315 132.324 11.516 132.324 14.2141V14.4491L129.559 14.775C127.118 15.0689 125.694 15.4188 124.564 15.9771C123.225 16.7117 122.483 17.9699 122.483 19.4392C122.483 22.049 124.476 23.748 127.51 23.748H127.508V23.7427V23.74ZM128.071 21.6857C126.257 21.6857 125.159 20.8069 125.159 19.3697C125.159 17.9325 126.113 17.1685 128.312 16.8507L132.356 16.263V16.9976C132.356 19.8425 130.66 21.6884 128.074 21.6884L128.071 21.6857Z" fill="#F2F2F7"></path><path d="M145.178 23.7402C148.897 23.7402 151.304 20.6334 151.304 16.0575C151.304 11.4815 148.953 8.37472 145.325 8.37472C143.007 8.37472 141.369 9.63559 140.6 11.2785V2.13184H138.073V23.3902H140.004L140.45 20.8712C141.222 22.5728 142.918 23.7455 145.176 23.7455V23.7402H145.178ZM144.5 21.5363C142.002 21.5363 140.546 19.5435 140.546 16.4902V15.7289C140.546 12.534 142.034 10.5679 144.532 10.5679C147.179 10.5679 148.635 12.7691 148.635 16.0494C148.635 19.3298 147.088 21.531 144.503 21.531V21.5363H144.5Z" fill="#F2F2F7"></path><path d="M159.617 23.74C163.247 23.74 165.296 21.8941 165.296 19.2548C165.296 17.1151 164.107 15.7634 161.431 15.2665L158.546 14.7376C157.09 14.4758 156.254 13.8908 156.254 12.654C156.254 11.2195 157.413 10.3967 159.315 10.3967C161.334 10.3967 162.497 11.4252 162.825 12.8891L165.323 12.3334C165.026 9.87045 162.764 8.37451 159.435 8.37451C155.925 8.37451 153.785 10.2498 153.785 12.7715C153.785 14.9994 155.212 16.4072 157.742 16.8747L160.653 17.4036C161.992 17.6387 162.798 18.1649 162.798 19.4552C162.798 20.7454 161.698 21.6831 159.708 21.6831C157.536 21.6831 156.141 20.6279 155.781 18.7793L153.222 19.2201C153.727 22.1238 156.107 23.7373 159.617 23.7373V23.7426V23.74Z" fill="#F2F2F7"></path><path d="M11.4705 26H15.1196V18.9798L21.9047 22.8612L23.5984 19.9521L14.5933 14.7991C13.7919 14.3423 12.7982 14.3423 11.9995 14.7991L2.99176 19.9521L4.68538 22.8612L11.4705 18.9798V26Z" fill="#F2F2F7"></path><path d="M14.5933 0V10.3487C14.5933 11.265 15.0902 12.1171 15.8889 12.5739L24.8939 17.7269L26.5876 14.8178L19.8184 10.9471L25.8636 7.4343L24.0391 4.3035L17.9779 7.82431V0H14.5933Z" fill="#F2F2F7"></path><path d="M8.60956 0V7.82431L2.54832 4.3035L0.723807 7.4343L6.76901 10.9471L-0.00012207 14.8178L1.6935 17.7269L10.6985 12.5739C11.4973 12.1171 11.9941 11.265 11.9941 10.3487V0H8.60956Z" fill="#F2F2F7"></path></g><defs><clipPath id="clip0_1658_937"><rect width="165.323" height="26" fill="white"></rect></clipPath></defs></svg>