<svg width="176" height="28" viewBox="0 0 176 28" fill="none" xmlns="http://www.w3.org/2000/svg">
<path d="M1 0V9C5.9725 9 10 4.9725 10 0H1Z" fill="#1A5AFF"/>
<path d="M7.59244 28L0 23.6359L12.3773 2.19844C13.1529 0.842188 14.595 0 16.1681 0H26V8.75H18.6807L7.59244 28Z" fill="#1A5AFF"/>
<path d="M25.5924 28L18 23.6359L30.3773 2.19844C31.1529 0.842188 32.595 0 34.1681 0H44V8.75H36.6807L25.5924 28Z" fill="#1A5AFF"/>
<path d="M112.952 8.94377V6.07435L116.026 5.15204V8.94377H118.588V11.9669H116.026V17.2446C116.026 17.8082 116.129 18.1669 116.385 18.3718C116.641 18.5768 117 18.6793 117.512 18.6793C117.717 18.6793 117.922 18.6793 118.127 18.6793C118.332 18.6793 118.486 18.628 118.588 18.5768V21.4462C118.435 21.4975 118.178 21.5999 117.871 21.6512C117.564 21.7024 117.154 21.7537 116.641 21.7537C115.411 21.7537 114.438 21.395 113.721 20.7289C113.003 20.0628 112.645 19.0892 112.645 17.8595V11.9669H110.339V8.94377H112.952Z" fill="white"/>
<path d="M103.934 8.94377V6.07435L107.008 5.15204V8.94377H109.57V11.9669H107.008V17.2446C107.008 17.8082 107.111 18.1669 107.367 18.3718C107.623 18.5768 107.982 18.6793 108.494 18.6793C108.699 18.6793 108.904 18.6793 109.109 18.6793C109.314 18.6793 109.468 18.628 109.57 18.5768V21.4462C109.416 21.4975 109.16 21.5999 108.853 21.6512C108.545 21.7024 108.135 21.7537 107.623 21.7537C106.393 21.7537 105.42 21.395 104.702 20.7289C103.985 20.0628 103.626 19.0892 103.626 17.8595V11.9669H101.321V8.94377H103.934Z" fill="white"/>
<path d="M57.562 8.94377V6.07435L60.6364 5.15204V8.94377H63.1983V11.9669H60.6364V17.2446C60.6364 17.8082 60.7388 18.1669 60.995 18.3718C61.2512 18.5768 61.6099 18.6793 62.1223 18.6793C62.3273 18.6793 62.5322 18.6793 62.7372 18.6793C62.9421 18.6793 63.0959 18.628 63.1983 18.5768V21.4462C63.0446 21.4975 62.7884 21.5999 62.481 21.6512C62.1735 21.7024 61.7636 21.7537 61.2512 21.7537C60.0215 21.7537 59.0479 21.395 58.3306 20.7289C57.6132 20.0628 57.2545 19.0892 57.2545 17.8595V11.9669H55V8.94377H57.562Z" fill="white"/>
<path d="M73.6 12.3256C72.7801 12.2231 71.6016 11.9669 70.2694 12.9917C69.962 13.2479 69.757 13.6066 69.552 14.0677C69.3983 14.5289 69.2958 15.0925 69.2958 15.7586V21.4975H65.8628V8.94377H69.1934C69.1934 9.55864 69.1934 10.1223 69.1934 10.7372C69.3471 10.5322 69.5008 10.276 69.6545 10.071C69.9107 9.81484 70.1669 9.60988 70.4231 9.40492C71.243 8.89253 72.2165 8.79005 73.1388 8.84129C73.2413 8.84129 73.395 8.84129 73.5487 8.89253V12.3256H73.6Z" fill="white"/>
<path d="M126.992 8.58514C129.349 8.58514 132.013 9.86613 133.089 12.5818C133.602 13.9141 133.858 16.1174 133.089 17.962C132.526 19.2942 131.398 20.7289 129.605 21.4975C128.273 22.0611 126.172 22.2661 124.378 21.4975C123.559 21.1388 122.892 20.6777 122.278 20.114C121.663 19.4992 121.253 18.8331 120.894 18.0132C120.33 16.681 120.177 14.4777 120.894 12.6331C121.253 11.8132 121.663 11.0959 122.278 10.5322C123.354 9.40498 124.993 8.58514 126.992 8.58514ZM126.992 18.8331C127.402 18.8331 127.811 18.7306 128.221 18.5769C128.631 18.4231 128.939 18.2182 129.246 17.9107C129.554 17.6033 129.759 17.2446 129.964 16.7835C130.22 16.1174 130.373 14.7851 129.964 13.6579C129.759 13.1967 129.554 12.838 129.246 12.5306C128.939 12.2232 128.631 12.0182 128.221 11.8645C127.709 11.7108 127.094 11.4546 125.813 11.8645C125.403 12.0182 125.096 12.2232 124.788 12.5306C124.02 13.2479 123.456 15.2463 124.071 16.7835C124.225 17.2446 124.481 17.6033 124.788 17.9107C125.096 18.2182 125.403 18.4231 125.813 18.5769C126.223 18.7818 126.582 18.8331 126.992 18.8331Z" fill="white"/>
<path d="M143.337 14.2727L148.461 21.5487H144.311L140.98 16.7322L139.545 18.2182V21.5487H136.112V3H139.545V13.6578L143.901 8.99503H148.359L143.337 14.2727Z" fill="white"/>
<path d="M161.22 17.9107C161.066 18.4743 160.81 18.9867 160.502 19.4479C160.195 19.9603 159.785 20.3702 159.273 20.7289C157.172 22.3173 153.38 22.471 150.92 20.114C149.076 18.3719 148.359 15.1438 149.486 12.4281C150.049 11.0958 151.125 9.76361 152.816 8.99502C154.763 8.12394 157.992 8.38014 159.734 10.276C160.912 11.557 161.527 13.5041 161.373 15.7586C161.373 15.9636 161.322 16.1173 161.322 16.1173H152.304C152.304 16.7834 152.611 17.3471 152.97 17.8082C153.431 18.4231 154.354 18.9355 155.276 18.9867C155.993 19.038 156.813 18.8843 157.377 18.4743C157.838 18.1157 158.145 17.6545 158.35 17.0909L161.22 17.9107ZM158.043 13.8115C158.043 12.8892 157.428 12.0182 156.711 11.6595C155.788 11.1983 154.61 11.2496 153.79 11.7107C153.021 12.1206 152.458 12.8892 152.406 13.8628C153.687 13.8628 154.968 13.8628 156.249 13.8628C156.813 13.8115 157.428 13.8115 158.043 13.8115Z" fill="white"/>
<path d="M167.471 21.5487H164.038V8.94378H167.368V10.481C167.778 9.81485 168.291 9.35369 168.957 9.04626C170.494 8.3289 172.492 8.43138 173.825 9.45617C175.106 10.4297 175.516 12.0182 175.516 13.5553V21.4975H172.082V14.1702C172.082 12.838 171.314 11.762 169.93 11.7107C169.213 11.7107 168.547 11.9157 168.086 12.4281C167.573 12.9405 167.42 13.6066 167.42 14.3239C167.471 14.2727 167.471 21.5487 167.471 21.5487Z" fill="white"/>
<path d="M83.9504 8.94379H87.3834V21.5487H84.0528V20.0115C83.6429 20.6777 83.1305 21.1388 82.4644 21.4463C80.9272 22.1636 78.9289 22.0611 77.5967 21.0363C76.3157 20.0628 75.9057 18.4744 75.9057 16.9372V8.94379H79.3388V16.2711C79.3388 17.6033 80.1074 18.6793 81.4909 18.7306C82.2082 18.7306 82.8743 18.5256 83.3355 18.0132C83.8479 17.5008 84.0016 16.8347 84.0016 16.1173C83.9504 16.2198 83.9504 8.94379 83.9504 8.94379Z" fill="white"/>
<path d="M100.04 17.9107C100.04 20.6264 97.6826 21.9587 94.9669 21.9587C92.4561 21.9587 90.5603 20.8826 89.638 18.9355L92.4561 17.3471C92.8148 18.3719 93.6859 18.9868 94.9156 18.9868C95.9404 18.9868 96.6578 18.6281 96.6578 17.9107C96.6578 16.0661 90.0991 17.0909 90.0991 12.6331C90.0991 10.0711 92.3024 8.58514 94.9156 8.58514C96.9652 8.58514 98.7586 9.50746 99.7322 11.2496L96.9652 12.7868C96.6065 11.967 95.8892 11.5058 94.9156 11.5058C94.0958 11.5058 93.4297 11.8645 93.4297 12.5306C93.5322 14.3752 100.04 13.2479 100.04 17.9107Z" fill="white"/>
</svg>
