<svg width="104" height="100" viewBox="1 0 36 36" fill="none" xmlns="http://www.w3.org/2000/svg">
<g clip-path="url(#clip0_11_41)">
<path d="M5.63068 26.1245C4.29037 25.3446 3.13273 24.2357 2.30417 22.798C-0.205869 18.4602 1.28067 12.904 5.63059 10.3818C9.96833 7.87178 15.5246 9.35837 18.0468 13.7083C18.8754 15.1461 19.2653 16.7057 19.2653 18.2409C16.5481 16.6691 13.0999 16.5595 10.1755 18.241C7.2634 19.9346 5.64287 22.993 5.63068 26.1245Z" fill="url(#paint0_radial_11_41)" stroke="#94FF0B" stroke-width="0.25" stroke-miterlimit="10"/>
<path d="M19.2644 2.52224C20.6047 1.74242 22.1521 1.31593 23.797 1.30374C28.8171 1.30374 32.8868 5.37342 32.8746 10.3813C32.8746 15.4014 28.8049 19.4711 23.797 19.4589C22.1399 19.4589 20.5925 19.0081 19.2644 18.2405C21.9816 16.6686 23.7971 13.7322 23.8093 10.3814C23.7971 7.03062 21.9816 4.09406 19.2644 2.52224Z" fill="url(#paint1_radial_11_41)" stroke="#94FF0B" stroke-width="0.25" stroke-miterlimit="10"/>
<path d="M5.62941 10.3819C5.62941 8.84658 6.03156 7.2748 6.84794 5.84919C9.35798 1.51145 14.902 0.0127 19.2641 2.52274C23.6018 5.03278 25.1005 10.5768 22.5905 14.9389C21.7619 16.3767 20.6044 17.4855 19.264 18.2653C19.264 15.1216 17.6314 12.0755 14.7192 10.4062C11.8071 8.71258 8.34659 8.8344 5.62941 10.3819Z" fill="url(#paint2_radial_11_41)" stroke="#94FF0B" stroke-width="0.25" stroke-miterlimit="10"/>
<path d="M32.8874 10.3937C34.2277 11.1735 35.3852 12.2823 36.2138 13.7201C38.7238 18.0578 37.2373 23.614 32.8873 26.1362C28.5496 28.6463 22.9934 27.1598 20.4712 22.8099C19.6427 21.3721 19.2527 19.8124 19.2527 18.2771C21.9698 19.849 25.4182 19.9587 28.3425 18.2772C31.2547 16.5836 32.8752 13.5252 32.8874 10.3937Z" fill="url(#paint3_radial_11_41)" stroke="#94FF0B" stroke-width="0.25" stroke-miterlimit="10"/>
<path d="M19.2532 33.9953C17.9129 34.7751 16.3655 35.2016 14.7206 35.2138C9.70048 35.2138 5.63081 31.1441 5.64299 26.1362C5.64299 21.1161 9.71267 17.0465 14.7206 17.0587C16.3777 17.0587 17.9251 17.5095 19.2532 18.2771C16.536 19.8489 14.7205 22.7854 14.7205 26.1484C14.7205 29.487 16.536 32.4235 19.2532 33.9953Z" fill="url(#paint4_radial_11_41)" stroke="#94FF0B" stroke-width="0.25" stroke-miterlimit="10"/>
<path d="M32.8754 26.124C32.8754 27.6592 32.4733 29.231 31.6569 30.6566C29.1469 34.9944 23.6029 36.4931 19.2407 33.9831C14.903 31.473 13.4043 25.929 15.9144 21.5669C16.7429 20.1291 17.9005 19.0203 19.2408 18.2405C19.2408 21.3842 20.8735 24.4303 23.7856 26.0996C26.7099 27.8054 30.1704 27.6836 32.8754 26.124Z" fill="url(#paint5_radial_11_41)" stroke="#94FF0B" stroke-width="0.25" stroke-miterlimit="10"/>
</g>
<defs>
<radialGradient id="paint0_radial_11_41" cx="0" cy="0" r="1" gradientUnits="userSpaceOnUse" gradientTransform="translate(9.23114 17.3096) rotate(45) scale(7.75378 9.08928)">
<stop stop-color="#94FF0B" stop-opacity="0"/>
<stop offset="0.697925" stop-color="#94FF0B" stop-opacity="0.604171"/>
<stop offset="1" stop-color="#94FF0B"/>
</radialGradient>
<radialGradient id="paint1_radial_11_41" cx="0" cy="0" r="1" gradientUnits="userSpaceOnUse" gradientTransform="translate(24.0225 10.3813) rotate(45) scale(8.92169 8.92171)">
<stop stop-color="#94FF0B" stop-opacity="0"/>
<stop offset="0.697925" stop-color="#94FF0B" stop-opacity="0.604171"/>
<stop offset="1" stop-color="#94FF0B"/>
</radialGradient>
<radialGradient id="paint2_radial_11_41" cx="0" cy="0" r="1" gradientUnits="userSpaceOnUse" gradientTransform="translate(15.6636 9.44968) rotate(45) scale(9.08981 7.75435)">
<stop stop-color="#94FF0B" stop-opacity="0"/>
<stop offset="0.697925" stop-color="#94FF0B" stop-opacity="0.604171"/>
<stop offset="1" stop-color="#94FF0B"/>
</radialGradient>
<radialGradient id="paint3_radial_11_41" cx="0" cy="0" r="1" gradientUnits="userSpaceOnUse" gradientTransform="translate(29.2868 19.2085) rotate(45) scale(7.75378 9.08928)">
<stop stop-color="#94FF0B" stop-opacity="0"/>
<stop offset="0.697925" stop-color="#94FF0B" stop-opacity="0.604171"/>
<stop offset="1" stop-color="#94FF0B"/>
</radialGradient>
<radialGradient id="paint4_radial_11_41" cx="0" cy="0" r="1" gradientUnits="userSpaceOnUse" gradientTransform="translate(14.4951 26.1362) rotate(45) scale(8.92169 8.92171)">
<stop stop-color="#94FF0B" stop-opacity="0"/>
<stop offset="0.697925" stop-color="#94FF0B" stop-opacity="0.604171"/>
<stop offset="1" stop-color="#94FF0B"/>
</radialGradient>
<radialGradient id="paint5_radial_11_41" cx="0" cy="0" r="1" gradientUnits="userSpaceOnUse" gradientTransform="translate(22.8413 27.0561) rotate(45) scale(9.08981 7.75435)">
<stop stop-color="#94FF0B" stop-opacity="0"/>
<stop offset="0.697925" stop-color="#94FF0B" stop-opacity="0.604171"/>
<stop offset="1" stop-color="#94FF0B"/>
</radialGradient>
<clipPath id="clip0_11_41">
<rect width="118" height="36" fill="white"/>
</clipPath>
</defs>
</svg>
