<svg xmlns="http://www.w3.org/2000/svg" viewBox="96 340 760 760" role="img" aria-labelledby="neyon-symbol-title">
  <title id="neyon-symbol-title">NEYON AI symbol</title>
  <rect x="96" y="340" width="760" height="760" rx="130" ry="130" fill="#ffffff"/>
  <path fill="#000000" fill-rule="evenodd" d="m142.352 502.90622c1.4806061 -0.87838745 2.9920654 -2.4717712 4.4726715 -2.4921875c25.355392 -0.18383789 50.679947 -0.28598022 76.0045 -0.02041626c2.282608 0.02041626 5.3672028 2.0836182 6.6935883 4.14682c28.285767 43.531464 56.386444 87.22635 84.518005 130.8804c33.03604 51.293945 66.102936 102.567566 99.10812 153.88196c3.9791565 6.1691895 7.7115173 12.522217 11.628937 18.732239c1.1721497 1.838501 2.6219177 3.493103 5.0895996 6.6798706c0.43185425 -3.493164 0.80200195 -5.0456543 0.80200195 -6.577759c-0.21594238 -100.83118 -0.46270752 -201.64197 -0.8328552 -302.45276c0 -4.2898254 1.0796204 -5.3520813 5.2438354 -5.3316345c96.51706 0.122558594 193.00333 0.14297485 289.52042 0.040863037c4.7194214 0 7.3721924 1.3686523 9.778137 5.7810364c10.919495 19.896576 22.33252 39.52762 33.00525 59.812347c-15.268799 0.6741333 -30.044006 0.8171387 -44.819214 0.8375244c-33.252014 0.040893555 -66.53479 0 -99.786804 0.020446777c-23.13446 0.020446777 -46.2381 0.061279297 -69.37262 0.122558594c-12.893616 0.04083252 -25.787231 0.081726074 -38.650024 0.40856934c-1.5422974 0.04083252 -5.4288635 -0.87841797 -3.9790955 3.493103c-0.8637085 1.6751099 -2.5293884 3.3501587 -2.5293884 5.0252686c-0.1850586 33.256287 -0.12338257 66.512634 -0.2776184 99.76892c0 4.371582 1.4189148 5.9853516 5.8607483 5.964905c72.21045 -0.14300537 144.45172 -0.081726074 216.66217 -0.38812256c6.354309 -0.020446777 7.711487 2.001892 7.588135 7.966797c-0.30847168 18.098999 -0.21594238 36.23877 0.030822754 54.33777c0.061706543 4.820923 -1.4188843 6.107849 -6.1383057 6.107849c-72.24133 -0.16339111 -144.45178 -0.061279297 -216.66223 -0.18383789c-5.274658 -0.020446777 -7.341339 1.2052612 -7.310486 7.08844c0.24676514 35.176514 0.24676514 70.35303 -0.061676025 105.52954c-0.061706543 6.210022 2.0049744 7.3948364 7.5572815 7.3948364c95.43744 -0.16339111 190.90576 -0.14300537 286.37408 -0.16339111c1.8199463 0 3.6706543 0 6.755249 0c-4.626892 8.29364 -8.72937 15.729309 -12.924438 23.10376c-7.3413696 12.971558 -14.960327 25.80017 -22.05487 38.914795c-3.300537 6.128296 -7.187134 10.029968 -14.559326 8.395752c-1.6040039 -0.347229 -3.3313599 -0.08166504 -5.151245 -0.63323975c3.7323608 -0.93969727 7.6189575 -1.3278198 11.47467 -1.7159424c0 -0.14300537 -0.030822754 -0.30639648 -0.030822754 -0.44940186c-112.8963 0 -225.7926 0 -338.68893 0c0 0.30639648 0 0.612854 0 0.9192505c2.0358582 0 4.071686 0 6.1075134 0c28.686768 0 57.34268 -0.020446777 86.02948 0.081726074c2.3442993 0 4.6885376 0.9192505 7.032837 1.4094849c-32.8201 0.122558594 -65.64023 0.32684326 -98.46036 0.16345215c-2.066681 0 -4.781128 -2.3083496 -6.1075134 -4.289856c-14.466766 -21.918945 -28.779297 -43.96045 -43.03015 -66.02234c-23.751404 -36.68817 -47.41028 -73.39679 -71.13083 -110.08496c-21.65387 -33.501465 -43.30777 -67.02338 -65.02333 -100.48395c-7.24881 -11.17395 -14.744385 -22.204956 -22.517578 -33.889587c-1.8199005 -4.371521 -3.2388153 -2.185791 -3.7940521 -0.28601074c-0.5860748 1.9610596 -0.3701477 4.20813 -0.3701477 6.3325806c0 99.115295 0 198.23059 0 297.36627c0 8.4366455 0 8.457092 -8.0199585 8.457092c-17.9832 0 -35.99727 0 -54.011322 0c-8.328415 0 -8.328415 -0.020446777 -8.328415 -8.783936c0 -138.76544 0 -277.55133 0 -416.31683c0 -1.9201965 0.30845642 -3.9221191 -0.15422058 -5.719757c-0.2467804 -1.1031189 -1.6656952 -1.9406433 -2.5602264 -2.88031z"/>
</svg>
