<svg width="600" height="113" viewBox="0 0 600 113" fill="none" xmlns="http://www.w3.org/2000/svg">
<path d="M33.8404 89.2628C23.4529 89.2628 15.216 86.3201 9.12961 80.4346C3.0432 74.4674 0 65.8845 0 54.6857V34.5771C0 23.3784 3.0432 14.8363 9.12961 8.95081C15.216 2.9836 23.4529 0 33.8404 0C44.0656 0 51.9373 2.86099 57.4557 8.58296C63.0551 14.3049 65.8549 22.1114 65.8549 32.0022V32.7379H52.83V31.6344C52.83 25.8306 51.2475 21.0896 48.0826 17.4112C44.9988 13.7327 40.2514 11.8935 33.8404 11.8935C27.3482 11.8935 22.2762 13.8962 18.6244 17.9016C14.9726 21.8253 13.1466 27.302 13.1466 34.3319V54.931C13.1466 61.8791 14.9726 67.3558 18.6244 71.3612C22.2762 75.3666 27.3482 77.3693 33.8404 77.3693C40.2514 77.3693 44.9988 75.5301 48.0826 71.8517C51.2475 68.0915 52.83 63.3504 52.83 57.6285V55.544H65.8549V57.2606C65.8549 67.1515 63.0551 74.9579 57.4557 80.6799C51.9373 86.4018 44.0656 89.2628 33.8404 89.2628Z" fill="#EDFEFF"/>
<path d="M99.4005 89.2628C95.0994 89.2628 91.2447 88.5271 87.8363 87.0558C84.5091 85.5844 81.8311 83.4182 79.8023 80.5572C77.8546 77.6963 76.8808 74.2222 76.8808 70.1351C76.8808 65.9662 77.8546 62.533 79.8023 59.8355C81.8311 57.0563 84.5497 54.9718 87.9581 53.5822C91.4476 52.1926 95.3835 51.4978 99.7657 51.4978H118.025V47.5741C118.025 44.0592 116.97 41.2391 114.86 39.1138C112.75 36.9885 109.504 35.9258 105.122 35.9258C100.821 35.9258 97.534 36.9476 95.2617 38.9912C92.9895 41.0347 91.4882 43.6914 90.7578 46.9611L79.0719 43.16C80.0457 39.8903 81.5876 36.9476 83.6976 34.3319C85.8887 31.6344 88.7696 29.4682 92.3403 27.8333C95.911 26.1985 100.212 25.3811 105.243 25.3811C113.034 25.3811 119.161 27.3837 123.624 31.3891C128.088 35.3945 130.319 41.0756 130.319 48.4324V73.323C130.319 75.7753 131.456 77.0015 133.728 77.0015H138.84V87.5462H129.467C126.627 87.5462 124.314 86.8105 122.529 85.3392C120.743 83.8678 119.851 81.8651 119.851 79.3311V78.9633H118.025C117.376 80.1894 116.402 81.6199 115.103 83.2548C113.805 84.8896 111.898 86.3201 109.382 87.5462C106.866 88.6906 103.539 89.2628 99.4005 89.2628ZM101.226 78.8407C106.258 78.8407 110.315 77.4102 113.399 74.5492C116.483 71.6064 118.025 67.6011 118.025 62.533V61.3069H100.496C97.1688 61.3069 94.4908 62.0426 92.462 63.5139C90.4332 64.9036 89.4188 66.988 89.4188 69.7672C89.4188 72.5465 90.4738 74.7535 92.5837 76.3884C94.6937 78.0232 97.5746 78.8407 101.226 78.8407Z" fill="#EDFEFF"/>
<path d="M151.031 87.5462V27.0976H163.326V36.1711H165.273C166.41 33.7188 168.438 31.43 171.36 29.3047C174.281 27.1794 178.623 26.1167 184.385 26.1167C188.929 26.1167 192.946 27.1385 196.436 29.1821C200.007 31.2256 202.806 34.1275 204.835 37.8877C206.864 41.5661 207.878 46.021 207.878 51.2526V87.5462H195.34V52.2335C195.34 47.0019 194.042 43.16 191.445 40.7078C188.848 38.1738 185.277 36.9067 180.733 36.9067C175.539 36.9067 171.36 38.6233 168.195 42.0565C165.111 45.4897 163.569 50.476 163.569 57.0154V87.5462H151.031Z" fill="#EDFEFF"/>
<path d="M300.814 87.5462V27.0976H313.108V36.1711H315.056C316.192 33.7188 318.221 31.43 321.142 29.3047C324.064 27.1794 328.406 26.1167 334.167 26.1167C338.712 26.1167 342.729 27.1385 346.218 29.1821C349.789 31.2256 352.589 34.1275 354.618 37.8877C356.646 41.5661 357.661 46.021 357.661 51.2526V87.5462H345.123V52.2335C345.123 47.0019 343.824 43.16 341.228 40.7078C338.631 38.1738 335.06 36.9067 330.516 36.9067C325.322 36.9067 321.142 38.6233 317.978 42.0565C314.894 45.4897 313.352 50.476 313.352 57.0154V87.5462H300.814Z" fill="#EDFEFF"/>
<path d="M375.705 87.5462V27.0976H388.243V87.5462H375.705ZM382.035 18.8825C379.6 18.8825 377.531 18.106 375.827 16.5529C374.204 14.918 373.392 12.8336 373.392 10.2996C373.392 7.76554 374.204 5.72198 375.827 4.16887C377.531 2.53402 379.6 1.71659 382.035 1.71659C384.551 1.71659 386.62 2.53402 388.243 4.16887C389.866 5.72198 390.678 7.76554 390.678 10.2996C390.678 12.8336 389.866 14.918 388.243 16.5529C386.62 18.106 384.551 18.8825 382.035 18.8825Z" fill="#EDFEFF"/>
<path d="M434.726 89.2628C428.964 89.2628 423.73 88.0367 419.023 85.5844C414.398 83.1321 410.705 79.5763 407.946 74.917C405.268 70.2577 403.929 64.6583 403.929 58.1189V56.5249C403.929 49.9856 405.268 44.4271 407.946 39.8495C410.705 35.1902 414.398 31.6344 419.023 29.1821C423.73 26.6481 428.964 25.3811 434.726 25.3811C440.488 25.3811 445.398 26.4437 449.455 28.569C453.513 30.6943 456.759 33.5144 459.194 37.0294C461.709 40.5443 463.332 44.4271 464.063 48.6777L451.89 51.2526C451.484 48.5551 450.632 46.1028 449.334 43.8957C448.035 41.6887 446.209 39.9312 443.856 38.6233C441.502 37.3155 438.54 36.6615 434.97 36.6615C431.48 36.6615 428.315 37.4789 425.475 39.1138C422.716 40.6669 420.525 42.9557 418.902 45.9802C417.278 48.9229 416.467 52.5196 416.467 56.7702V57.8737C416.467 62.1243 417.278 65.7618 418.902 68.7863C420.525 71.8108 422.716 74.0996 425.475 75.6527C428.315 77.2058 431.48 77.9824 434.97 77.9824C440.244 77.9824 444.262 76.6336 447.021 73.9361C449.78 71.1569 451.525 67.6419 452.255 63.3913L464.428 66.2114C463.454 70.3803 461.709 74.2222 459.194 77.7371C456.759 81.2521 453.513 84.0722 449.455 86.1975C445.398 88.241 440.488 89.2628 434.726 89.2628Z" fill="#EDFEFF"/>
<path d="M497.513 89.2628C493.212 89.2628 489.357 88.5271 485.949 87.0558C482.622 85.5844 479.944 83.4182 477.915 80.5572C475.967 77.6963 474.993 74.2222 474.993 70.1351C474.993 65.9662 475.967 62.533 477.915 59.8355C479.944 57.0563 482.662 54.9718 486.071 53.5822C489.56 52.1926 493.496 51.4978 497.878 51.4978H516.138V47.5741C516.138 44.0592 515.083 41.2391 512.973 39.1138C510.863 36.9885 507.617 35.9258 503.234 35.9258C498.933 35.9258 495.647 36.9476 493.374 38.9912C491.102 41.0347 489.601 43.6914 488.87 46.9611L477.185 43.16C478.158 39.8903 479.7 36.9476 481.81 34.3319C484.001 31.6344 486.882 29.4682 490.453 27.8333C494.024 26.1985 498.325 25.3811 503.356 25.3811C511.147 25.3811 517.274 27.3837 521.737 31.3891C526.2 35.3945 528.432 41.0756 528.432 48.4324V73.323C528.432 75.7753 529.568 77.0015 531.84 77.0015H536.953V87.5462H527.58C524.74 87.5462 522.427 86.8105 520.641 85.3392C518.856 83.8678 517.963 81.8651 517.963 79.3311V78.9633H516.138C515.488 80.1894 514.515 81.6199 513.216 83.2548C511.918 84.8896 510.011 86.3201 507.495 87.5462C504.979 88.6906 501.652 89.2628 497.513 89.2628ZM499.339 78.8407C504.37 78.8407 508.428 77.4102 511.512 74.5492C514.596 71.6064 516.138 67.6011 516.138 62.533V61.3069H498.609C495.281 61.3069 492.603 62.0426 490.575 63.5139C488.546 64.9036 487.531 66.988 487.531 69.7672C487.531 72.5465 488.586 74.7535 490.696 76.3884C492.806 78.0232 495.687 78.8407 499.339 78.8407Z" fill="#EDFEFF"/>
<path d="M549.144 87.5462V1.71659H561.682V87.5462H549.144Z" fill="#EDFEFF"/>
<path d="M252.706 22.4136L250.694 22.5658L256.854 55.2184L252.706 22.4136Z" fill="#EDFEFF"/>
<path d="M257.292 22.5475L255.28 22.4236L256.935 55.6107L257.292 22.5475Z" fill="#EDFEFF"/>
<path d="M261.825 23.3054L259.846 22.9089L256.965 56.0111L261.825 23.3054Z" fill="#EDFEFF"/>
<path d="M266.213 24.6744L264.305 24.0125L256.943 56.4137L266.213 24.6744Z" fill="#EDFEFF"/>
<path d="M270.369 26.6273L268.571 25.7104L256.863 56.8072L270.369 26.6273Z" fill="#EDFEFF"/>
<path d="M274.219 29.13L272.563 27.9778L256.73 57.1895L274.219 29.13Z" fill="#EDFEFF"/>
<path d="M277.702 32.1331L276.217 30.7649L256.553 57.5464L277.702 32.1331Z" fill="#EDFEFF"/>
<path d="M280.737 35.583L279.454 34.0254L256.325 57.8776L280.737 35.583Z" fill="#EDFEFF"/>
<path d="M283.272 39.412L282.212 37.6934L256.05 58.172L283.272 39.412Z" fill="#EDFEFF"/>
<path d="M285.266 43.5517L284.45 41.7056L255.743 58.4283L285.266 43.5517Z" fill="#EDFEFF"/>
<path d="M286.677 47.9231L286.121 45.9836L255.402 58.636L286.677 47.9231Z" fill="#EDFEFF"/>
<path d="M287.467 52.447L287.18 50.4509L255.024 58.7997L287.467 52.447Z" fill="#EDFEFF"/>
<path d="M287.643 57.0393L287.631 55.022L254.638 58.9132L287.643 57.0393Z" fill="#EDFEFF"/>
<path d="M287.2 61.6104L287.464 59.6108L254.248 58.9702L287.2 61.6104Z" fill="#EDFEFF"/>
<path d="M286.129 66.0792L286.662 64.1327L253.844 58.9727L286.129 66.0792Z" fill="#EDFEFF"/>
<path d="M284.458 70.3575L285.251 68.5031L253.441 58.9209L284.458 70.3575Z" fill="#EDFEFF"/>
<path d="M282.223 74.3738L283.26 72.6428L253.053 58.814L282.223 74.3738Z" fill="#EDFEFF"/>
<path d="M279.462 78.0483L280.727 76.4748L252.684 58.6582L279.462 78.0483Z" fill="#EDFEFF"/>
<path d="M276.224 81.3067L277.691 79.9208L252.336 58.4492L276.224 81.3067Z" fill="#EDFEFF"/>
<path d="M272.577 84.0968L274.219 82.9233L252.026 58.1985L272.577 84.0968Z" fill="#EDFEFF"/>
<path d="M268.585 86.3633L270.37 85.4252L251.752 57.9038L268.585 86.3633Z" fill="#EDFEFF"/>
<path d="M264.318 88.0652L266.217 87.3785L251.521 57.5791L264.318 88.0652Z" fill="#EDFEFF"/>
<path d="M259.855 89.168L261.828 88.7468L251.327 57.2217L259.855 89.168Z" fill="#EDFEFF"/>
<path d="M255.293 89.6551L257.307 89.5064L251.198 56.845L255.293 89.6551Z" fill="#EDFEFF"/>
<path d="M250.7 89.5116L252.712 89.6391L251.112 56.4502L250.7 89.5116Z" fill="#EDFEFF"/>
<path d="M246.161 88.7484L248.14 89.1484L251.074 56.0498L246.161 88.7484Z" fill="#EDFEFF"/>
<path d="M241.793 87.3735L243.697 88.039L251.112 55.6484L241.793 87.3735Z" fill="#EDFEFF"/>
<path d="M237.627 85.4121L239.423 86.3325L251.181 55.2534L237.627 85.4121Z" fill="#EDFEFF"/>
<path d="M233.785 82.9052L235.44 84.061L251.32 54.874L233.785 82.9052Z" fill="#EDFEFF"/>
<path d="M230.314 79.8973L231.797 81.2673L251.504 54.5176L230.314 79.8973Z" fill="#EDFEFF"/>
<path d="M227.285 76.444L228.566 78.0034L251.734 54.1865L227.285 76.444Z" fill="#EDFEFF"/>
<path d="M224.752 72.6077L225.811 74.3281L252.007 53.8901L224.752 72.6077Z" fill="#EDFEFF"/>
<path d="M222.768 68.4656L223.58 70.3135L252.316 53.6367L222.768 68.4656Z" fill="#EDFEFF"/>
<path d="M221.36 64.0857L221.912 66.0269L252.652 53.4241L221.36 64.0857Z" fill="#EDFEFF"/>
<path d="M220.574 59.5631L220.857 61.5609L253.027 53.2617L220.574 59.5631Z" fill="#EDFEFF"/>
<path d="M220.402 54.9722L220.411 56.9895L253.411 53.1514L220.402 54.9722Z" fill="#EDFEFF"/>
<path d="M220.861 50.4023L220.594 52.4019L253.81 53.0956L220.861 50.4023Z" fill="#EDFEFF"/>
<path d="M221.938 45.9353L221.402 47.8818L254.213 53.0932L221.938 45.9353Z" fill="#EDFEFF"/>
<path d="M223.614 41.6562L222.817 43.5107L254.614 53.1442L223.614 41.6562Z" fill="#EDFEFF"/>
<path d="M225.85 37.6479L224.808 39.3772L254.996 53.2538L225.85 37.6479Z" fill="#EDFEFF"/>
<path d="M228.619 33.98L227.352 35.55L255.367 53.4108L228.619 33.98Z" fill="#EDFEFF"/>
<path d="M231.861 30.7229L230.391 32.107L255.712 53.6193L231.861 30.7229Z" fill="#EDFEFF"/>
<path d="M235.513 27.9395L233.869 29.1094L256.023 53.8714L235.513 27.9395Z" fill="#EDFEFF"/>
<path d="M239.511 25.6785L237.724 26.6148L256.299 54.1645L239.511 25.6785Z" fill="#EDFEFF"/>
<path d="M243.779 23.9868L241.88 24.67L256.531 54.4942L243.779 23.9868Z" fill="#EDFEFF"/>
<path d="M248.242 22.8877L246.267 23.3054L256.719 54.8482L248.242 22.8877Z" fill="#EDFEFF"/>
</svg>
