<svg id="svg" version="1.1" xmlns="http://www.w3.org/2000/svg" xmlns:xlink="http://www.w3.org/1999/xlink" width="400" height="430.6666666666667" viewBox="0, 0, 400,430.6666666666667"><g id="svgg"><path id="path0" d="M184.229 0.460 C 182.044 0.652,180.211 0.856,180.154 0.913 C 180.097 0.970,188.052 46.635,197.831 102.391 C 207.610 158.148,215.564 203.905,215.506 204.073 C 215.448 204.242,204.262 159.159,190.650 103.890 C 177.037 48.620,165.787 3.287,165.650 3.148 C 165.426 2.923,154.116 5.325,153.823 5.661 C 153.757 5.738,167.347 50.077,184.023 104.194 C 200.700 158.311,214.296 202.638,214.236 202.697 C 214.176 202.757,197.332 159.560,176.805 106.703 C 156.277 53.846,139.353 10.453,139.195 10.274 C 138.934 9.978,128.565 13.715,127.928 14.335 C 127.778 14.481,146.808 56.530,170.216 107.778 C 193.624 159.026,212.737 200.996,212.688 201.044 C 212.640 201.092,190.460 160.720,163.401 111.328 C 136.341 61.937,114.087 21.341,113.948 21.116 C 113.798 20.873,111.478 21.957,108.256 23.775 L 102.818 26.845 103.879 28.522 C 104.841 30.046,209.245 196.591,210.998 199.400 C 212.889 202.430,207.298 194.870,150.427 117.487 L 89.931 35.174 88.204 36.487 C 87.254 37.209,85.026 38.880,83.253 40.200 C 81.479 41.520,80.067 42.732,80.114 42.893 C 80.161 43.055,108.820 77.582,143.800 119.621 C 178.780 161.659,207.743 196.537,208.162 197.127 C 209.402 198.875,206.279 195.669,135.842 122.900 C 98.735 84.565,68.216 53.200,68.021 53.200 C 67.598 53.200,59.600 61.628,59.600 62.074 C 59.600 62.244,92.718 92.647,133.196 129.636 C 173.673 166.626,206.692 197.051,206.570 197.248 C 206.449 197.445,206.586 197.677,206.875 197.764 C 207.164 197.852,207.760 198.060,208.200 198.227 C 208.640 198.394,209.090 198.549,209.200 198.571 C 209.567 198.645,213.200 202.485,213.200 202.798 C 213.200 202.968,213.583 203.207,214.052 203.329 C 214.603 203.474,214.823 203.763,214.674 204.150 C 214.548 204.479,214.570 204.805,214.722 204.874 C 215.141 205.064,216.400 207.584,216.400 208.232 C 216.400 208.545,216.567 208.800,216.771 208.800 C 216.975 208.800,217.260 209.835,217.404 211.100 C 217.548 212.365,217.760 213.738,217.876 214.150 C 218.010 214.630,217.928 214.803,217.647 214.629 C 217.373 214.460,217.298 214.590,217.446 214.977 C 217.577 215.317,217.845 215.496,218.042 215.374 C 218.239 215.252,218.400 215.343,218.400 215.576 C 218.400 215.809,218.259 216.000,218.086 216.000 C 217.913 216.000,217.751 216.315,217.726 216.700 C 217.623 218.268,217.242 219.974,216.815 220.771 C 216.567 221.236,216.464 221.780,216.588 221.981 C 216.712 222.181,216.618 222.465,216.379 222.613 C 216.141 222.760,216.035 223.114,216.144 223.398 C 216.253 223.682,215.901 224.330,215.361 224.837 C 214.322 225.813,212.948 228.203,213.689 227.745 C 213.957 227.579,214.008 227.664,213.821 227.965 C 213.655 228.234,213.258 228.354,212.939 228.232 C 212.620 228.109,212.463 228.178,212.590 228.385 C 212.718 228.591,212.412 228.973,211.911 229.234 C 210.469 229.985,209.533 231.098,210.112 231.375 C 210.380 231.504,210.195 231.534,209.699 231.442 C 209.204 231.350,208.900 231.438,209.023 231.637 C 209.146 231.837,208.889 232.000,208.452 232.000 C 208.015 232.000,207.387 232.270,207.057 232.600 C 206.727 232.930,205.964 233.200,205.362 233.200 C 204.760 233.200,204.365 233.299,204.486 233.419 C 204.700 233.633,394.947 222.197,398.300 221.768 L 400.000 221.551 400.000 214.985 L 400.000 208.420 398.900 208.615 C 397.064 208.941,208.346 232.802,207.856 232.770 C 207.605 232.754,250.410 223.665,302.978 212.572 C 355.546 201.480,398.677 192.268,398.825 192.102 C 399.032 191.869,397.683 179.740,397.402 179.303 C 397.367 179.249,355.433 190.909,304.214 205.214 C 252.995 219.519,211.032 231.165,210.961 231.094 C 210.891 231.024,252.091 215.776,302.516 197.211 C 352.942 178.645,394.248 163.425,394.306 163.388 C 394.516 163.256,391.062 150.800,390.815 150.800 C 390.675 150.800,350.351 168.616,301.204 190.390 C 252.058 212.165,211.811 229.940,211.768 229.890 C 211.724 229.841,250.735 208.650,298.459 182.800 C 346.183 156.950,385.408 135.696,385.626 135.569 C 386.089 135.300,381.630 123.989,380.959 123.730 C 380.649 123.610,226.711 219.673,215.215 227.159 C 210.529 230.211,225.155 219.278,294.358 168.000 C 338.152 135.550,373.987 108.881,373.991 108.737 C 373.998 108.529,368.179 98.145,367.798 97.685 C 367.745 97.621,333.344 126.485,291.351 161.827 C 245.583 200.346,216.442 224.618,218.600 222.421 C 220.580 220.405,253.005 188.496,290.654 151.512 L 359.109 84.267 355.417 79.454 C 353.386 76.807,351.559 74.586,351.355 74.518 C 351.152 74.451,320.749 107.945,283.793 148.950 C 246.837 189.954,216.547 223.457,216.482 223.400 C 216.416 223.343,244.361 187.108,278.582 142.878 C 312.802 98.647,340.800 62.282,340.800 62.066 C 340.800 61.537,332.347 53.551,331.935 53.690 C 331.756 53.750,305.937 91.420,274.560 137.400 C 221.728 214.820,215.234 224.265,217.489 220.400 C 217.938 219.630,240.043 181.470,266.612 135.600 C 293.181 89.730,316.133 50.110,317.616 47.555 L 320.313 42.911 315.321 39.189 C 312.301 36.937,310.225 35.637,310.064 35.896 C 309.918 36.132,289.201 77.199,264.025 127.155 C 238.850 177.112,218.195 217.929,218.127 217.860 C 218.058 217.791,235.756 175.090,257.456 122.968 C 279.156 70.845,296.930 27.867,296.955 27.461 C 297.008 26.595,286.960 20.852,286.434 21.448 C 286.263 21.641,270.933 65.232,252.367 118.315 C 233.800 171.398,218.565 214.688,218.509 214.515 C 218.453 214.342,230.613 169.290,245.531 114.400 C 260.449 59.510,272.615 14.543,272.568 14.474 C 272.328 14.123,261.177 10.119,261.056 10.341 C 260.979 10.483,251.314 56.089,239.579 111.688 C 227.844 167.286,218.185 212.718,218.115 212.648 C 218.045 212.578,224.409 166.037,232.257 109.223 C 242.136 37.713,246.393 5.843,246.092 5.657 C 245.486 5.283,234.835 3.030,234.637 3.234 C 234.549 3.325,230.724 49.836,226.138 106.592 C 220.110 181.194,217.768 208.623,217.684 205.592 C 217.620 203.286,218.028 156.328,218.590 101.240 C 219.153 46.152,219.536 1.002,219.441 0.908 C 219.219 0.685,207.601 -0.141,207.435 0.053 C 207.366 0.134,209.443 45.920,212.052 101.800 C 214.661 157.680,216.752 204.120,216.698 205.000 C 216.644 205.880,211.221 160.790,204.646 104.800 C 198.072 48.810,192.603 2.325,192.494 1.500 L 192.295 0.000 190.247 0.055 C 189.121 0.085,186.413 0.267,184.229 0.460 M44.868 79.051 C 42.816 81.811,41.196 84.117,41.268 84.175 C 41.341 84.233,77.982 109.359,122.694 140.012 C 167.406 170.665,203.929 195.804,203.857 195.877 C 203.784 195.949,165.402 173.932,118.562 146.949 C 71.723 119.967,33.130 97.817,32.800 97.728 C 32.311 97.595,25.729 108.342,26.121 108.634 C 26.164 108.666,65.800 128.263,114.200 152.182 C 162.600 176.101,202.324 195.889,202.475 196.154 C 202.625 196.420,203.255 196.624,203.875 196.608 C 204.494 196.592,205.113 196.737,205.250 196.932 C 205.394 197.136,205.594 197.133,205.722 196.926 C 205.924 196.600,50.165 74.565,49.070 74.192 C 48.812 74.104,46.921 76.290,44.868 79.051 M16.617 129.043 C 15.125 132.790,14.443 134.978,14.716 135.143 C 14.950 135.284,56.550 148.890,107.160 165.377 C 157.771 181.864,199.116 195.417,199.039 195.495 C 198.961 195.572,156.195 185.449,104.002 172.998 C 51.809 160.547,9.067 150.414,9.019 150.480 C 8.750 150.851,5.797 163.198,5.980 163.186 C 6.539 163.152,197.150 195.783,197.039 195.894 C 196.970 195.964,153.912 192.246,101.356 187.634 C 48.800 183.021,5.080 179.191,4.200 179.123 L 2.600 179.000 1.820 185.287 C 1.392 188.745,1.145 191.678,1.272 191.805 C 1.399 191.932,45.024 193.017,98.216 194.216 C 151.408 195.414,194.975 196.441,195.031 196.498 C 195.138 196.605,1.935 208.062,0.700 208.023 C 0.061 208.002,0.000 208.572,0.000 214.600 C 0.000 220.949,0.031 221.200,0.806 221.200 C 1.249 221.200,44.121 215.886,96.077 209.390 C 148.033 202.895,190.699 197.633,190.890 197.697 C 191.081 197.760,148.704 206.687,96.719 217.532 C -12.456 240.310,0.699 237.397,0.959 238.735 C 1.074 239.321,1.471 242.185,1.842 245.100 C 2.332 248.947,2.665 250.400,3.057 250.400 C 3.354 250.400,45.484 238.776,96.679 224.569 C 147.874 210.362,190.130 198.714,190.581 198.684 C 191.503 198.622,192.492 197.825,192.114 197.448 C 191.978 197.311,192.177 197.200,192.557 197.200 C 192.947 197.200,193.132 197.387,192.982 197.630 C 192.798 197.926,192.946 197.941,193.458 197.676 C 195.733 196.502,196.622 196.279,199.163 196.241 C 200.701 196.219,201.834 196.077,201.680 195.926 C 201.349 195.603,19.752 123.200,19.272 123.200 C 19.091 123.200,17.897 125.829,16.617 129.043 M97.426 232.829 C 47.060 251.302,5.783 266.484,5.698 266.569 C 5.538 266.729,8.638 278.771,8.909 279.043 C 8.995 279.128,49.265 261.469,98.400 239.800 C 147.535 218.131,187.785 200.451,187.844 200.511 C 187.904 200.571,148.814 221.747,100.977 247.569 C 53.139 273.392,14.000 294.579,14.000 294.653 C 14.000 294.948,18.092 305.020,18.530 305.803 C 18.978 306.603,22.950 304.175,101.800 254.908 C 192.432 198.280,186.409 202.015,185.703 202.871 C 185.430 203.203,185.340 203.621,185.503 203.801 C 185.667 203.981,185.579 204.001,185.309 203.846 C 184.779 203.542,26.000 320.592,26.000 321.287 C 26.000 322.763,32.148 332.391,32.754 331.863 C 33.467 331.241,182.797 205.996,184.400 204.676 C 186.504 202.943,170.467 218.727,106.698 281.155 L 40.796 345.671 41.556 346.735 C 44.252 350.513,48.503 355.769,48.730 355.605 C 48.879 355.498,78.857 322.378,115.349 282.005 C 151.841 241.632,182.158 208.150,182.722 207.600 C 184.405 205.957,184.306 206.085,120.450 288.400 C 86.915 331.630,59.331 367.190,59.154 367.422 C 58.957 367.679,60.583 369.590,63.316 372.314 L 67.800 376.783 125.000 293.238 C 156.460 247.289,182.262 209.750,182.338 209.818 C 182.414 209.887,159.329 249.744,131.038 298.390 C 102.747 347.036,79.600 386.914,79.600 387.006 C 79.600 387.808,89.379 394.442,89.762 393.900 C 90.003 393.560,110.810 352.513,136.000 302.684 C 161.190 252.855,181.854 212.136,181.920 212.196 C 181.985 212.256,164.185 255.032,142.364 307.253 C 120.543 359.474,102.669 402.435,102.644 402.723 C 102.595 403.309,112.869 409.263,113.231 408.858 C 113.359 408.716,128.839 364.834,147.631 311.342 C 166.424 257.850,181.933 214.164,182.095 214.263 C 182.258 214.361,182.289 214.176,182.165 213.852 C 182.040 213.528,182.150 212.867,182.409 212.383 C 182.727 211.789,182.737 211.592,182.440 211.775 C 182.198 211.925,182.000 211.876,182.000 211.666 C 182.000 211.457,182.278 211.179,182.617 211.049 C 183.090 210.867,183.139 210.633,182.826 210.049 C 182.512 209.462,182.603 209.050,183.217 208.269 C 183.657 207.709,183.968 207.015,183.909 206.726 C 183.849 206.436,184.070 206.260,184.400 206.333 C 184.730 206.407,184.872 206.339,184.716 206.182 C 184.559 206.026,184.942 205.156,185.566 204.249 C 186.190 203.342,186.723 202.465,186.750 202.300 C 186.778 202.135,186.935 201.973,187.100 201.940 C 187.610 201.837,188.341 200.628,188.114 200.262 C 187.996 200.071,188.305 200.043,188.800 200.200 C 189.375 200.382,189.609 200.338,189.448 200.077 C 189.309 199.852,189.421 199.577,189.698 199.466 C 190.039 199.328,190.008 199.260,189.600 199.253 C 189.270 199.248,147.792 214.357,97.426 232.829 M181.806 215.300 C 181.427 216.418,127.200 415.279,127.206 415.529 C 127.211 415.808,138.422 420.114,138.617 419.913 C 138.677 419.851,148.328 374.659,160.063 319.487 C 171.798 264.315,181.451 219.412,181.513 219.703 C 181.575 219.994,175.230 266.013,167.413 321.968 C 159.596 377.923,153.200 423.910,153.200 424.161 C 153.200 424.529,164.779 427.347,165.080 427.052 C 165.124 427.009,169.020 380.360,173.738 323.387 C 181.369 231.238,182.320 220.573,182.347 226.800 C 182.364 230.650,181.856 277.720,181.219 331.400 C 180.582 385.080,180.182 429.117,180.330 429.260 C 180.562 429.483,192.066 430.435,192.277 430.248 C 192.319 430.211,190.290 384.284,187.769 328.190 C 185.247 272.095,183.233 225.570,183.292 224.800 C 183.351 224.030,188.786 269.930,195.369 326.800 C 201.952 383.670,207.368 430.247,207.406 430.304 C 207.574 430.559,219.600 429.439,219.600 429.168 C 219.600 429.002,211.676 383.285,201.992 327.575 C 192.307 271.864,184.438 226.228,184.506 226.161 C 184.573 226.094,195.847 271.255,209.560 326.519 C 223.273 381.784,234.547 427.061,234.614 427.135 C 234.681 427.209,237.375 426.674,240.600 425.946 C 246.406 424.635,246.462 424.612,246.254 423.611 C 246.138 423.055,232.530 378.969,216.012 325.643 C 199.494 272.317,186.044 228.623,186.122 228.545 C 186.200 228.467,203.079 271.510,223.632 324.197 C 244.184 376.883,261.180 419.993,261.400 419.997 C 263.157 420.028,272.449 415.784,272.278 415.029 C 272.175 414.573,253.339 373.340,230.421 323.400 C 184.737 223.852,187.012 228.835,187.512 229.400 C 187.706 229.620,209.966 270.030,236.978 319.200 C 263.990 368.370,286.235 408.755,286.410 408.944 C 286.733 409.293,297.200 403.640,297.200 403.117 C 297.200 402.961,273.057 364.445,243.550 317.526 C 182.198 219.972,188.539 230.088,189.064 230.600 C 189.391 230.919,309.121 393.133,310.054 394.521 C 310.320 394.916,320.000 387.725,320.000 387.133 C 320.000 386.843,279.861 338.628,208.914 253.700 C 198.944 241.765,190.865 232.000,190.960 232.000 C 191.091 232.000,308.274 352.484,328.486 373.400 L 331.965 377.000 336.477 372.503 L 340.990 368.005 339.795 366.857 C 339.138 366.225,306.200 336.229,266.600 300.199 C 191.397 231.776,192.610 232.886,193.640 233.450 C 193.991 233.642,229.510 261.250,272.569 294.800 C 315.629 328.350,351.005 355.853,351.184 355.918 C 351.487 356.028,358.791 346.479,358.797 345.964 C 358.799 345.835,322.356 320.824,277.814 290.384 C 233.272 259.944,196.899 234.968,196.985 234.881 C 197.072 234.795,235.541 256.757,282.471 283.686 L 367.800 332.648 370.900 327.061 C 372.605 323.988,374.000 321.439,374.000 321.397 C 374.000 321.354,334.584 301.909,286.409 278.184 C 238.234 254.460,198.885 234.981,198.968 234.899 C 199.051 234.816,240.017 250.969,290.004 270.796 C 339.992 290.622,380.963 306.770,381.052 306.681 C 381.142 306.592,382.277 303.883,383.575 300.662 L 385.935 294.806 379.268 292.662 C 340.353 280.151,200.153 234.612,200.000 234.434 C 199.671 234.050,198.390 234.060,198.628 234.445 C 198.749 234.640,198.676 234.800,198.466 234.800 C 198.257 234.800,197.963 234.485,197.814 234.100 C 197.560 233.445,197.507 233.448,196.984 234.159 C 196.405 234.945,194.921 234.374,195.425 233.559 C 195.544 233.367,195.333 233.328,194.955 233.473 C 194.532 233.635,194.367 233.578,194.524 233.323 C 194.674 233.080,194.385 232.929,193.820 232.955 C 193.293 232.980,192.859 232.842,192.856 232.649 C 192.850 232.298,191.776 231.586,190.115 230.833 C 188.932 230.296,186.000 227.246,186.000 226.552 C 186.000 226.248,185.833 226.000,185.629 226.000 C 185.134 226.000,183.954 223.598,184.230 223.151 C 184.349 222.958,184.257 222.800,184.024 222.800 C 183.791 222.800,183.600 222.530,183.600 222.200 C 183.600 221.870,183.437 221.600,183.238 221.600 C 182.865 221.600,182.405 218.950,182.319 216.300 C 182.269 214.755,182.101 214.427,181.806 215.300 M202.200 234.059 C 202.797 234.325,202.645 234.368,201.600 234.230 C 197.352 233.668,209.787 236.675,295.800 257.011 C 347.500 269.235,390.091 279.323,390.448 279.429 C 390.983 279.587,391.372 278.517,392.690 273.251 L 394.284 266.882 391.042 266.296 C 389.259 265.973,346.360 258.710,295.711 250.155 C 245.062 241.600,203.802 234.538,204.022 234.463 C 204.241 234.388,247.796 238.063,300.810 242.631 C 353.823 247.198,397.275 250.858,397.369 250.764 C 397.463 250.670,397.877 247.805,398.289 244.397 L 399.038 238.200 396.019 237.912 C 394.359 237.754,351.510 236.810,300.800 235.815 C 250.090 234.820,206.980 233.938,205.000 233.855 C 202.686 233.757,201.686 233.830,202.200 234.059 " stroke="none" fill="#0c1434" fill-rule="evenodd"></path><path id="path1" d="" stroke="none" fill="#101434" fill-rule="evenodd"></path><path id="path2" d="" stroke="none" fill="#101434" fill-rule="evenodd"></path><path id="path3" d="" stroke="none" fill="#101434" fill-rule="evenodd"></path><path id="path4" d="" stroke="none" fill="#101434" fill-rule="evenodd"></path></g></svg>