<svg width="268" height="30" viewBox="0 0 268 30" fill="none" xmlns="http://www.w3.org/2000/svg">
<path d="M9.05882 23.895C6.27817 23.895 4.07321 23.1072 2.44393 21.5317C0.814642 19.9344 0 17.6368 0 14.639V9.25602C0 6.25821 0.814642 3.97155 2.44393 2.39606C4.07321 0.798687 6.27817 0 9.05882 0C11.796 0 13.9032 0.765864 15.3804 2.29759C16.8794 3.82932 17.6288 5.91904 17.6288 8.56674V8.76368H14.1422V8.46827C14.1422 6.91466 13.7186 5.64552 12.8713 4.66083C12.0458 3.67615 10.775 3.18381 9.05882 3.18381C7.32091 3.18381 5.96318 3.71991 4.98561 4.79212C4.00804 5.84245 3.51925 7.30853 3.51925 9.19037V14.7046C3.51925 16.5646 4.00804 18.0306 4.98561 19.1028C5.96318 20.1751 7.32091 20.7112 9.05882 20.7112C10.775 20.7112 12.0458 20.2188 12.8713 19.2341C13.7186 18.2276 14.1422 16.9584 14.1422 15.4267V14.8687H17.6288V15.3282C17.6288 17.9759 16.8794 20.0656 15.3804 21.5974C13.9032 23.1291 11.796 23.895 9.05882 23.895Z" fill="#EDFEFF"/>
<path d="M26.6087 23.895C25.4574 23.895 24.4255 23.698 23.5131 23.3042C22.6224 22.9103 21.9055 22.3304 21.3625 21.5646C20.8411 20.7987 20.5804 19.8687 20.5804 18.7746C20.5804 17.6586 20.8411 16.7396 21.3625 16.0175C21.9055 15.2735 22.6333 14.7155 23.5457 14.3435C24.4798 13.9716 25.5334 13.7856 26.7065 13.7856H31.5944V12.7352C31.5944 11.7943 31.3119 11.0394 30.7471 10.4705C30.1823 9.90153 29.3134 9.61707 28.1403 9.61707C26.9889 9.61707 26.1091 9.89059 25.5008 10.4376C24.8926 10.9847 24.4907 11.6958 24.2952 12.5711L21.1669 11.5536C21.4276 10.6783 21.8404 9.89059 22.4052 9.19037C22.9917 8.46827 23.7629 7.8884 24.7188 7.45077C25.6746 7.01313 26.826 6.79431 28.1729 6.79431C30.2583 6.79431 31.8985 7.33042 33.0933 8.40263C34.2881 9.47484 34.8855 10.9956 34.8855 12.965V19.628C34.8855 20.2845 35.1896 20.6127 35.7979 20.6127H37.1665V23.4354H34.6574C33.8971 23.4354 33.2779 23.2385 32.8 22.8446C32.3221 22.4508 32.0831 21.9147 32.0831 21.2363V21.1379H31.5944C31.4206 21.4661 31.1599 21.849 30.8123 22.2867C30.4647 22.7243 29.9542 23.1072 29.2808 23.4354C28.6073 23.7418 27.7167 23.895 26.6087 23.895ZM27.0975 21.105C28.4444 21.105 29.5306 20.7221 30.3561 19.9562C31.1816 19.1685 31.5944 18.0963 31.5944 16.7396V16.4114H26.902C26.0113 16.4114 25.2945 16.6083 24.7514 17.0022C24.2083 17.3742 23.9367 17.9322 23.9367 18.6761C23.9367 19.4201 24.2191 20.0109 24.7839 20.4486C25.3488 20.8862 26.12 21.105 27.0975 21.105Z" fill="#EDFEFF"/>
<path d="M40.4299 23.4354V7.25383H43.7211V9.68271H44.2424C44.5466 9.02626 45.0897 8.41357 45.8717 7.84464C46.6538 7.27571 47.816 6.99125 49.3584 6.99125C50.5749 6.99125 51.6502 7.26477 52.5844 7.81182C53.5402 8.35886 54.2897 9.13567 54.8328 10.1422C55.3759 11.1269 55.6474 12.3195 55.6474 13.7199V23.4354H52.2911V13.9825C52.2911 12.5821 51.9435 11.5536 51.2483 10.8972C50.5532 10.2188 49.5973 9.87965 48.3808 9.87965C46.9905 9.87965 45.8717 10.3392 45.0245 11.2582C44.199 12.1772 43.7862 13.512 43.7862 15.2626V23.4354H40.4299Z" fill="#EDFEFF"/>
<path d="M80.5256 23.4354V7.25383H83.8167V9.68271H84.3381C84.6422 9.02626 85.1853 8.41357 85.9674 7.84464C86.7494 7.27571 87.9116 6.99125 89.454 6.99125C90.6706 6.99125 91.7459 7.26477 92.68 7.81182C93.6359 8.35886 94.3853 9.13567 94.9284 10.1422C95.4715 11.1269 95.7431 12.3195 95.7431 13.7199V23.4354H92.3867V13.9825C92.3867 12.5821 92.0392 11.5536 91.344 10.8972C90.6488 10.2188 89.693 9.87965 88.4765 9.87965C87.0861 9.87965 85.9674 10.3392 85.1201 11.2582C84.2946 12.1772 83.8819 13.512 83.8819 15.2626V23.4354H80.5256Z" fill="#EDFEFF"/>
<path d="M100.573 23.4354V7.25383H103.93V23.4354H100.573ZM102.268 5.05471C101.616 5.05471 101.062 4.84683 100.606 4.43107C100.171 3.99344 99.9542 3.43545 99.9542 2.75711C99.9542 2.07878 100.171 1.53173 100.606 1.11598C101.062 0.678337 101.616 0.459519 102.268 0.459519C102.941 0.459519 103.495 0.678337 103.93 1.11598C104.364 1.53173 104.581 2.07878 104.581 2.75711C104.581 3.43545 104.364 3.99344 103.93 4.43107C103.495 4.84683 102.941 5.05471 102.268 5.05471Z" fill="#EDFEFF"/>
<path d="M116.373 23.895C114.83 23.895 113.429 23.5667 112.169 22.9103C110.931 22.2538 109.943 21.302 109.204 20.0547C108.487 18.8074 108.129 17.3085 108.129 15.558V15.1313C108.129 13.3807 108.487 11.8928 109.204 10.6674C109.943 9.42013 110.931 8.46827 112.169 7.81182C113.429 7.13348 114.83 6.79431 116.373 6.79431C117.915 6.79431 119.23 7.07877 120.316 7.6477C121.402 8.21663 122.271 8.97155 122.923 9.91247C123.596 10.8534 124.03 11.8928 124.226 13.0306L120.967 13.7199C120.859 12.9978 120.631 12.3414 120.283 11.7505C119.936 11.1597 119.447 10.6893 118.817 10.3392C118.187 9.98906 117.394 9.814 116.438 9.814C115.504 9.814 114.657 10.0328 113.896 10.4705C113.158 10.8862 112.571 11.4989 112.137 12.3085C111.702 13.0963 111.485 14.0591 111.485 15.1969V15.4923C111.485 16.6302 111.702 17.6039 112.137 18.4136C112.571 19.2232 113.158 19.8359 113.896 20.2516C114.657 20.6674 115.504 20.8753 116.438 20.8753C117.85 20.8753 118.925 20.5142 119.664 19.7921C120.403 19.0481 120.87 18.1072 121.065 16.9694L124.324 17.7243C124.063 18.8403 123.596 19.8687 122.923 20.8096C122.271 21.7505 121.402 22.5055 120.316 23.0744C119.23 23.6214 117.915 23.895 116.373 23.895Z" fill="#EDFEFF"/>
<path d="M133.18 23.895C132.029 23.895 130.997 23.698 130.085 23.3042C129.194 22.9103 128.477 22.3304 127.934 21.5646C127.413 20.7987 127.152 19.8687 127.152 18.7746C127.152 17.6586 127.413 16.7396 127.934 16.0175C128.477 15.2735 129.205 14.7155 130.117 14.3435C131.051 13.9716 132.105 13.7856 133.278 13.7856H138.166V12.7352C138.166 11.7943 137.884 11.0394 137.319 10.4705C136.754 9.90153 135.885 9.61707 134.712 9.61707C133.561 9.61707 132.681 9.89059 132.073 10.4376C131.464 10.9847 131.062 11.6958 130.867 12.5711L127.739 11.5536C127.999 10.6783 128.412 9.89059 128.977 9.19037C129.563 8.46827 130.335 7.8884 131.29 7.45077C132.246 7.01313 133.398 6.79431 134.745 6.79431C136.83 6.79431 138.47 7.33042 139.665 8.40263C140.86 9.47484 141.457 10.9956 141.457 12.965V19.628C141.457 20.2845 141.761 20.6127 142.37 20.6127H143.738V23.4354H141.229C140.469 23.4354 139.85 23.2385 139.372 22.8446C138.894 22.4508 138.655 21.9147 138.655 21.2363V21.1379H138.166C137.992 21.4661 137.732 21.849 137.384 22.2867C137.036 22.7243 136.526 23.1072 135.852 23.4354C135.179 23.7418 134.288 23.895 133.18 23.895ZM133.669 21.105C135.016 21.105 136.102 20.7221 136.928 19.9562C137.753 19.1685 138.166 18.0963 138.166 16.7396V16.4114H133.474C132.583 16.4114 131.866 16.6083 131.323 17.0022C130.78 17.3742 130.508 17.9322 130.508 18.6761C130.508 19.4201 130.791 20.0109 131.356 20.4486C131.92 20.8862 132.692 21.105 133.669 21.105Z" fill="#EDFEFF"/>
<path d="M147.002 23.4354V0.459519H150.358V23.4354H147.002Z" fill="#EDFEFF"/>
<path d="M172.019 23.895C169.238 23.895 167.033 23.1072 165.404 21.5317C163.775 19.9344 162.96 17.6368 162.96 14.639V9.25602C162.96 6.25821 163.775 3.97155 165.404 2.39606C167.033 0.798687 169.238 0 172.019 0C174.756 0 176.863 0.765864 178.341 2.29759C179.84 3.82932 180.589 5.91904 180.589 8.56674V8.76368H177.102V8.46827C177.102 6.91466 176.679 5.64552 175.831 4.66083C175.006 3.67615 173.735 3.18381 172.019 3.18381C170.281 3.18381 168.923 3.71991 167.946 4.79212C166.968 5.84245 166.479 7.30853 166.479 9.19037V14.7046C166.479 16.5646 166.968 18.0306 167.946 19.1028C168.923 20.1751 170.281 20.7112 172.019 20.7112C173.735 20.7112 175.006 20.2188 175.831 19.2341C176.679 18.2276 177.102 16.9584 177.102 15.4267V14.8687H180.589V15.3282C180.589 17.9759 179.84 20.0656 178.341 21.5974C176.863 23.1291 174.756 23.895 172.019 23.895Z" fill="#EDFEFF"/>
<path d="M184.583 23.4354V7.25383H187.874V9.15755H188.396C188.657 8.47921 189.069 7.98687 189.634 7.68053C190.221 7.3523 190.938 7.18818 191.785 7.18818H193.707V10.2407H191.654C190.568 10.2407 189.678 10.547 188.982 11.1597C188.287 11.7505 187.94 12.6696 187.94 13.9169V23.4354H184.583Z" fill="#EDFEFF"/>
<path d="M199.042 30V27.046H208.003C208.612 27.046 208.916 26.7177 208.916 26.0613V21.0722H208.394C208.199 21.5098 207.895 21.9365 207.482 22.3523C207.091 22.7462 206.559 23.0744 205.885 23.337C205.212 23.5996 204.364 23.7309 203.343 23.7309C202.127 23.7309 201.041 23.4573 200.085 22.9103C199.129 22.3632 198.38 21.5864 197.837 20.5799C197.293 19.5733 197.022 18.3807 197.022 17.0022V7.25383H200.378V16.7396C200.378 18.14 200.726 19.1794 201.421 19.8578C202.116 20.5142 203.083 20.8425 204.321 20.8425C205.69 20.8425 206.787 20.3829 207.612 19.4639C208.459 18.5449 208.883 17.2101 208.883 15.4595V7.25383H212.239V26.7505C212.239 27.7352 211.946 28.523 211.36 29.1138C210.795 29.7046 210.013 30 209.013 30H199.042Z" fill="#EDFEFF"/>
<path d="M217.201 30V7.25383H220.492V9.58425H221.013C221.426 8.86215 222.045 8.21663 222.871 7.6477C223.718 7.07877 224.924 6.79431 226.488 6.79431C227.835 6.79431 229.062 7.12254 230.17 7.77899C231.3 8.43545 232.201 9.38731 232.875 10.6346C233.57 11.86 233.917 13.3479 233.917 15.0985V15.5908C233.917 17.3414 233.581 18.8403 232.907 20.0875C232.234 21.3129 231.332 22.2538 230.202 22.9103C229.073 23.5667 227.835 23.895 226.488 23.895C225.445 23.895 224.565 23.7637 223.848 23.5011C223.131 23.2385 222.556 22.9103 222.121 22.5164C221.687 22.1007 221.339 21.674 221.078 21.2363H220.557V30H217.201ZM225.51 20.9409C226.987 20.9409 228.193 20.4705 229.127 19.5295C230.061 18.5886 230.528 17.2429 230.528 15.4923V15.1969C230.528 13.4683 230.05 12.1335 229.095 11.1926C228.16 10.2516 226.966 9.78118 225.51 9.78118C224.076 9.78118 222.882 10.2516 221.926 11.1926C220.992 12.1335 220.525 13.4683 220.525 15.1969V15.4923C220.525 17.2429 220.992 18.5886 221.926 19.5295C222.882 20.4705 224.076 20.9409 225.51 20.9409Z" fill="#EDFEFF"/>
<path d="M243.5 23.4354C242.522 23.4354 241.74 23.14 241.154 22.5492C240.589 21.9584 240.306 21.1707 240.306 20.186V10.1094H235.875V7.25383H240.306V1.90372H243.663V7.25383H248.453V10.1094H243.663V19.5952C243.663 20.2516 243.967 20.5799 244.575 20.5799H247.931V23.4354H243.5Z" fill="#EDFEFF"/>
<path d="M259.35 23.895C257.743 23.895 256.309 23.5667 255.049 22.9103C253.811 22.2319 252.833 21.2691 252.116 20.0219C251.399 18.7746 251.041 17.2976 251.041 15.5908V15.0985C251.041 13.3917 251.399 11.9256 252.116 10.7002C252.833 9.45296 253.811 8.49015 255.049 7.81182C256.309 7.13348 257.743 6.79431 259.35 6.79431C260.958 6.79431 262.392 7.13348 263.652 7.81182C264.912 8.49015 265.9 9.45296 266.617 10.7002C267.334 11.9256 267.692 13.3917 267.692 15.0985V15.5908C267.692 17.2976 267.334 18.7746 266.617 20.0219C265.9 21.2691 264.912 22.2319 263.652 22.9103C262.392 23.5667 260.958 23.895 259.35 23.895ZM259.35 20.8753C260.828 20.8753 262.022 20.4048 262.935 19.4639C263.869 18.5011 264.336 17.1772 264.336 15.4923V15.1969C264.336 13.512 263.88 12.1991 262.967 11.2582C262.055 10.2954 260.849 9.814 259.35 9.814C257.895 9.814 256.7 10.2954 255.766 11.2582C254.854 12.1991 254.397 13.512 254.397 15.1969V15.4923C254.397 17.1772 254.854 18.5011 255.766 19.4639C256.7 20.4048 257.895 20.8753 259.35 20.8753Z" fill="#EDFEFF"/>
<path d="M67.6475 6L67.1089 6.04075L68.7579 14.7816L67.6475 6Z" fill="#EDFEFF"/>
<path d="M68.8751 6.03585L68.3364 6.00269L68.7794 14.8866L68.8751 6.03585Z" fill="#EDFEFF"/>
<path d="M70.0884 6.2387L69.5588 6.13257L68.7876 14.9938L70.0884 6.2387Z" fill="#EDFEFF"/>
<path d="M71.2631 6.60518L70.7524 6.42798L68.7817 15.1015L71.2631 6.60518Z" fill="#EDFEFF"/>
<path d="M72.3757 7.128L71.8944 6.88257L68.7603 15.2069L72.3757 7.128Z" fill="#EDFEFF"/>
<path d="M73.4064 7.79795L72.963 7.4895L68.7246 15.3093L73.4064 7.79795Z" fill="#EDFEFF"/>
<path d="M74.3386 8.60185L73.9412 8.2356L68.6772 15.4048L74.3386 8.60185Z" fill="#EDFEFF"/>
<path d="M75.1511 9.52535L74.8077 9.1084L68.6162 15.4935L75.1511 9.52535Z" fill="#EDFEFF"/>
<path d="M75.8297 10.5504L75.5459 10.0903L68.5425 15.5723L75.8297 10.5504Z" fill="#EDFEFF"/>
<path d="M76.3635 11.6585L76.1451 11.1643L68.4604 15.6409L76.3635 11.6585Z" fill="#EDFEFF"/>
<path d="M76.7411 12.8287L76.5924 12.3096L68.3691 15.6965L76.7411 12.8287Z" fill="#EDFEFF"/>
<path d="M76.9527 14.0397L76.876 13.5054L68.2681 15.7403L76.9527 14.0397Z" fill="#EDFEFF"/>
<path d="M76.9998 15.269L76.9965 14.729L68.1646 15.7707L76.9998 15.269Z" fill="#EDFEFF"/>
<path d="M76.8811 16.4926L76.9517 15.9574L68.0601 15.7859L76.8811 16.4926Z" fill="#EDFEFF"/>
<path d="M76.5946 17.689L76.7372 17.1679L67.9521 15.7866L76.5946 17.689Z" fill="#EDFEFF"/>
<path d="M76.1471 18.8342L76.3593 18.3378L67.8442 15.7727L76.1471 18.8342Z" fill="#EDFEFF"/>
<path d="M75.549 19.9094L75.8266 19.446L67.7402 15.7441L75.549 19.9094Z" fill="#EDFEFF"/>
<path d="M74.8099 20.893L75.1486 20.4718L67.6416 15.7024L74.8099 20.893Z" fill="#EDFEFF"/>
<path d="M73.943 21.7653L74.3358 21.3943L67.5483 15.6465L73.943 21.7653Z" fill="#EDFEFF"/>
<path d="M72.9666 22.5121L73.4062 22.198L67.4653 15.5793L72.9666 22.5121Z" fill="#EDFEFF"/>
<path d="M71.8981 23.1189L72.3761 22.8678L67.3921 15.5005L71.8981 23.1189Z" fill="#EDFEFF"/>
<path d="M70.756 23.5745L71.2643 23.3906L67.3301 15.4136L70.756 23.5745Z" fill="#EDFEFF"/>
<path d="M69.5612 23.8697L70.0894 23.7569L67.2783 15.3179L69.5612 23.8697Z" fill="#EDFEFF"/>
<path d="M68.3398 24L68.8789 23.9602L67.2437 15.217L68.3398 24Z" fill="#EDFEFF"/>
<path d="M67.1104 23.9616L67.649 23.9957L67.2206 15.1113L67.1104 23.9616Z" fill="#EDFEFF"/>
<path d="M65.8955 23.7573L66.4251 23.8644L67.2105 15.0042L65.8955 23.7573Z" fill="#EDFEFF"/>
<path d="M64.7261 23.3893L65.2358 23.5674L67.2207 14.8967L64.7261 23.3893Z" fill="#EDFEFF"/>
<path d="M63.6108 22.8643L64.0917 23.1106L67.239 14.791L63.6108 22.8643Z" fill="#EDFEFF"/>
<path d="M62.5825 22.1932L63.0254 22.5026L67.2766 14.6895L62.5825 22.1932Z" fill="#EDFEFF"/>
<path d="M61.6533 21.3879L62.0503 21.7547L67.3256 14.594L61.6533 21.3879Z" fill="#EDFEFF"/>
<path d="M60.8423 20.4635L61.1853 20.881L67.3872 14.5054L60.8423 20.4635Z" fill="#EDFEFF"/>
<path d="M60.1646 19.4366L60.4478 19.8971L67.4603 14.426L60.1646 19.4366Z" fill="#EDFEFF"/>
<path d="M59.6333 18.3277L59.8507 18.8224L67.543 14.3582L59.6333 18.3277Z" fill="#EDFEFF"/>
<path d="M59.2563 17.1553L59.4041 17.6749L67.6331 14.3013L59.2563 17.1553Z" fill="#EDFEFF"/>
<path d="M59.0459 15.9446L59.1217 16.4795L67.7334 14.2578L59.0459 15.9446Z" fill="#EDFEFF"/>
<path d="M59 14.7157L59.0024 15.2557L67.8362 14.2283L59 14.7157Z" fill="#EDFEFF"/>
<path d="M59.1228 13.4924L59.0513 14.0277L67.9429 14.2134L59.1228 13.4924Z" fill="#EDFEFF"/>
<path d="M59.4111 12.2966L59.2676 12.8177L68.0508 14.2127L59.4111 12.2966Z" fill="#EDFEFF"/>
<path d="M59.8597 11.1511L59.6465 11.6476L68.1582 14.2264L59.8597 11.1511Z" fill="#EDFEFF"/>
<path d="M60.4582 10.0781L60.1792 10.541L68.2603 14.2557L60.4582 10.0781Z" fill="#EDFEFF"/>
<path d="M61.1995 9.09619L60.8604 9.51646L68.3598 14.2977L61.1995 9.09619Z" fill="#EDFEFF"/>
<path d="M62.0675 8.22437L61.6738 8.59488L68.4522 14.3536L62.0675 8.22437Z" fill="#EDFEFF"/>
<path d="M63.0451 7.47925L62.605 7.79244L68.5354 14.421L63.0451 7.47925Z" fill="#EDFEFF"/>
<path d="M64.1152 6.87402L63.6367 7.12467L68.6093 14.4995L64.1152 6.87402Z" fill="#EDFEFF"/>
<path d="M65.2578 6.42114L64.7495 6.60403L68.6714 14.5877L65.2578 6.42114Z" fill="#EDFEFF"/>
<path d="M66.4525 6.12695L65.9238 6.23877L68.7216 14.6825L66.4525 6.12695Z" fill="#EDFEFF"/>
</svg>
