<svg width="232" height="24" viewBox="0 0 232 24" fill="none" xmlns="http://www.w3.org/2000/svg">
<path d="M8.96189 22.9999C6.20765 22.9999 4.02544 22.2417 2.41526 20.7252C0.805087 19.1877 0 16.9972 0 14.1538V8.84613C0 6.00273 0.805087 3.82279 2.41526 2.30631C4.02544 0.768771 6.20765 0 8.96189 0C11.695 0 13.803 0.747709 15.2861 2.24313C16.7903 3.71748 17.5424 5.74999 17.5424 8.34064V8.5302H13.4111V8.21427C13.4111 6.90841 13.0403 5.83423 12.2988 4.99175C11.5784 4.14926 10.4661 3.72801 8.96189 3.72801C7.47884 3.72801 6.31358 4.18085 5.46612 5.08653C4.61866 5.9922 4.19493 7.22434 4.19493 8.78295V14.217C4.19493 15.7545 4.61866 16.9867 5.46612 17.9134C6.31358 18.8191 7.47884 19.2719 8.96189 19.2719C10.4661 19.2719 11.5784 18.8507 12.2988 18.0082C13.0403 17.1446 13.4111 16.0705 13.4111 14.7857V14.217H17.5424V14.6593C17.5424 17.25 16.7903 19.293 15.2861 20.7884C13.803 22.2628 11.695 22.9999 8.96189 22.9999Z" fill="#EDFEFF"/>
<path d="M25.9817 22.9999C24.8588 22.9999 23.8524 22.8104 22.9626 22.4313C22.0728 22.0311 21.363 21.4624 20.8334 20.7252C20.3249 19.967 20.0707 19.0508 20.0707 17.9766C20.0707 16.9024 20.3249 16.0073 20.8334 15.2912C21.363 14.554 22.0834 14.0064 22.9944 13.6483C23.9266 13.2692 24.9859 13.0796 26.1724 13.0796H30.4944V12.195C30.4944 11.4578 30.2614 10.8576 29.7953 10.3942C29.3292 9.90977 28.5876 9.66756 27.5707 9.66756C26.5749 9.66756 25.8334 9.89924 25.3461 10.3626C24.8588 10.8049 24.541 11.3841 24.3927 12.1002L20.7062 10.8681C20.9605 10.0677 21.363 9.34109 21.9139 8.68817C22.4859 8.01417 23.238 7.47709 24.1702 7.07691C25.1236 6.65566 26.2783 6.44504 27.6342 6.44504C29.7105 6.44504 31.3525 6.96106 32.5601 7.99311C33.7677 9.02516 34.3715 10.5206 34.3715 12.4794V18.3241C34.3715 18.956 34.6682 19.2719 35.2614 19.2719H36.5326V22.5576H33.8631C33.0792 22.5576 32.433 22.3681 31.9245 21.989C31.416 21.6098 31.1618 21.1043 31.1618 20.4725V20.4409H30.558C30.4732 20.6936 30.2826 21.0306 29.9859 21.4519C29.6893 21.8521 29.2232 22.2101 28.5876 22.526C27.952 22.842 27.0834 22.9999 25.9817 22.9999ZM26.6808 19.7774C27.8037 19.7774 28.7147 19.472 29.4139 18.8612C30.1342 18.2294 30.4944 17.3974 30.4944 16.3653V16.0494H26.4584C25.7169 16.0494 25.1342 16.2074 24.7105 16.5233C24.2868 16.8392 24.0749 17.2816 24.0749 17.8502C24.0749 18.4189 24.2974 18.8823 24.7423 19.2403C25.1872 19.5984 25.8334 19.7774 26.6808 19.7774Z" fill="#EDFEFF"/>
<path d="M39.4603 22.5576V6.88735H43.401V8.94091H43.973C44.2272 8.3933 44.7039 7.87727 45.4031 7.39284C46.1022 6.88735 47.1616 6.6346 48.5811 6.6346C49.8099 6.6346 50.8798 6.91894 51.7908 7.48762C52.723 8.03524 53.4434 8.80401 53.9518 9.79393C54.4603 10.7628 54.7146 11.9002 54.7146 13.206V22.5576H50.7103V13.5219C50.7103 12.3425 50.4137 11.4578 49.8205 10.8681C49.2484 10.2784 48.4222 9.98349 47.3417 9.98349C46.1128 9.98349 45.1594 10.3942 44.4815 11.2156C43.8035 12.016 43.4645 13.1428 43.4645 14.5961V22.5576H39.4603Z" fill="#EDFEFF"/>
<path d="M78.5022 22.5576V6.88735H82.4429V8.94091H83.0149C83.2692 8.3933 83.7459 7.87727 84.445 7.39284C85.1442 6.88735 86.2035 6.6346 87.623 6.6346C88.8518 6.6346 89.9217 6.91894 90.8327 7.48762C91.765 8.03524 92.4853 8.80401 92.9938 9.79393C93.5023 10.7628 93.7565 11.9002 93.7565 13.206V22.5576H89.7522V13.5219C89.7522 12.3425 89.4556 11.4578 88.8624 10.8681C88.2904 10.2784 87.4641 9.98349 86.3836 9.98349C85.1548 9.98349 84.2014 10.3942 83.5234 11.2156C82.8454 12.016 82.5065 13.1428 82.5065 14.5961V22.5576H78.5022Z" fill="#EDFEFF"/>
<path d="M98.0852 22.5576V6.88735H102.089V22.5576H98.0852ZM100.087 5.05493C99.367 5.05493 98.7526 4.82325 98.2441 4.35988C97.7568 3.89651 97.5132 3.28571 97.5132 2.52747C97.5132 1.76923 97.7568 1.15842 98.2441 0.695054C98.7526 0.231685 99.367 0 100.087 0C100.829 0 101.443 0.231685 101.931 0.695054C102.418 1.15842 102.662 1.76923 102.662 2.52747C102.662 3.28571 102.418 3.89651 101.931 4.35988C101.443 4.82325 100.829 5.05493 100.087 5.05493Z" fill="#EDFEFF"/>
<path d="M113.931 22.9999C112.406 22.9999 111.018 22.684 109.768 22.0521C108.539 21.4203 107.565 20.5041 106.845 19.3035C106.124 18.103 105.764 16.6497 105.764 14.9436V14.5013C105.764 12.7953 106.124 11.342 106.845 10.1415C107.565 8.94091 108.539 8.02471 109.768 7.39284C111.018 6.76097 112.406 6.44504 113.931 6.44504C115.436 6.44504 116.728 6.70832 117.809 7.23487C118.889 7.76143 119.758 8.48808 120.414 9.41481C121.092 10.3205 121.537 11.3525 121.749 12.511L117.872 13.3324C117.787 12.7005 117.597 12.1318 117.3 11.6263C117.003 11.1209 116.58 10.7207 116.029 10.4258C115.499 10.1309 114.832 9.98349 114.027 9.98349C113.222 9.98349 112.491 10.1625 111.834 10.5206C111.198 10.8576 110.69 11.3736 110.309 12.0687C109.948 12.7426 109.768 13.5746 109.768 14.5645V14.8805C109.768 15.8704 109.948 16.7129 110.309 17.4079C110.69 18.0819 111.198 18.5979 111.834 18.956C112.491 19.293 113.222 19.4615 114.027 19.4615C115.234 19.4615 116.145 19.1561 116.76 18.5453C117.395 17.9134 117.798 17.092 117.967 16.081L121.845 16.9972C121.569 18.1135 121.092 19.135 120.414 20.0618C119.758 20.9674 118.889 21.6836 117.809 22.2101C116.728 22.7367 115.436 22.9999 113.931 22.9999Z" fill="#EDFEFF"/>
<path d="M130.042 22.9999C128.919 22.9999 127.913 22.8104 127.023 22.4313C126.133 22.0311 125.423 21.4624 124.893 20.7252C124.385 19.967 124.131 19.0508 124.131 17.9766C124.131 16.9024 124.385 16.0073 124.893 15.2912C125.423 14.554 126.143 14.0064 127.054 13.6483C127.987 13.2692 129.046 13.0796 130.232 13.0796H134.554V12.195C134.554 11.4578 134.321 10.8576 133.855 10.3942C133.389 9.90977 132.648 9.66756 131.631 9.66756C130.635 9.66756 129.893 9.89924 129.406 10.3626C128.919 10.8049 128.601 11.3841 128.453 12.1002L124.766 10.8681C125.021 10.0677 125.423 9.34109 125.974 8.68817C126.546 8.01417 127.298 7.47709 128.23 7.07691C129.184 6.65566 130.338 6.44504 131.694 6.44504C133.771 6.44504 135.413 6.96106 136.62 7.99311C137.828 9.02516 138.432 10.5206 138.432 12.4794V18.3241C138.432 18.956 138.728 19.2719 139.321 19.2719H140.593V22.5576H137.923C137.139 22.5576 136.493 22.3681 135.985 21.989C135.476 21.6098 135.222 21.1043 135.222 20.4725V20.4409H134.618C134.533 20.6936 134.343 21.0306 134.046 21.4519C133.749 21.8521 133.283 22.2101 132.648 22.526C132.012 22.842 131.143 22.9999 130.042 22.9999ZM130.741 19.7774C131.864 19.7774 132.775 19.472 133.474 18.8612C134.194 18.2294 134.554 17.3974 134.554 16.3653V16.0494H130.518C129.777 16.0494 129.194 16.2074 128.771 16.5233C128.347 16.8392 128.135 17.2816 128.135 17.8502C128.135 18.4189 128.357 18.8823 128.802 19.2403C129.247 19.5984 129.893 19.7774 130.741 19.7774Z" fill="#EDFEFF"/>
<path d="M143.52 22.5576V0.442307H147.525V22.5576H143.52Z" fill="#EDFEFF"/>
<path d="M159.904 22.5576V0.442307H173.887V4.23351H164.099V9.57278H173.124V13.364H164.099V22.5576H159.904Z" fill="#EDFEFF"/>
<path d="M183.013 22.8104C181.785 22.8104 180.704 22.5366 179.772 21.989C178.861 21.4203 178.151 20.641 177.643 19.6511C177.134 18.6611 176.88 17.5238 176.88 16.239V6.88735H180.884V15.923C180.884 17.1025 181.17 17.9871 181.742 18.5769C182.335 19.1666 183.172 19.4615 184.253 19.4615C185.482 19.4615 186.435 19.0613 187.113 18.2609C187.791 17.4395 188.13 16.3022 188.13 14.8489V6.88735H192.134V22.5576H188.193V20.5041H187.621C187.367 21.0306 186.891 21.5466 186.191 22.0521C185.492 22.5576 184.433 22.8104 183.013 22.8104Z" fill="#EDFEFF"/>
<path d="M196.59 22.5576V6.88735H200.531V8.94091H201.103C201.357 8.3933 201.834 7.87727 202.533 7.39284C203.232 6.88735 204.291 6.6346 205.711 6.6346C206.94 6.6346 208.01 6.91894 208.921 7.48762C209.853 8.03524 210.573 8.80401 211.082 9.79393C211.59 10.7628 211.844 11.9002 211.844 13.206V22.5576H207.84V13.5219C207.84 12.3425 207.543 11.4578 206.95 10.8681C206.378 10.2784 205.552 9.98349 204.471 9.98349C203.243 9.98349 202.289 10.3942 201.611 11.2156C200.933 12.016 200.594 13.1428 200.594 14.5961V22.5576H196.59Z" fill="#EDFEFF"/>
<path d="M222.529 22.9999C221.279 22.9999 220.103 22.6945 219.001 22.0837C217.921 21.4519 217.052 20.5357 216.396 19.3351C215.739 18.1346 215.41 16.6813 215.41 14.9752V14.4697C215.41 12.7637 215.739 11.3104 216.396 10.1099C217.052 8.90932 217.921 8.00364 219.001 7.39284C220.082 6.76097 221.258 6.44504 222.529 6.44504C223.482 6.44504 224.277 6.56088 224.913 6.79257C225.569 7.00319 226.099 7.277 226.502 7.61399C226.904 7.95099 227.211 8.30905 227.423 8.68817H227.995V0.442307H231.999V22.5576H228.059V20.662H227.487C227.127 21.2518 226.565 21.7889 225.802 22.2733C225.061 22.7577 223.97 22.9999 222.529 22.9999ZM223.737 19.5247C224.965 19.5247 225.993 19.135 226.819 18.3557C227.646 17.5554 228.059 16.3969 228.059 14.8805V14.5645C228.059 13.048 227.646 11.9002 226.819 11.1209C226.014 10.3205 224.987 9.92031 223.737 9.92031C222.508 9.92031 221.48 10.3205 220.654 11.1209C219.828 11.9002 219.415 13.048 219.415 14.5645V14.8805C219.415 16.3969 219.828 17.5554 220.654 18.3557C221.48 19.135 222.508 19.5247 223.737 19.5247Z" fill="#EDFEFF"/>
<path d="M66.2658 5.47314L65.7507 5.51508L67.3276 14.5116L66.2658 5.47314Z" fill="#EDFEFF"/>
<path d="M67.4396 5.51021L66.9246 5.47607L67.3482 14.6199L67.4396 5.51021Z" fill="#EDFEFF"/>
<path d="M68.6001 5.71886L68.0937 5.60962L67.3562 14.73L68.6001 5.71886Z" fill="#EDFEFF"/>
<path d="M69.7232 6.09596L69.2348 5.91357L67.3503 14.8409L69.7232 6.09596Z" fill="#EDFEFF"/>
<path d="M70.7874 6.63421L70.3271 6.38159L67.3301 14.9495L70.7874 6.63421Z" fill="#EDFEFF"/>
<path d="M71.7727 7.32358L71.3487 7.0061L67.2957 15.0546L71.7727 7.32358Z" fill="#EDFEFF"/>
<path d="M72.6638 8.1509L72.2837 7.77393L67.25 15.1529L72.6638 8.1509Z" fill="#EDFEFF"/>
<path d="M73.4406 9.10151L73.1121 8.67236L67.1914 15.2442L73.4406 9.10151Z" fill="#EDFEFF"/>
<path d="M74.0903 10.1569L73.819 9.68335L67.1218 15.3257L74.0903 10.1569Z" fill="#EDFEFF"/>
<path d="M74.6004 11.2972L74.3915 10.7886L67.043 15.3961L74.6004 11.2972Z" fill="#EDFEFF"/>
<path d="M74.961 12.5016L74.8187 11.9673L66.9551 15.4533L74.961 12.5016Z" fill="#EDFEFF"/>
<path d="M75.1642 13.748L75.0909 13.198L66.8594 15.4983L75.1642 13.748Z" fill="#EDFEFF"/>
<path d="M75.2094 15.0133L75.2062 14.4575L66.7605 15.5297L75.2094 15.0133Z" fill="#EDFEFF"/>
<path d="M75.0955 16.2728L75.163 15.7219L66.6602 15.5454L75.0955 16.2728Z" fill="#EDFEFF"/>
<path d="M74.8212 17.5042L74.9575 16.9679L66.5566 15.5461L74.8212 17.5042Z" fill="#EDFEFF"/>
<path d="M74.3936 18.6828L74.5965 18.1718L66.4539 15.5317L74.3936 18.6828Z" fill="#EDFEFF"/>
<path d="M73.8215 19.7896L74.087 19.3126L66.3542 15.5024L73.8215 19.7896Z" fill="#EDFEFF"/>
<path d="M73.1146 20.8017L73.4385 20.3681L66.2598 15.4592L73.1146 20.8017Z" fill="#EDFEFF"/>
<path d="M72.2857 21.6996L72.6612 21.3178L66.1707 15.4019L72.2857 21.6996Z" fill="#EDFEFF"/>
<path d="M71.3513 22.4684L71.7717 22.145L66.0906 15.3328L71.3513 22.4684Z" fill="#EDFEFF"/>
<path d="M70.3304 23.093L70.7875 22.8345L66.0215 15.2517L70.3304 23.093Z" fill="#EDFEFF"/>
<path d="M69.2378 23.5615L69.7238 23.3723L65.9617 15.1619L69.2378 23.5615Z" fill="#EDFEFF"/>
<path d="M68.0959 23.8657L68.6009 23.7496L65.9128 15.0637L68.0959 23.8657Z" fill="#EDFEFF"/>
<path d="M66.9271 23.9997L67.4427 23.9587L65.8789 14.9597L66.9271 23.9997Z" fill="#EDFEFF"/>
<path d="M65.752 23.9605L66.267 23.9956L65.8574 14.8513L65.752 23.9605Z" fill="#EDFEFF"/>
<path d="M64.5906 23.7499L65.097 23.8602L65.8481 14.7407L64.5906 23.7499Z" fill="#EDFEFF"/>
<path d="M63.4714 23.3711L63.9589 23.5545L65.8569 14.6301L63.4714 23.3711Z" fill="#EDFEFF"/>
<path d="M62.405 22.8307L62.8648 23.0842L65.8746 14.5212L62.405 22.8307Z" fill="#EDFEFF"/>
<path d="M61.4219 22.14L61.8454 22.4584L65.9107 14.4167L61.4219 22.14Z" fill="#EDFEFF"/>
<path d="M60.5332 21.3113L60.9128 21.6888L65.9574 14.3186L60.5332 21.3113Z" fill="#EDFEFF"/>
<path d="M59.7578 20.3598L60.0858 20.7894L66.0165 14.2273L59.7578 20.3598Z" fill="#EDFEFF"/>
<path d="M59.1094 19.3029L59.3803 19.7769L66.086 14.1458L59.1094 19.3029Z" fill="#EDFEFF"/>
<path d="M58.6016 18.1614L58.8095 18.6705L66.1653 14.0757L58.6016 18.1614Z" fill="#EDFEFF"/>
<path d="M58.241 16.9549L58.3823 17.4897L66.2514 14.0173L58.241 16.9549Z" fill="#EDFEFF"/>
<path d="M58.0398 15.7086L58.1123 16.259L66.3474 13.9724L58.0398 15.7086Z" fill="#EDFEFF"/>
<path d="M57.9961 14.4438L57.9984 14.9996L66.4459 13.9421L57.9961 14.4438Z" fill="#EDFEFF"/>
<path d="M58.1133 13.1848L58.0449 13.7358L66.5477 13.9269L58.1133 13.1848Z" fill="#EDFEFF"/>
<path d="M58.3892 11.9539L58.252 12.4902L66.651 13.926L58.3892 11.9539Z" fill="#EDFEFF"/>
<path d="M58.8179 10.7749L58.614 11.2859L66.7535 13.9401L58.8179 10.7749Z" fill="#EDFEFF"/>
<path d="M59.3906 9.67041L59.1238 10.1469L66.8515 13.9702L59.3906 9.67041Z" fill="#EDFEFF"/>
<path d="M60.0997 8.65991L59.7754 9.09248L66.9468 14.0136L60.0997 8.65991Z" fill="#EDFEFF"/>
<path d="M60.9292 7.76245L60.5527 8.14381L67.0347 14.071L60.9292 7.76245Z" fill="#EDFEFF"/>
<path d="M61.8642 6.99561L61.4434 7.31796L67.1145 14.1405L61.8642 6.99561Z" fill="#EDFEFF"/>
<path d="M62.888 6.3728L62.4304 6.63078L67.1856 14.2214L62.888 6.3728Z" fill="#EDFEFF"/>
<path d="M63.9802 5.90649L63.4941 6.09473L67.2445 14.312L63.9802 5.90649Z" fill="#EDFEFF"/>
<path d="M65.1227 5.60376L64.6172 5.71885L67.2926 14.4096L65.1227 5.60376Z" fill="#EDFEFF"/>
</svg>
