<svg width="252" height="20" viewBox="0 0 252 20" fill="none" xmlns="http://www.w3.org/2000/svg">
<path d="M7.66633 20C5.31025 20 3.44351 19.3407 2.0661 18.022C0.688701 16.685 0 14.7802 0 12.3077V7.69231C0 5.21978 0.688701 3.32418 2.0661 2.00549C3.44351 0.668498 5.31025 0 7.66633 0C10.0043 0 11.8076 0.650183 13.0763 1.95055C14.363 3.2326 15.0064 5 15.0064 7.25275V7.41758H11.4723V7.14286C11.4723 6.00733 11.1552 5.07326 10.5208 4.34066C9.90461 3.60806 8.95312 3.24176 7.66633 3.24176C6.39767 3.24176 5.40087 3.63553 4.67592 4.42308C3.95097 5.21062 3.5885 6.28205 3.5885 7.63736V12.3626C3.5885 13.6996 3.95097 14.7711 4.67592 15.5769C5.40087 16.3645 6.39767 16.7582 7.66633 16.7582C8.95312 16.7582 9.90461 16.3919 10.5208 15.6593C11.1552 14.9084 11.4723 13.9744 11.4723 12.8571V12.3626H15.0064V12.7473C15.0064 15 14.363 16.7766 13.0763 18.0769C11.8076 19.359 10.0043 20 7.66633 20Z" fill="#EDFEFF"/>
<path d="M16.4131 19.6154L21.4152 0.384615H27.6679L32.6701 19.6154H28.9728L27.9398 15.3846H21.1434L20.1103 19.6154H16.4131ZM21.9861 12.033H27.097L24.7862 2.66483H24.2969L21.9861 12.033Z" fill="#EDFEFF"/>
<path d="M34.9479 19.6154V0.384615H41.7715L45.5503 17.1429H46.0396V0.384615H49.5738V19.6154H42.7502L38.9714 2.85714H38.482V19.6154H34.9479Z" fill="#EDFEFF"/>
<path d="M73.344 19.6154V0.384615H80.1676L83.9464 17.1429H84.4357V0.384615H87.9699V19.6154H81.1463L77.3675 2.85714H76.8781V19.6154H73.344Z" fill="#EDFEFF"/>
<path d="M91.5562 19.6154V0.384615H95.1447V19.6154H91.5562Z" fill="#EDFEFF"/>
<path d="M105.956 20C103.6 20 101.733 19.3407 100.355 18.022C98.978 16.685 98.2893 14.7802 98.2893 12.3077V7.69231C98.2893 5.21978 98.978 3.32418 100.355 2.00549C101.733 0.668498 103.6 0 105.956 0C108.294 0 110.097 0.650183 111.366 1.95055C112.652 3.2326 113.296 5 113.296 7.25275V7.41758H109.762V7.14286C109.762 6.00733 109.444 5.07326 108.81 4.34066C108.194 3.60806 107.242 3.24176 105.956 3.24176C104.687 3.24176 103.69 3.63553 102.965 4.42308C102.24 5.21062 101.878 6.28205 101.878 7.63736V12.3626C101.878 13.6996 102.24 14.7711 102.965 15.5769C103.69 16.3645 104.687 16.7582 105.956 16.7582C107.242 16.7582 108.194 16.3919 108.81 15.6593C109.444 14.9084 109.762 13.9744 109.762 12.8571V12.3626H113.296V12.7473C113.296 15 112.652 16.7766 111.366 18.0769C110.097 19.359 108.294 20 105.956 20Z" fill="#EDFEFF"/>
<path d="M114.702 19.6154L119.705 0.384615H125.957L130.959 19.6154H127.262L126.229 15.3846H119.433L118.4 19.6154H114.702ZM120.275 12.033H125.386L123.076 2.66483H122.586L120.275 12.033Z" fill="#EDFEFF"/>
<path d="M133.237 19.6154V0.384615H136.826V16.3187H145.525V19.6154H133.237Z" fill="#EDFEFF"/>
<path d="M161.283 20C158.926 20 157.06 19.3407 155.682 18.022C154.305 16.685 153.616 14.7802 153.616 12.3077V7.69231C153.616 5.21978 154.305 3.32418 155.682 2.00549C157.06 0.668498 158.926 0 161.283 0C163.621 0 165.424 0.650183 166.693 1.95055C167.979 3.2326 168.623 5 168.623 7.25275V7.41758H165.089V7.14286C165.089 6.00733 164.771 5.07326 164.137 4.34066C163.521 3.60806 162.569 3.24176 161.283 3.24176C160.014 3.24176 159.017 3.63553 158.292 4.42308C157.567 5.21062 157.205 6.28205 157.205 7.63736V12.3626C157.205 13.6996 157.567 14.7711 158.292 15.5769C159.017 16.3645 160.014 16.7582 161.283 16.7582C162.569 16.7582 163.521 16.3919 164.137 15.6593C164.771 14.9084 165.089 13.9744 165.089 12.8571V12.3626H168.623V12.7473C168.623 15 167.979 16.7766 166.693 18.0769C165.424 19.359 163.621 20 161.283 20Z" fill="#EDFEFF"/>
<path d="M171.547 19.6154V0.384615H179.811C181.007 0.384615 182.049 0.595238 182.937 1.01648C183.825 1.43773 184.514 2.03297 185.003 2.8022C185.493 3.57143 185.737 4.47802 185.737 5.52198V5.85165C185.737 7.00549 185.466 7.93956 184.922 8.65385C184.378 9.36813 183.708 9.89011 182.91 10.2198V10.7143C183.635 10.7509 184.197 11.0073 184.596 11.4835C184.994 11.9414 185.194 12.5549 185.194 13.3242V19.6154H181.605V13.8462C181.605 13.4066 181.487 13.0494 181.252 12.7747C181.034 12.5 180.663 12.3626 180.137 12.3626H175.135V19.6154H171.547ZM175.135 9.06593H179.43C180.282 9.06593 180.944 8.837 181.415 8.37912C181.904 7.90293 182.149 7.28022 182.149 6.51099V6.23626C182.149 5.46703 181.913 4.85348 181.442 4.3956C180.971 3.91941 180.3 3.68132 179.43 3.68132H175.135V9.06593Z" fill="#EDFEFF"/>
<path d="M193.139 19.6154V12.9945L186.669 0.384615H190.665L194.689 8.62637H195.178L199.201 0.384615H203.198L196.727 12.9945V19.6154H193.139Z" fill="#EDFEFF"/>
<path d="M205.21 19.6154V0.384615H213.039C214.236 0.384615 215.287 0.631868 216.193 1.12637C217.117 1.60256 217.833 2.28022 218.341 3.15934C218.866 4.03846 219.129 5.08242 219.129 6.29121V6.67582C219.129 7.8663 218.857 8.91026 218.313 9.80769C217.788 10.6868 217.063 11.3736 216.139 11.8681C215.232 12.3443 214.199 12.5824 213.039 12.5824H208.799V19.6154H205.21ZM208.799 9.28571H212.686C213.538 9.28571 214.227 9.04762 214.752 8.57143C215.278 8.09524 215.541 7.44505 215.541 6.62088V6.34615C215.541 5.52198 215.278 4.8718 214.752 4.3956C214.227 3.91941 213.538 3.68132 212.686 3.68132H208.799V9.28571Z" fill="#EDFEFF"/>
<path d="M225.968 19.6154V3.68132H220.422V0.384615H235.102V3.68132H229.556V19.6154H225.968Z" fill="#EDFEFF"/>
<path d="M244.171 20C241.778 20 239.875 19.3407 238.462 18.022C237.048 16.685 236.341 14.7802 236.341 12.3077V7.69231C236.341 5.21978 237.048 3.32418 238.462 2.00549C239.875 0.668498 241.778 0 244.171 0C246.563 0 248.466 0.668498 249.88 2.00549C251.293 3.32418 252 5.21978 252 7.69231V12.3077C252 14.7802 251.293 16.685 249.88 18.022C248.466 19.3407 246.563 20 244.171 20ZM244.171 16.7582C245.512 16.7582 246.554 16.3645 247.297 15.5769C248.04 14.7894 248.412 13.7363 248.412 12.4176V7.58242C248.412 6.26374 248.04 5.21062 247.297 4.42308C246.554 3.63553 245.512 3.24176 244.171 3.24176C242.848 3.24176 241.805 3.63553 241.044 4.42308C240.301 5.21062 239.93 6.26374 239.93 7.58242V12.4176C239.93 13.7363 240.301 14.7894 241.044 15.5769C241.805 16.3645 242.848 16.7582 244.171 16.7582Z" fill="#EDFEFF"/>
<path d="M61.2474 0.384521L60.6777 0.428055L62.4217 9.76655L61.2474 0.384521Z" fill="#EDFEFF"/>
<path d="M62.5462 0.422641L61.9761 0.387207L62.445 9.87858L62.5462 0.422641Z" fill="#EDFEFF"/>
<path d="M63.8288 0.639513L63.2687 0.526123L62.4531 9.9932L63.8288 0.639513Z" fill="#EDFEFF"/>
<path d="M65.0714 1.03087L64.5313 0.841553L62.4473 10.1082L65.0714 1.03087Z" fill="#EDFEFF"/>
<path d="M66.2461 1.58985L65.7373 1.32764L62.4238 10.2212L66.2461 1.58985Z" fill="#EDFEFF"/>
<path d="M67.3354 2.30537L66.8666 1.97583L62.3857 10.3303L67.3354 2.30537Z" fill="#EDFEFF"/>
<path d="M68.3208 3.164L67.9006 2.77271L62.3354 10.4321L68.3208 3.164Z" fill="#EDFEFF"/>
<path d="M69.1808 4.15078L68.8177 3.70532L62.272 10.527L69.1808 4.15078Z" fill="#EDFEFF"/>
<path d="M69.898 5.24592L69.598 4.75439L62.1938 10.6112L69.898 5.24592Z" fill="#EDFEFF"/>
<path d="M70.4621 6.42958L70.2313 5.90161L62.1069 10.6843L70.4621 6.42958Z" fill="#EDFEFF"/>
<path d="M70.8613 7.67991L70.704 7.12524L62.0103 10.7438L70.8613 7.67991Z" fill="#EDFEFF"/>
<path d="M71.0849 8.9737L71.0037 8.40283L61.9033 10.7905L71.0849 8.9737Z" fill="#EDFEFF"/>
<path d="M71.1348 10.2871L71.1313 9.71021L61.7939 10.8231L71.1348 10.2871Z" fill="#EDFEFF"/>
<path d="M71.0099 11.5947L71.0845 11.0228L61.6841 10.8396L71.0099 11.5947Z" fill="#EDFEFF"/>
<path d="M70.7068 12.8728L70.8576 12.3161L61.5698 10.8403L70.7068 12.8728Z" fill="#EDFEFF"/>
<path d="M70.2335 14.0963L70.4578 13.5659L61.4556 10.8254L70.2335 14.0963Z" fill="#EDFEFF"/>
<path d="M69.6008 15.2447L69.8942 14.7497L61.3452 10.7947L69.6008 15.2447Z" fill="#EDFEFF"/>
<path d="M68.8196 16.2955L69.1777 15.8455L61.2412 10.75L68.8196 16.2955Z" fill="#EDFEFF"/>
<path d="M67.9041 17.2276L68.3193 16.8312L61.1436 10.6904L67.9041 17.2276Z" fill="#EDFEFF"/>
<path d="M66.8707 18.0255L67.3355 17.6899L61.0547 10.6187L66.8707 18.0255Z" fill="#EDFEFF"/>
<path d="M65.7414 18.6737L66.2467 18.4054L60.9775 10.5344L65.7414 18.6737Z" fill="#EDFEFF"/>
<path d="M64.534 19.1601L65.0714 18.9637L60.9121 10.4412L64.534 19.1601Z" fill="#EDFEFF"/>
<path d="M63.2714 19.4761L63.8298 19.3556L60.8579 10.3396L63.2714 19.4761Z" fill="#EDFEFF"/>
<path d="M61.9806 19.6148L62.5507 19.5722L60.8213 10.2312L61.9806 19.6148Z" fill="#EDFEFF"/>
<path d="M60.6787 19.5743L61.2488 19.6108L60.7954 10.1189L60.6787 19.5743Z" fill="#EDFEFF"/>
<path d="M59.3955 19.3561L59.9556 19.4705L60.7862 10.0044L59.3955 19.3561Z" fill="#EDFEFF"/>
<path d="M58.1597 18.9624L58.6987 19.1527L60.7978 9.88916L58.1597 18.9624Z" fill="#EDFEFF"/>
<path d="M56.98 18.4019L57.4883 18.6651L60.8158 9.77661L56.98 18.4019Z" fill="#EDFEFF"/>
<path d="M55.8931 17.685L56.3613 18.0156L60.8557 9.66821L55.8931 17.685Z" fill="#EDFEFF"/>
<path d="M54.9111 16.8247L55.3308 17.2165L60.908 9.56616L54.9111 16.8247Z" fill="#EDFEFF"/>
<path d="M54.0532 15.8367L54.4158 16.2827L60.9726 9.47119L54.0532 15.8367Z" fill="#EDFEFF"/>
<path d="M53.3359 14.7399L53.6354 15.2319L61.0491 9.38672L53.3359 14.7399Z" fill="#EDFEFF"/>
<path d="M52.7749 13.5547L53.0048 14.0832L61.1371 9.31372L52.7749 13.5547Z" fill="#EDFEFF"/>
<path d="M52.3755 12.3026L52.5317 12.8578L61.2315 9.25342L52.3755 12.3026Z" fill="#EDFEFF"/>
<path d="M52.1543 11.0092L52.2344 11.5806L61.3389 9.20703L52.1543 11.0092Z" fill="#EDFEFF"/>
<path d="M52.1055 9.69606L52.108 10.273L61.4473 9.17529L52.1055 9.69606Z" fill="#EDFEFF"/>
<path d="M52.2353 8.38916L52.1597 8.96104L61.5601 9.15942L52.2353 8.38916Z" fill="#EDFEFF"/>
<path d="M52.5394 7.11157L52.3877 7.66827L61.6734 9.15869L52.5394 7.11157Z" fill="#EDFEFF"/>
<path d="M53.0139 5.8877L52.7886 6.41807L61.7873 9.17321L53.0139 5.8877Z" fill="#EDFEFF"/>
<path d="M53.6475 4.74146L53.3525 5.23602L61.8961 9.20468L53.6475 4.74146Z" fill="#EDFEFF"/>
<path d="M54.4309 3.69238L54.0723 4.14139L62.0008 9.24952L54.4309 3.69238Z" fill="#EDFEFF"/>
<path d="M55.3493 2.7605L54.9331 3.15635L62.0994 9.30879L55.3493 2.7605Z" fill="#EDFEFF"/>
<path d="M56.3813 1.9646L55.916 2.2992L62.1858 9.38103L56.3813 1.9646Z" fill="#EDFEFF"/>
<path d="M57.5132 1.31812L57.0073 1.5859L62.2644 9.465L57.5132 1.31812Z" fill="#EDFEFF"/>
<path d="M58.722 0.834229L58.1846 1.02962L62.3309 9.5592L58.722 0.834229Z" fill="#EDFEFF"/>
<path d="M59.9842 0.520264L59.4253 0.639728L62.3831 9.66083L59.9842 0.520264Z" fill="#EDFEFF"/>
</svg>
