<svg width="248" height="248" viewBox="0 0 248 248" fill="none" xmlns="http://www.w3.org/2000/svg">
<path d="M119.138 0L111.718 0.561411L134.436 120.991L119.138 0Z" fill="url(#paint0_linear_205_693)"/>
<path d="M136.068 0.496025L128.641 0.0390625L134.749 122.44L136.068 0.496025Z" fill="url(#paint1_linear_205_693)"/>
<path d="M152.781 3.29016L145.484 1.82788L134.859 123.915L152.781 3.29016Z" fill="url(#paint2_linear_205_693)"/>
<path d="M168.953 8.33626L161.918 5.89478L134.769 125.397L168.953 8.33626Z" fill="url(#paint3_linear_205_693)"/>
<path d="M184.283 15.5431L177.653 12.1616L134.475 126.853L184.283 15.5431Z" fill="url(#paint4_linear_205_693)"/>
<path d="M198.492 24.7673L192.383 20.5176L133.992 128.256L198.492 24.7673Z" fill="url(#paint5_linear_205_693)"/>
<path d="M211.316 35.8455L205.841 30.7993L133.32 129.575L211.316 35.8455Z" fill="url(#paint6_linear_205_693)"/>
<path d="M222.502 48.5686L217.771 42.824L132.472 130.796L222.502 48.5686Z" fill="url(#paint7_linear_205_693)"/>
<path d="M231.861 62.6952L227.952 56.3564L131.467 131.886L231.861 62.6952Z" fill="url(#paint8_linear_205_693)"/>
<path d="M239.203 77.9643L236.194 71.1555L130.324 132.832L239.203 77.9643Z" fill="url(#paint9_linear_205_693)"/>
<path d="M244.397 94.0886L242.348 86.9338L129.058 133.609L244.397 94.0886Z" fill="url(#paint10_linear_205_693)"/>
<path d="M247.347 110.774L246.29 103.411L127.7 134.21L247.347 110.774Z" fill="url(#paint11_linear_205_693)"/>
<path d="M248.001 127.708L247.955 120.266L126.278 134.621L248.001 127.708Z" fill="url(#paint12_linear_205_693)"/>
<path d="M246.335 144.57L247.308 137.193L124.809 134.83L246.335 144.57Z" fill="url(#paint13_linear_205_693)"/>
<path d="M242.394 161.053L244.359 153.872L123.328 134.836L242.394 161.053Z" fill="url(#paint14_linear_205_693)"/>
<path d="M236.246 176.838L239.17 169.997L121.859 134.647L236.246 176.838Z" fill="url(#paint15_linear_205_693)"/>
<path d="M228.004 191.643L231.828 185.259L120.424 134.255L228.004 191.643Z" fill="url(#paint16_linear_205_693)"/>
<path d="M217.816 205.189L222.482 199.386L119.06 133.675L217.816 205.189Z" fill="url(#paint17_linear_205_693)"/>
<path d="M205.886 217.214L211.296 212.102L117.787 132.911L205.886 217.214Z" fill="url(#paint18_linear_205_693)"/>
<path d="M192.422 227.502L198.478 223.174L116.632 131.984L192.422 227.502Z" fill="url(#paint19_linear_205_693)"/>
<path d="M177.693 235.864L184.278 232.405L115.614 130.9L177.693 235.864Z" fill="url(#paint20_linear_205_693)"/>
<path d="M161.95 242.138L168.953 239.605L114.752 129.699L161.95 242.138Z" fill="url(#paint21_linear_205_693)"/>
<path d="M145.511 246.205L152.788 244.651L114.061 128.38L145.511 246.205Z" fill="url(#paint22_linear_205_693)"/>
<path d="M128.66 248L136.086 247.452L113.558 126.99L128.66 248Z" fill="url(#paint23_linear_205_693)"/>
<path d="M111.73 247.478L119.157 247.948L113.251 125.541L111.73 247.478Z" fill="url(#paint24_linear_205_693)"/>
<path d="M95.0234 244.657L102.32 246.133L113.14 124.059L95.0234 244.657Z" fill="url(#paint25_linear_205_693)"/>
<path d="M78.8633 239.585L85.8856 242.04L113.231 122.577L78.8633 239.585Z" fill="url(#paint26_linear_205_693)"/>
<path d="M63.54 232.352L70.1643 235.747L113.525 121.121L63.54 232.352Z" fill="url(#paint27_linear_205_693)"/>
<path d="M49.3457 223.109L55.4478 227.371L114.015 119.724L49.3457 223.109Z" fill="url(#paint28_linear_205_693)"/>
<path d="M36.541 212.011L42.0101 217.064L114.687 118.406L36.541 212.011Z" fill="url(#paint29_linear_205_693)"/>
<path d="M25.3672 199.275L30.0922 205.026L115.535 117.185L25.3672 199.275Z" fill="url(#paint30_linear_205_693)"/>
<path d="M16.0352 185.128L19.9379 191.474L116.547 116.094L16.0352 185.128Z" fill="url(#paint31_linear_205_693)"/>
<path d="M8.71875 169.846L11.7143 176.662L117.689 115.155L8.71875 169.846Z" fill="url(#paint32_linear_205_693)"/>
<path d="M3.55078 153.709L5.58699 160.87L118.956 114.378L3.55078 153.709Z" fill="url(#paint33_linear_205_693)"/>
<path d="M0.626953 137.023L1.67116 144.394L120.313 113.777L0.626953 137.023Z" fill="url(#paint34_linear_205_693)"/>
<path d="M0 120.09L0.0326316 127.532L121.735 113.372L0 120.09Z" fill="url(#paint35_linear_205_693)"/>
<path d="M1.69055 103.228L0.705078 110.604L123.204 113.163L1.69055 103.228Z" fill="url(#paint36_linear_205_693)"/>
<path d="M5.65814 86.751L3.68066 93.9318L124.685 113.157L5.65814 86.751Z" fill="url(#paint37_linear_205_693)"/>
<path d="M11.8323 70.9729L8.89551 77.8143L126.16 113.353L11.8323 70.9729Z" fill="url(#paint38_linear_205_693)"/>
<path d="M20.1008 56.1868L16.2568 62.5647L127.589 113.744L20.1008 56.1868Z" fill="url(#paint39_linear_205_693)"/>
<path d="M30.3017 42.6606L25.6289 48.451L128.947 114.325L30.3017 42.6606Z" fill="url(#paint40_linear_205_693)"/>
<path d="M42.2574 30.6489L36.834 35.7538L130.219 115.096L42.2574 30.6489Z" fill="url(#paint41_linear_205_693)"/>
<path d="M55.7348 20.3804L49.6719 24.6954L131.375 116.023L55.7348 20.3804Z" fill="url(#paint42_linear_205_693)"/>
<path d="M70.4773 12.0442L63.8857 15.4975L132.392 117.106L70.4773 12.0442Z" fill="url(#paint43_linear_205_693)"/>
<path d="M86.2254 5.79688L79.2227 8.3167L133.254 118.314L86.2254 5.79688Z" fill="url(#paint44_linear_205_693)"/>
<path d="M102.679 1.74951L95.3955 3.29013L133.94 119.626L102.679 1.74951Z" fill="url(#paint45_linear_205_693)"/>
<defs>
<linearGradient id="paint0_linear_205_693" x1="123.077" y1="0" x2="123.077" y2="120.991" gradientUnits="userSpaceOnUse">
<stop stop-color="#2B4CC9"/>
<stop offset="1" stop-color="#1B94FE"/>
</linearGradient>
<linearGradient id="paint1_linear_205_693" x1="132.354" y1="0.0390625" x2="132.354" y2="122.44" gradientUnits="userSpaceOnUse">
<stop stop-color="#2B4CC9"/>
<stop offset="1" stop-color="#1B94FE"/>
</linearGradient>
<linearGradient id="paint2_linear_205_693" x1="143.82" y1="1.82788" x2="143.82" y2="123.915" gradientUnits="userSpaceOnUse">
<stop stop-color="#2B4CC9"/>
<stop offset="1" stop-color="#1B94FE"/>
</linearGradient>
<linearGradient id="paint3_linear_205_693" x1="151.861" y1="5.89478" x2="151.861" y2="125.397" gradientUnits="userSpaceOnUse">
<stop stop-color="#2B4CC9"/>
<stop offset="1" stop-color="#1B94FE"/>
</linearGradient>
<linearGradient id="paint4_linear_205_693" x1="159.379" y1="12.1616" x2="159.379" y2="126.853" gradientUnits="userSpaceOnUse">
<stop stop-color="#2B4CC9"/>
<stop offset="1" stop-color="#1B94FE"/>
</linearGradient>
<linearGradient id="paint5_linear_205_693" x1="166.242" y1="20.5176" x2="166.242" y2="128.256" gradientUnits="userSpaceOnUse">
<stop stop-color="#2B4CC9"/>
<stop offset="1" stop-color="#1B94FE"/>
</linearGradient>
<linearGradient id="paint6_linear_205_693" x1="172.318" y1="30.7993" x2="172.318" y2="129.575" gradientUnits="userSpaceOnUse">
<stop stop-color="#2B4CC9"/>
<stop offset="1" stop-color="#1B94FE"/>
</linearGradient>
<linearGradient id="paint7_linear_205_693" x1="177.487" y1="42.824" x2="177.487" y2="130.796" gradientUnits="userSpaceOnUse">
<stop stop-color="#2B4CC9"/>
<stop offset="1" stop-color="#1B94FE"/>
</linearGradient>
<linearGradient id="paint8_linear_205_693" x1="181.664" y1="56.3564" x2="181.664" y2="131.886" gradientUnits="userSpaceOnUse">
<stop stop-color="#2B4CC9"/>
<stop offset="1" stop-color="#1B94FE"/>
</linearGradient>
<linearGradient id="paint9_linear_205_693" x1="184.763" y1="71.1555" x2="184.763" y2="132.832" gradientUnits="userSpaceOnUse">
<stop stop-color="#2B4CC9"/>
<stop offset="1" stop-color="#1B94FE"/>
</linearGradient>
<linearGradient id="paint10_linear_205_693" x1="186.727" y1="86.9338" x2="186.727" y2="133.609" gradientUnits="userSpaceOnUse">
<stop stop-color="#2B4CC9"/>
<stop offset="1" stop-color="#1B94FE"/>
</linearGradient>
<linearGradient id="paint11_linear_205_693" x1="187.524" y1="103.411" x2="187.524" y2="134.21" gradientUnits="userSpaceOnUse">
<stop stop-color="#2B4CC9"/>
<stop offset="1" stop-color="#1B94FE"/>
</linearGradient>
<linearGradient id="paint12_linear_205_693" x1="187.139" y1="120.266" x2="187.139" y2="134.621" gradientUnits="userSpaceOnUse">
<stop stop-color="#2B4CC9"/>
<stop offset="1" stop-color="#1B94FE"/>
</linearGradient>
<linearGradient id="paint13_linear_205_693" x1="186.058" y1="134.83" x2="186.058" y2="144.57" gradientUnits="userSpaceOnUse">
<stop stop-color="#2B4CC9"/>
<stop offset="1" stop-color="#1B94FE"/>
</linearGradient>
<linearGradient id="paint14_linear_205_693" x1="183.843" y1="134.836" x2="183.843" y2="161.053" gradientUnits="userSpaceOnUse">
<stop stop-color="#2B4CC9"/>
<stop offset="1" stop-color="#1B94FE"/>
</linearGradient>
<linearGradient id="paint15_linear_205_693" x1="180.515" y1="134.647" x2="180.515" y2="176.838" gradientUnits="userSpaceOnUse">
<stop stop-color="#2B4CC9"/>
<stop offset="1" stop-color="#1B94FE"/>
</linearGradient>
<linearGradient id="paint16_linear_205_693" x1="176.126" y1="134.255" x2="176.126" y2="191.643" gradientUnits="userSpaceOnUse">
<stop stop-color="#2B4CC9"/>
<stop offset="1" stop-color="#1B94FE"/>
</linearGradient>
<linearGradient id="paint17_linear_205_693" x1="170.771" y1="133.675" x2="170.771" y2="205.189" gradientUnits="userSpaceOnUse">
<stop stop-color="#2B4CC9"/>
<stop offset="1" stop-color="#1B94FE"/>
</linearGradient>
<linearGradient id="paint18_linear_205_693" x1="164.542" y1="132.911" x2="164.542" y2="217.214" gradientUnits="userSpaceOnUse">
<stop stop-color="#2B4CC9"/>
<stop offset="1" stop-color="#1B94FE"/>
</linearGradient>
<linearGradient id="paint19_linear_205_693" x1="157.555" y1="131.984" x2="157.555" y2="227.502" gradientUnits="userSpaceOnUse">
<stop stop-color="#2B4CC9"/>
<stop offset="1" stop-color="#1B94FE"/>
</linearGradient>
<linearGradient id="paint20_linear_205_693" x1="149.946" y1="130.9" x2="149.946" y2="235.864" gradientUnits="userSpaceOnUse">
<stop stop-color="#2B4CC9"/>
<stop offset="1" stop-color="#1B94FE"/>
</linearGradient>
<linearGradient id="paint21_linear_205_693" x1="141.852" y1="129.699" x2="141.852" y2="242.138" gradientUnits="userSpaceOnUse">
<stop stop-color="#2B4CC9"/>
<stop offset="1" stop-color="#1B94FE"/>
</linearGradient>
<linearGradient id="paint22_linear_205_693" x1="133.424" y1="128.38" x2="133.424" y2="246.205" gradientUnits="userSpaceOnUse">
<stop stop-color="#2B4CC9"/>
<stop offset="1" stop-color="#1B94FE"/>
</linearGradient>
<linearGradient id="paint23_linear_205_693" x1="124.822" y1="126.99" x2="124.822" y2="248" gradientUnits="userSpaceOnUse">
<stop stop-color="#2B4CC9"/>
<stop offset="1" stop-color="#1B94FE"/>
</linearGradient>
<linearGradient id="paint24_linear_205_693" x1="115.444" y1="125.541" x2="115.444" y2="247.948" gradientUnits="userSpaceOnUse">
<stop stop-color="#2B4CC9"/>
<stop offset="1" stop-color="#1B94FE"/>
</linearGradient>
<linearGradient id="paint25_linear_205_693" x1="104.082" y1="124.059" x2="104.082" y2="246.133" gradientUnits="userSpaceOnUse">
<stop stop-color="#2B4CC9"/>
<stop offset="1" stop-color="#1B94FE"/>
</linearGradient>
<linearGradient id="paint26_linear_205_693" x1="96.0471" y1="122.577" x2="96.0471" y2="242.04" gradientUnits="userSpaceOnUse">
<stop stop-color="#2B4CC9"/>
<stop offset="1" stop-color="#1B94FE"/>
</linearGradient>
<linearGradient id="paint27_linear_205_693" x1="88.5326" y1="121.121" x2="88.5326" y2="235.747" gradientUnits="userSpaceOnUse">
<stop stop-color="#2B4CC9"/>
<stop offset="1" stop-color="#1B94FE"/>
</linearGradient>
<linearGradient id="paint28_linear_205_693" x1="81.6803" y1="119.724" x2="81.6803" y2="227.371" gradientUnits="userSpaceOnUse">
<stop stop-color="#2B4CC9"/>
<stop offset="1" stop-color="#1B94FE"/>
</linearGradient>
<linearGradient id="paint29_linear_205_693" x1="75.6141" y1="118.406" x2="75.6141" y2="217.064" gradientUnits="userSpaceOnUse">
<stop stop-color="#2B4CC9"/>
<stop offset="1" stop-color="#1B94FE"/>
</linearGradient>
<linearGradient id="paint30_linear_205_693" x1="70.451" y1="117.185" x2="70.451" y2="205.026" gradientUnits="userSpaceOnUse">
<stop stop-color="#2B4CC9"/>
<stop offset="1" stop-color="#1B94FE"/>
</linearGradient>
<linearGradient id="paint31_linear_205_693" x1="66.2911" y1="116.094" x2="66.2911" y2="191.474" gradientUnits="userSpaceOnUse">
<stop stop-color="#2B4CC9"/>
<stop offset="1" stop-color="#1B94FE"/>
</linearGradient>
<linearGradient id="paint32_linear_205_693" x1="63.2037" y1="115.155" x2="63.2037" y2="176.662" gradientUnits="userSpaceOnUse">
<stop stop-color="#2B4CC9"/>
<stop offset="1" stop-color="#1B94FE"/>
</linearGradient>
<linearGradient id="paint33_linear_205_693" x1="61.2532" y1="114.378" x2="61.2532" y2="160.87" gradientUnits="userSpaceOnUse">
<stop stop-color="#2B4CC9"/>
<stop offset="1" stop-color="#1B94FE"/>
</linearGradient>
<linearGradient id="paint34_linear_205_693" x1="60.47" y1="113.777" x2="60.47" y2="144.394" gradientUnits="userSpaceOnUse">
<stop stop-color="#2B4CC9"/>
<stop offset="1" stop-color="#1B94FE"/>
</linearGradient>
<linearGradient id="paint35_linear_205_693" x1="60.8677" y1="113.372" x2="60.8677" y2="127.532" gradientUnits="userSpaceOnUse">
<stop stop-color="#2B4CC9"/>
<stop offset="1" stop-color="#1B94FE"/>
</linearGradient>
<linearGradient id="paint36_linear_205_693" x1="61.9546" y1="103.228" x2="61.9546" y2="113.163" gradientUnits="userSpaceOnUse">
<stop stop-color="#2B4CC9"/>
<stop offset="1" stop-color="#1B94FE"/>
</linearGradient>
<linearGradient id="paint37_linear_205_693" x1="64.1829" y1="86.751" x2="64.1829" y2="113.157" gradientUnits="userSpaceOnUse">
<stop stop-color="#2B4CC9"/>
<stop offset="1" stop-color="#1B94FE"/>
</linearGradient>
<linearGradient id="paint38_linear_205_693" x1="67.5279" y1="70.9729" x2="67.5279" y2="113.353" gradientUnits="userSpaceOnUse">
<stop stop-color="#2B4CC9"/>
<stop offset="1" stop-color="#1B94FE"/>
</linearGradient>
<linearGradient id="paint39_linear_205_693" x1="71.923" y1="56.1868" x2="71.923" y2="113.744" gradientUnits="userSpaceOnUse">
<stop stop-color="#2B4CC9"/>
<stop offset="1" stop-color="#1B94FE"/>
</linearGradient>
<linearGradient id="paint40_linear_205_693" x1="77.288" y1="42.6606" x2="77.288" y2="114.325" gradientUnits="userSpaceOnUse">
<stop stop-color="#2B4CC9"/>
<stop offset="1" stop-color="#1B94FE"/>
</linearGradient>
<linearGradient id="paint41_linear_205_693" x1="83.5265" y1="30.6489" x2="83.5265" y2="115.096" gradientUnits="userSpaceOnUse">
<stop stop-color="#2B4CC9"/>
<stop offset="1" stop-color="#1B94FE"/>
</linearGradient>
<linearGradient id="paint42_linear_205_693" x1="90.5233" y1="20.3804" x2="90.5233" y2="116.023" gradientUnits="userSpaceOnUse">
<stop stop-color="#2B4CC9"/>
<stop offset="1" stop-color="#1B94FE"/>
</linearGradient>
<linearGradient id="paint43_linear_205_693" x1="98.1391" y1="12.0442" x2="98.1391" y2="117.106" gradientUnits="userSpaceOnUse">
<stop stop-color="#2B4CC9"/>
<stop offset="1" stop-color="#1B94FE"/>
</linearGradient>
<linearGradient id="paint44_linear_205_693" x1="106.238" y1="5.79687" x2="106.238" y2="118.314" gradientUnits="userSpaceOnUse">
<stop stop-color="#2B4CC9"/>
<stop offset="1" stop-color="#1B94FE"/>
</linearGradient>
<linearGradient id="paint45_linear_205_693" x1="114.668" y1="1.74951" x2="114.668" y2="119.626" gradientUnits="userSpaceOnUse">
<stop stop-color="#2B4CC9"/>
<stop offset="1" stop-color="#1B94FE"/>
</linearGradient>
</defs>
</svg>
